JosefinSans-Light.ufo
<glyph name="exclam" format="2">
  <advance width="201"/>
  <unicode hex="0021"/>
  <outline>
    <contour>
      <point x="78" y="754" type="line"/>
      <point x="78" y="175" type="line"/>
      <point x="121" y="175" type="line"/>
      <point x="121" y="754" type="line"/>
    </contour>
    <contour>
      <point x="101" y="22" type="curve" smooth="yes"/>
      <point x="122" y="22"/>
      <point x="138" y="37"/>
      <point x="138" y="58" type="curve" smooth="yes"/>
      <point x="138" y="77"/>
      <point x="122" y="93"/>
      <point x="101" y="93" type="curve" smooth="yes"/>
      <point x="80" y="93"/>
      <point x="63" y="77"/>
      <point x="63" y="58" type="curve" smooth="yes"/>
      <point x="63" y="37"/>
      <point x="80" y="22"/>
    </contour>
  </outline>
</glyph>
<glyph name="quotedbl" format="2">
  <advance width="312"/>
  <unicode hex="0022"/>
  <outline>
    <contour>
      <point x="109" y="724" type="curve"/>
      <point x="63" y="724" type="line"/>
      <point x="63" y="474" type="line"/>
      <point x="105" y="474" type="line"/>
      <point x="106" y="558"/>
      <point x="108" y="640"/>
    </contour>
    <contour>
      <point x="243" y="724" type="curve"/>
      <point x="197" y="724" type="line"/>
      <point x="197" y="474" type="line"/>
      <point x="239" y="474" type="line"/>
      <point x="240" y="558"/>
      <point x="242" y="640"/>
    </contour>
  </outline>
</glyph>
<glyph name="numbersign" format="2">
  <advance width="574"/>
  <unicode hex="0023"/>
  <outline>
    <contour>
      <point x="231" y="646" type="curve"/>
      <point x="187" y="646" type="line"/>
      <point x="179" y="576"/>
      <point x="170" y="507"/>
      <point x="162" y="436" type="curve"/>
      <point x="55" y="436" type="line"/>
      <point x="53" y="422"/>
      <point x="52" y="408"/>
      <point x="50" y="394" type="curve"/>
      <point x="157" y="394" type="line"/>
      <point x="151" y="347"/>
      <point x="146" y="300"/>
      <point x="140" y="253" type="curve"/>
      <point x="32" y="253" type="line"/>
      <point x="31" y="239"/>
      <point x="29" y="225"/>
      <point x="27" y="210" type="curve"/>
      <point x="134" y="210" type="line"/>
      <point x="126" y="140"/>
      <point x="118" y="70"/>
      <point x="110" y="0" type="curve"/>
      <point x="154" y="0" type="line"/>
      <point x="162" y="70"/>
      <point x="170" y="140"/>
      <point x="178" y="210" type="curve"/>
      <point x="319" y="210" type="line"/>
      <point x="311" y="140"/>
      <point x="303" y="70"/>
      <point x="295" y="0" type="curve"/>
      <point x="339" y="0" type="line"/>
      <point x="347" y="70"/>
      <point x="355" y="140"/>
      <point x="363" y="210" type="curve"/>
      <point x="486" y="210" type="line"/>
      <point x="487" y="225"/>
      <point x="489" y="239"/>
      <point x="490" y="253" type="curve"/>
      <point x="369" y="253" type="line"/>
      <point x="374" y="300"/>
      <point x="379" y="347"/>
      <point x="385" y="394" type="curve"/>
      <point x="509" y="394" type="line"/>
      <point x="510" y="408"/>
      <point x="511" y="422"/>
      <point x="512" y="436" type="curve"/>
      <point x="390" y="436" type="line"/>
      <point x="399" y="507"/>
      <point x="407" y="576"/>
      <point x="416" y="646" type="curve"/>
      <point x="372" y="646" type="line"/>
      <point x="364" y="576"/>
      <point x="355" y="507"/>
      <point x="347" y="436" type="curve"/>
      <point x="205" y="436" type="line"/>
      <point x="214" y="507"/>
      <point x="222" y="576"/>
    </contour>
    <contour>
      <point x="200" y="394" type="curve"/>
      <point x="341" y="394" type="line"/>
      <point x="336" y="347"/>
      <point x="331" y="300"/>
      <point x="325" y="253" type="curve"/>
      <point x="183" y="253" type="line"/>
      <point x="189" y="300"/>
      <point x="195" y="347"/>
    </contour>
  </outline>
</glyph>
<glyph name="dollar" format="2">
  <advance width="567"/>
  <unicode hex="0024"/>
  <outline>
    <contour>
      <point x="288" y="-68" type="line"/>
      <point x="321" y="-68" type="line"/>
      <point x="321" y="369" type="line"/>
      <point x="321" y="392" type="line"/>
      <point x="321" y="775" type="line"/>
      <point x="288" y="775" type="line"/>
      <point x="288" y="391" type="line"/>
      <point x="288" y="373" type="line"/>
    </contour>
    <component base="S"/>
  </outline>
</glyph>
<glyph name="ampersand" format="2">
  <advance width="711"/>
  <unicode hex="0026"/>
  <outline>
    <contour>
      <point x="630" y="0" type="curve"/>
      <point x="246" y="502" type="line" smooth="yes"/>
      <point x="244" y="505"/>
      <point x="215" y="548"/>
      <point x="215" y="595" type="curve" smooth="yes"/>
      <point x="215" y="661"/>
      <point x="266" y="710"/>
      <point x="337" y="710" type="curve" smooth="yes"/>
      <point x="378" y="710"/>
      <point x="419" y="691"/>
      <point x="459" y="662" type="curve"/>
      <point x="483" y="695" type="line"/>
      <point x="447" y="724"/>
      <point x="393" y="752"/>
      <point x="330" y="752" type="curve" smooth="yes"/>
      <point x="233" y="752"/>
      <point x="165" y="684"/>
      <point x="165" y="595" type="curve" smooth="yes"/>
      <point x="165" y="547"/>
      <point x="187" y="509"/>
      <point x="204" y="481" type="curve"/>
      <point x="573" y="0" type="line"/>
      <point x="573" y="0"/>
      <point x="621" y="0"/>
    </contour>
    <contour>
      <point x="302" y="361" type="curve"/>
      <point x="299" y="401" type="line"/>
      <point x="182" y="397"/>
      <point x="68" y="311"/>
      <point x="68" y="193" type="curve" smooth="yes"/>
      <point x="68" y="81"/>
      <point x="165" y="-8"/>
      <point x="299" y="-8" type="curve" smooth="yes"/>
      <point x="400" y="-8"/>
      <point x="482" y="41"/>
      <point x="517" y="105" type="curve"/>
      <point x="486" y="137" type="line"/>
      <point x="461" y="83"/>
      <point x="390" y="36"/>
      <point x="304" y="36" type="curve" smooth="yes"/>
      <point x="204" y="36"/>
      <point x="120" y="100"/>
      <point x="120" y="194" type="curve" smooth="yes"/>
      <point x="120" y="293"/>
      <point x="216" y="360"/>
    </contour>
    <contour>
      <point x="585" y="401" type="line"/>
      <point x="487" y="139" type="line"/>
      <point x="522" y="112" type="line"/>
      <point x="633" y="401" type="line"/>
    </contour>
  </outline>
</glyph>
<glyph name="quotesingle" format="2">
  <advance width="154"/>
  <unicode hex="0027"/>
  <outline>
    <contour>
      <point x="103" y="724" type="curve"/>
      <point x="57" y="724" type="line"/>
      <point x="57" y="474" type="line"/>
      <point x="99" y="474" type="line"/>
      <point x="100" y="558"/>
      <point x="102" y="640"/>
    </contour>
  </outline>
</glyph>
<glyph name="parenleft" format="2">
  <advance width="398"/>
  <unicode hex="0028"/>
  <outline>
    <contour>
      <point x="128" y="293" type="curve" smooth="yes"/>
      <point x="128" y="293" type="line" smooth="yes"/>
      <point x="128" y="92"/>
      <point x="209" y="-75"/>
      <point x="294" y="-164" type="curve"/>
      <point x="326" y="-133" type="line"/>
      <point x="249" y="-45"/>
      <point x="177" y="105"/>
      <point x="177" y="293" type="curve" smooth="yes"/>
      <point x="177" y="481"/>
      <point x="249" y="631"/>
      <point x="326" y="720" type="curve"/>
      <point x="294" y="750" type="line"/>
      <point x="209" y="661"/>
      <point x="128" y="494"/>
    </contour>
  </outline>
</glyph>
<glyph name="parenright" format="2">
  <advance width="402"/>
  <unicode hex="0029"/>
  <outline>
    <contour>
      <point x="293" y="293" type="curve" smooth="yes"/>
      <point x="293" y="293" type="line" smooth="yes"/>
      <point x="293" y="494"/>
      <point x="212" y="661"/>
      <point x="128" y="750" type="curve"/>
      <point x="95" y="719" type="line"/>
      <point x="172" y="631"/>
      <point x="244" y="481"/>
      <point x="244" y="293" type="curve" smooth="yes"/>
      <point x="244" y="105"/>
      <point x="172" y="-45"/>
      <point x="95" y="-133" type="curve"/>
      <point x="128" y="-164" type="line"/>
      <point x="212" y="-75"/>
      <point x="293" y="92"/>
    </contour>
  </outline>
</glyph>
<glyph name="asterisk" format="2">
  <advance width="335"/>
  <unicode hex="002A"/>
  <outline>
    <contour>
      <point x="150" y="546" type="curve"/>
      <point x="150" y="434" type="line"/>
      <point x="182" y="434" type="line"/>
      <point x="182" y="472"/>
      <point x="183" y="509"/>
      <point x="183" y="546" type="curve"/>
      <point x="216" y="527"/>
      <point x="249" y="507"/>
      <point x="281" y="488" type="curve"/>
      <point x="287" y="498"/>
      <point x="293" y="508"/>
      <point x="299" y="518" type="curve"/>
      <point x="266" y="537"/>
      <point x="233" y="556"/>
      <point x="200" y="575" type="curve"/>
      <point x="200" y="575" type="line"/>
      <point x="234" y="594"/>
      <point x="267" y="614"/>
      <point x="300" y="633" type="curve"/>
      <point x="295" y="642"/>
      <point x="289" y="651"/>
      <point x="285" y="660" type="curve"/>
      <point x="251" y="642"/>
      <point x="217" y="622"/>
      <point x="184" y="604" type="curve"/>
      <point x="185" y="643"/>
      <point x="185" y="681"/>
      <point x="186" y="720" type="curve"/>
      <point x="150" y="720" type="line"/>
      <point x="150" y="604" type="line"/>
      <point x="117" y="623"/>
      <point x="84" y="642"/>
      <point x="51" y="661" type="curve"/>
      <point x="46" y="652"/>
      <point x="40" y="643"/>
      <point x="36" y="634" type="curve"/>
      <point x="68" y="615"/>
      <point x="101" y="595"/>
      <point x="133" y="576" type="curve"/>
      <point x="101" y="558"/>
      <point x="68" y="539"/>
      <point x="35" y="521" type="curve"/>
      <point x="41" y="511"/>
      <point x="47" y="500"/>
      <point x="53" y="490" type="curve"/>
      <point x="86" y="509"/>
      <point x="118" y="527"/>
    </contour>
  </outline>
</glyph>
<glyph name="plus" format="2">
  <advance width="546"/>
  <unicode hex="002B"/>
  <outline>
    <contour>
      <point x="246" y="413" type="line"/>
      <point x="246" y="254" type="line"/>
      <point x="87" y="254" type="line"/>
      <point x="87" y="212" type="line"/>
      <point x="246" y="212" type="line"/>
      <point x="246" y="51" type="line"/>
      <point x="289" y="51" type="line"/>
      <point x="289" y="212" type="line"/>
      <point x="448" y="212" type="line"/>
      <point x="448" y="254" type="line"/>
      <point x="289" y="254" type="line"/>
      <point x="289" y="413" type="line"/>
    </contour>
  </outline>
</glyph>
<glyph name="comma" format="2">
  <advance width="201"/>
  <unicode hex="002C"/>
  <outline>
    <contour>
      <point x="143" y="87" type="curve"/>
      <point x="94" y="87" type="line"/>
      <point x="68" y="17"/>
      <point x="43" y="-51"/>
      <point x="17" y="-121" type="curve"/>
      <point x="57" y="-121" type="line"/>
      <point x="86" y="-51"/>
      <point x="114" y="17"/>
    </contour>
  </outline>
</glyph>
<glyph name="hyphen" format="2">
  <advance width="302"/>
  <unicode hex="002D"/>
  <outline>
    <contour>
      <point x="53" y="222" type="line"/>
      <point x="53" y="180" type="line"/>
      <point x="238" y="180" type="line"/>
      <point x="238" y="222" type="line"/>
    </contour>
  </outline>
</glyph>
<glyph name="period" format="2">
  <advance width="165"/>
  <unicode hex="002E"/>
  <outline>
    <contour>
      <point x="53" y="34" type="curve" smooth="yes"/>
      <point x="53" y="34" type="line" smooth="yes"/>
      <point x="53" y="14"/>
      <point x="69" y="0"/>
      <point x="86" y="0" type="curve" smooth="yes"/>
      <point x="103" y="0"/>
      <point x="120" y="14"/>
      <point x="120" y="34" type="curve" smooth="yes"/>
      <point x="120" y="53"/>
      <point x="103" y="68"/>
      <point x="86" y="68" type="curve" smooth="yes"/>
      <point x="69" y="68"/>
      <point x="53" y="53"/>
    </contour>
  </outline>
</glyph>
<glyph name="slash" format="2">
  <advance width="348"/>
  <unicode hex="002F"/>
  <outline>
    <contour>
      <point x="340" y="740" type="curve"/>
      <point x="297" y="740" type="line"/>
      <point x="203" y="487"/>
      <point x="111" y="234"/>
      <point x="17" y="-19" type="curve"/>
      <point x="61" y="-19" type="line"/>
      <point x="154" y="234"/>
      <point x="247" y="487"/>
    </contour>
  </outline>
</glyph>
<glyph name="zero" format="2">
  <advance width="619"/>
  <unicode hex="0030"/>
  <outline>
    <contour>
      <point x="310" y="-5" type="curve"/>
      <point x="483" y="-6"/>
      <point x="583" y="142"/>
      <point x="583" y="328" type="curve"/>
      <point x="583" y="511"/>
      <point x="483" y="660"/>
      <point x="310" y="659" type="curve"/>
      <point x="134" y="660"/>
      <point x="36" y="518"/>
      <point x="36" y="328" type="curve"/>
      <point x="36" y="144"/>
      <point x="136" y="-6"/>
    </contour>
    <contour>
      <point x="309" y="42" type="curve"/>
      <point x="178" y="41"/>
      <point x="87" y="152"/>
      <point x="86" y="327" type="curve"/>
      <point x="87" y="502"/>
      <point x="178" y="613"/>
      <point x="309" y="612" type="curve"/>
      <point x="441" y="613"/>
      <point x="532" y="502"/>
      <point x="533" y="328" type="curve"/>
      <point x="532" y="152"/>
      <point x="441" y="41"/>
    </contour>
  </outline>
</glyph>
<glyph name="one" format="2">
  <advance width="315"/>
  <unicode hex="0031"/>
  <outline>
    <contour>
      <point x="56" y="653" type="line"/>
      <point x="56" y="606" type="line"/>
      <point x="153" y="606" type="line"/>
      <point x="153" y="0" type="line"/>
      <point x="202" y="0" type="line"/>
      <point x="202" y="653" type="line"/>
    </contour>
  </outline>
</glyph>
<glyph name="two" format="2">
  <advance width="507"/>
  <unicode hex="0032"/>
  <outline>
    <contour>
      <point x="53" y="0" type="curve"/>
      <point x="471" y="0" type="line"/>
      <point x="471" y="47" type="line"/>
      <point x="133" y="47" type="line"/>
      <point x="152" y="37" type="line"/>
      <point x="277" y="172"/>
      <point x="435" y="315"/>
      <point x="435" y="461" type="curve" smooth="yes"/>
      <point x="435" y="573"/>
      <point x="359" y="661"/>
      <point x="246" y="661" type="curve" smooth="yes"/>
      <point x="117" y="661"/>
      <point x="46" y="572"/>
      <point x="46" y="465" type="curve" smooth="yes"/>
      <point x="46" y="412"/>
      <point x="67" y="359"/>
      <point x="103" y="328" type="curve"/>
      <point x="133" y="355" type="line"/>
      <point x="107" y="382"/>
      <point x="94" y="419"/>
      <point x="94" y="466" type="curve" smooth="yes"/>
      <point x="94" y="526"/>
      <point x="126" y="615"/>
      <point x="240" y="615" type="curve" smooth="yes"/>
      <point x="304" y="615"/>
      <point x="385" y="574"/>
      <point x="385" y="457" type="curve" smooth="yes"/>
      <point x="385" y="322"/>
      <point x="223" y="166"/>
    </contour>
  </outline>
</glyph>
<glyph name="three" format="2">
  <advance width="520"/>
  <unicode hex="0033"/>
  <outline>
    <contour>
      <point x="418" y="653" type="line"/>
      <point x="88" y="653" type="line"/>
      <point x="88" y="607" type="line"/>
      <point x="360" y="607" type="line"/>
      <point x="342" y="616" type="line"/>
      <point x="148" y="352" type="line"/>
      <point x="152" y="349" type="line"/>
      <point x="175" y="360"/>
      <point x="208" y="369"/>
      <point x="245" y="369" type="curve" smooth="yes"/>
      <point x="341" y="369"/>
      <point x="403" y="312"/>
      <point x="403" y="219" type="curve" smooth="yes"/>
      <point x="403" y="112"/>
      <point x="328" y="39"/>
      <point x="224" y="39" type="curve" smooth="yes"/>
      <point x="172" y="39"/>
      <point x="120" y="65"/>
      <point x="91" y="100" type="curve"/>
      <point x="66" y="60" type="line"/>
      <point x="104" y="19"/>
      <point x="164" y="-8"/>
      <point x="225" y="-8" type="curve" smooth="yes"/>
      <point x="355" y="-8"/>
      <point x="453" y="81"/>
      <point x="453" y="217" type="curve" smooth="yes"/>
      <point x="453" y="349"/>
      <point x="362" y="410"/>
      <point x="258" y="405" type="curve"/>
      <point x="229" y="405"/>
      <point x="201" y="399"/>
      <point x="179" y="386" type="curve"/>
      <point x="216" y="375" type="line"/>
    </contour>
  </outline>
</glyph>
<glyph name="four" format="2">
  <advance width="518"/>
  <unicode hex="0034"/>
  <outline>
    <contour>
      <point x="15" y="173" type="line"/>
      <point x="347" y="173" type="line"/>
      <point x="347" y="0" type="line"/>
      <point x="396" y="0" type="line"/>
      <point x="396" y="173" type="line"/>
      <point x="488" y="173" type="line"/>
      <point x="488" y="212" type="line"/>
      <point x="396" y="212" type="line"/>
      <point x="396" y="661" type="line"/>
      <point x="395" y="661" type="line"/>
      <point x="15" y="174" type="line"/>
    </contour>
    <contour>
      <point x="353" y="542" type="line"/>
      <point x="347" y="571" type="line"/>
      <point x="347" y="212" type="line"/>
      <point x="76" y="212" type="line"/>
      <point x="92" y="208" type="line"/>
    </contour>
  </outline>
</glyph>
<glyph name="five" format="2">
  <advance width="527"/>
  <unicode hex="0035"/>
  <outline>
    <contour>
      <point x="247" y="-8" type="curve" smooth="yes"/>
      <point x="373" y="-8"/>
      <point x="457" y="86"/>
      <point x="457" y="203" type="curve" smooth="yes"/>
      <point x="457" y="317"/>
      <point x="394" y="409"/>
      <point x="264" y="410" type="curve" smooth="yes"/>
      <point x="228" y="410"/>
      <point x="186" y="402"/>
      <point x="159" y="389" type="curve"/>
      <point x="167" y="378" type="line"/>
      <point x="167" y="607" type="line"/>
      <point x="422" y="607" type="line"/>
      <point x="422" y="653" type="line"/>
      <point x="124" y="653" type="line"/>
      <point x="124" y="329" type="line"/>
      <point x="125" y="329" type="line"/>
      <point x="159" y="352"/>
      <point x="202" y="368"/>
      <point x="253" y="368" type="curve" smooth="yes"/>
      <point x="360" y="368"/>
      <point x="407" y="295"/>
      <point x="407" y="202" type="curve" smooth="yes"/>
      <point x="407" y="111"/>
      <point x="343" y="37"/>
      <point x="242" y="37" type="curve" smooth="yes"/>
      <point x="195" y="37"/>
      <point x="148" y="56"/>
      <point x="118" y="88" type="curve"/>
      <point x="90" y="53" type="line"/>
      <point x="129" y="16"/>
      <point x="186" y="-8"/>
    </contour>
  </outline>
</glyph>
<glyph name="six" format="2">
  <advance width="529"/>
  <unicode hex="0036"/>
  <outline>
    <contour>
      <point x="262" y="-8" type="curve" smooth="yes"/>
      <point x="378" y="-8"/>
      <point x="477" y="80"/>
      <point x="477" y="201" type="curve" smooth="yes"/>
      <point x="477" y="316"/>
      <point x="384" y="406"/>
      <point x="276" y="406" type="curve" smooth="yes"/>
      <point x="199" y="406"/>
      <point x="137" y="371"/>
      <point x="100" y="306" type="curve"/>
      <point x="113" y="303" type="line"/>
      <point x="137" y="398"/>
      <point x="231" y="511"/>
      <point x="397" y="609" type="curve"/>
      <point x="365" y="646" type="line"/>
      <point x="215" y="542"/>
      <point x="45" y="407"/>
      <point x="45" y="218" type="curve" smooth="yes"/>
      <point x="45" y="86"/>
      <point x="141" y="-8"/>
    </contour>
    <contour>
      <point x="260" y="36" type="curve" smooth="yes"/>
      <point x="168" y="36"/>
      <point x="94" y="110"/>
      <point x="94" y="199" type="curve" smooth="yes"/>
      <point x="94" y="210" type="line" smooth="yes"/>
      <point x="94" y="297"/>
      <point x="168" y="364"/>
      <point x="260" y="364" type="curve" smooth="yes"/>
      <point x="352" y="364"/>
      <point x="427" y="294"/>
      <point x="427" y="201" type="curve" smooth="yes"/>
      <point x="427" y="107"/>
      <point x="352" y="36"/>
    </contour>
  </outline>
</glyph>
<glyph name="seven" format="2">
  <advance width="476"/>
  <unicode hex="0037"/>
  <outline>
    <contour>
      <point x="435" y="653" type="line"/>
      <point x="22" y="653" type="line"/>
      <point x="22" y="607" type="line"/>
      <point x="388" y="607" type="line"/>
      <point x="368" y="618" type="line"/>
      <point x="99" y="0" type="line"/>
      <point x="155" y="0" type="line"/>
    </contour>
  </outline>
</glyph>
<glyph name="eight" format="2">
  <advance width="514"/>
  <unicode hex="0038"/>
  <outline>
    <contour>
      <point x="41" y="200" type="curve" smooth="yes"/>
      <point x="41" y="200" type="line" smooth="yes"/>
      <point x="41" y="87"/>
      <point x="135" y="-8"/>
      <point x="255" y="-8" type="curve" smooth="yes"/>
      <point x="376" y="-8"/>
      <point x="473" y="87"/>
      <point x="473" y="200" type="curve" smooth="yes"/>
      <point x="473" y="297"/>
      <point x="406" y="368"/>
      <point x="328" y="392" type="curve"/>
      <point x="376" y="414"/>
      <point x="410" y="456"/>
      <point x="410" y="514" type="curve" smooth="yes"/>
      <point x="410" y="597"/>
      <point x="347" y="661"/>
      <point x="254" y="661" type="curve" smooth="yes"/>
      <point x="161" y="661"/>
      <point x="98" y="598"/>
      <point x="98" y="513" type="curve" smooth="yes"/>
      <point x="98" y="457"/>
      <point x="133" y="413"/>
      <point x="182" y="392" type="curve"/>
      <point x="106" y="368"/>
      <point x="41" y="297"/>
    </contour>
    <contour>
      <point x="90" y="202" type="curve" smooth="yes"/>
      <point x="90" y="202" type="line" smooth="yes"/>
      <point x="90" y="294"/>
      <point x="165" y="368"/>
      <point x="256" y="368" type="curve" smooth="yes"/>
      <point x="349" y="367"/>
      <point x="424" y="293"/>
      <point x="424" y="202" type="curve" smooth="yes"/>
      <point x="424" y="111"/>
      <point x="347" y="34"/>
      <point x="254" y="34" type="curve" smooth="yes"/>
      <point x="163" y="34"/>
      <point x="90" y="111"/>
    </contour>
    <contour>
      <point x="145" y="508" type="curve" smooth="yes"/>
      <point x="145" y="508" type="line" smooth="yes"/>
      <point x="145" y="575"/>
      <point x="195" y="620"/>
      <point x="256" y="620" type="curve" smooth="yes"/>
      <point x="316" y="620"/>
      <point x="363" y="575"/>
      <point x="363" y="508" type="curve" smooth="yes"/>
      <point x="363" y="452"/>
      <point x="316" y="409"/>
      <point x="256" y="409" type="curve" smooth="yes"/>
      <point x="195" y="409"/>
      <point x="145" y="452"/>
    </contour>
  </outline>
</glyph>
<glyph name="nine" format="2">
  <advance width="529"/>
  <unicode hex="0039"/>
  <outline>
    <contour>
      <point x="246" y="224" type="curve" smooth="yes"/>
      <point x="333" y="224"/>
      <point x="382" y="257"/>
      <point x="426" y="323" type="curve"/>
      <point x="406" y="320" type="line"/>
      <point x="384" y="242"/>
      <point x="287" y="132"/>
      <point x="114" y="29" type="curve"/>
      <point x="147" y="-9" type="line"/>
      <point x="298" y="97"/>
      <point x="477" y="228"/>
      <point x="477" y="426" type="curve"/>
      <point x="477" y="555"/>
      <point x="381" y="638"/>
      <point x="260" y="638" type="curve" smooth="yes"/>
      <point x="144" y="638"/>
      <point x="45" y="550"/>
      <point x="45" y="429" type="curve" smooth="yes"/>
      <point x="45" y="314"/>
      <point x="138" y="224"/>
    </contour>
    <contour>
      <point x="262" y="267" type="curve" smooth="yes"/>
      <point x="170" y="267"/>
      <point x="95" y="336"/>
      <point x="95" y="429" type="curve" smooth="yes"/>
      <point x="95" y="523"/>
      <point x="170" y="593"/>
      <point x="262" y="593" type="curve" smooth="yes"/>
      <point x="351" y="593"/>
      <point x="424" y="528"/>
      <point x="428" y="437" type="curve"/>
      <point x="428" y="422" type="line"/>
      <point x="428" y="325"/>
      <point x="361" y="267"/>
    </contour>
  </outline>
</glyph>
<glyph name="colon" format="2">
  <advance width="176"/>
  <unicode hex="003A"/>
  <outline>
    <contour>
      <point x="52" y="293" type="curve" smooth="yes"/>
      <point x="52" y="293" type="line" smooth="yes"/>
      <point x="52" y="273"/>
      <point x="68" y="259"/>
      <point x="86" y="259" type="curve" smooth="yes"/>
      <point x="102" y="259"/>
      <point x="119" y="273"/>
      <point x="119" y="293" type="curve" smooth="yes"/>
      <point x="119" y="312"/>
      <point x="102" y="327"/>
      <point x="86" y="327" type="curve" smooth="yes"/>
      <point x="68" y="327"/>
      <point x="52" y="312"/>
    </contour>
    <contour>
      <point x="52" y="34" type="curve" smooth="yes"/>
      <point x="52" y="34" type="line" smooth="yes"/>
      <point x="52" y="14"/>
      <point x="68" y="0"/>
      <point x="86" y="0" type="curve" smooth="yes"/>
      <point x="102" y="0"/>
      <point x="119" y="14"/>
      <point x="119" y="34" type="curve" smooth="yes"/>
      <point x="119" y="53"/>
      <point x="102" y="68"/>
      <point x="86" y="68" type="curve" smooth="yes"/>
      <point x="68" y="68"/>
      <point x="52" y="53"/>
    </contour>
  </outline>
</glyph>
<glyph name="semicolon" format="2">
  <advance width="202"/>
  <unicode hex="003B"/>
  <outline>
    <contour>
      <point x="78" y="285" type="curve" smooth="yes"/>
      <point x="78" y="285" type="line" smooth="yes"/>
      <point x="78" y="265"/>
      <point x="95" y="251"/>
      <point x="112" y="251" type="curve" smooth="yes"/>
      <point x="129" y="251"/>
      <point x="145" y="265"/>
      <point x="145" y="285" type="curve" smooth="yes"/>
      <point x="145" y="304"/>
      <point x="129" y="319"/>
      <point x="112" y="319" type="curve" smooth="yes"/>
      <point x="95" y="319"/>
      <point x="78" y="304"/>
    </contour>
    <contour>
      <point x="128" y="87" type="curve"/>
      <point x="79" y="87" type="line"/>
      <point x="53" y="17"/>
      <point x="28" y="-51"/>
      <point x="2" y="-121" type="curve"/>
      <point x="42" y="-121" type="line"/>
      <point x="71" y="-51"/>
      <point x="99" y="17"/>
    </contour>
  </outline>
</glyph>
<glyph name="less" format="2">
  <advance width="647"/>
  <unicode hex="003C"/>
  <outline>
    <contour>
      <point x="532" y="441" type="line"/>
      <point x="532" y="493" type="line"/>
      <point x="93" y="239" type="line"/>
      <point x="532" y="-15" type="line"/>
      <point x="532" y="37" type="line"/>
      <point x="183" y="239" type="line"/>
    </contour>
  </outline>
</glyph>
<glyph name="equal" format="2">
  <advance width="712"/>
  <unicode hex="003D"/>
  <outline>
    <contour>
      <point x="101" y="372" type="line"/>
      <point x="101" y="330" type="line"/>
      <point x="609" y="330" type="line"/>
      <point x="609" y="372" type="line"/>
    </contour>
    <contour>
      <point x="101" y="177" type="line"/>
      <point x="101" y="135" type="line"/>
      <point x="609" y="135" type="line"/>
      <point x="609" y="177" type="line"/>
    </contour>
  </outline>
</glyph>
<glyph name="greater" format="2">
  <advance width="625"/>
  <unicode hex="003E"/>
  <outline>
    <contour>
      <point x="106" y="37" type="line"/>
      <point x="106" y="-15" type="line"/>
      <point x="106" y="-15" type="line"/>
      <point x="546" y="239" type="line"/>
      <point x="106" y="493" type="line"/>
      <point x="106" y="441" type="line"/>
      <point x="456" y="239" type="line"/>
    </contour>
  </outline>
</glyph>
<glyph name="question" format="2">
  <advance width="455"/>
  <unicode hex="003F"/>
  <outline>
    <contour>
      <point x="191" y="173" type="line"/>
      <point x="238" y="173" type="line"/>
      <point x="238" y="236" type="line" smooth="yes"/>
      <point x="238" y="320"/>
      <point x="276" y="332"/>
      <point x="324" y="370" type="curve" smooth="yes"/>
      <point x="379" y="413"/>
      <point x="420" y="462"/>
      <point x="420" y="543" type="curve" smooth="yes"/>
      <point x="420" y="657"/>
      <point x="334" y="736"/>
      <point x="223" y="736" type="curve" smooth="yes"/>
      <point x="119" y="736"/>
      <point x="49" y="663"/>
      <point x="25" y="594" type="curve"/>
      <point x="65" y="577" type="line"/>
      <point x="87" y="643"/>
      <point x="145" y="692"/>
      <point x="219" y="692" type="curve" smooth="yes"/>
      <point x="302" y="692"/>
      <point x="371" y="628"/>
      <point x="371" y="540" type="curve" smooth="yes"/>
      <point x="371" y="470"/>
      <point x="335" y="432"/>
      <point x="287" y="396" type="curve" smooth="yes"/>
      <point x="238" y="358"/>
      <point x="191" y="341"/>
      <point x="191" y="246" type="curve" smooth="yes"/>
    </contour>
    <contour>
      <point x="217" y="22" type="curve" smooth="yes"/>
      <point x="238" y="22"/>
      <point x="254" y="37"/>
      <point x="254" y="58" type="curve" smooth="yes"/>
      <point x="254" y="77"/>
      <point x="238" y="93"/>
      <point x="217" y="93" type="curve" smooth="yes"/>
      <point x="196" y="93"/>
      <point x="179" y="77"/>
      <point x="179" y="58" type="curve" smooth="yes"/>
      <point x="179" y="37"/>
      <point x="196" y="22"/>
    </contour>
  </outline>
</glyph>
<glyph name="at" format="2">
  <advance width="993"/>
  <unicode hex="0040"/>
  <outline>
    <contour>
      <point x="414" y="-212" type="curve"/>
      <point x="503" y="-212"/>
      <point x="593" y="-184"/>
      <point x="668" y="-133" type="curve"/>
      <point x="647" y="-103" type="line"/>
      <point x="580" y="-145"/>
      <point x="502" y="-173"/>
      <point x="421" y="-173" type="curve"/>
      <point x="220" y="-173"/>
      <point x="95" y="-61"/>
      <point x="95" y="147" type="curve"/>
      <point x="95" y="290"/>
      <point x="215" y="571"/>
      <point x="567" y="571" type="curve"/>
      <point x="766" y="571"/>
      <point x="896" y="439"/>
      <point x="896" y="272" type="curve"/>
      <point x="896" y="147"/>
      <point x="817" y="34"/>
      <point x="731" y="34" type="curve"/>
      <point x="679" y="34"/>
      <point x="670" y="77"/>
      <point x="675" y="117" type="curve"/>
      <point x="713" y="391" type="line"/>
      <point x="670" y="391" type="line"/>
      <point x="651" y="294" type="line"/>
      <point x="630" y="357"/>
      <point x="573" y="403"/>
      <point x="486" y="403" type="curve"/>
      <point x="359" y="403"/>
      <point x="262" y="297"/>
      <point x="262" y="173" type="curve"/>
      <point x="259" y="67"/>
      <point x="337" y="-8"/>
      <point x="445" y="-8" type="curve"/>
      <point x="525" y="-8"/>
      <point x="604" y="50"/>
      <point x="639" y="114" type="curve"/>
      <point x="630" y="139" type="line"/>
      <point x="612" y="48"/>
      <point x="646" y="-9"/>
      <point x="722" y="-9" type="curve"/>
      <point x="846" y="-9"/>
      <point x="942" y="124"/>
      <point x="942" y="272" type="curve"/>
      <point x="942" y="463"/>
      <point x="795" y="610"/>
      <point x="574" y="610" type="curve"/>
      <point x="194" y="610"/>
      <point x="51" y="327"/>
      <point x="51" y="144" type="curve"/>
      <point x="51" y="-85"/>
      <point x="195" y="-212"/>
    </contour>
    <contour>
      <point x="461" y="32" type="curve"/>
      <point x="372" y="32"/>
      <point x="311" y="95"/>
      <point x="312" y="178" type="curve"/>
      <point x="312" y="279"/>
      <point x="395" y="363"/>
      <point x="491" y="363" type="curve"/>
      <point x="574" y="363"/>
      <point x="637" y="307"/>
      <point x="642" y="234" type="curve"/>
      <point x="635" y="178" type="line"/>
      <point x="617" y="92"/>
      <point x="537" y="32"/>
    </contour>
  </outline>
</glyph>
<glyph name="A" format="2">
  <advance width="706"/>
  <unicode hex="0041"/>
  <anchor x="353" y="0" name="bottom"/>
  <anchor x="627" y="10" name="ogonek"/>
  <anchor x="353" y="720" name="top"/>
  <outline>
    <contour>
      <point x="51" y="0" type="line"/>
      <point x="100" y="0" type="line"/>
      <point x="373" y="682" type="line"/>
      <point x="339" y="663" type="line"/>
      <point x="600" y="0" type="line"/>
      <point x="655" y="0" type="line"/>
      <point x="355" y="741" type="line"/>
      <point x="351" y="741" type="line"/>
    </contour>
    <contour>
      <point x="196" y="281" type="line"/>
      <point x="184" y="235" type="line"/>
      <point x="525" y="235" type="line"/>
      <point x="511" y="281" type="line"/>
    </contour>
  </outline>
</glyph>
<glyph name="B" format="2">
  <advance width="590"/>
  <unicode hex="0042"/>
  <anchor x="290" y="0" name="bottom"/>
  <anchor x="290" y="710" name="top"/>
  <outline>
    <contour>
      <point x="270" y="710" type="curve" smooth="yes"/>
      <point x="113" y="710" type="line"/>
      <point x="113" y="0" type="line"/>
      <point x="298" y="0" type="line" smooth="yes"/>
      <point x="414" y="0"/>
      <point x="522" y="61"/>
      <point x="522" y="189" type="curve" smooth="yes"/>
      <point x="522" y="295"/>
      <point x="430" y="363"/>
      <point x="321" y="372" type="curve"/>
      <point x="326" y="348" type="line"/>
      <point x="432" y="361"/>
      <point x="486" y="436"/>
      <point x="486" y="530" type="curve" smooth="yes"/>
      <point x="486" y="656"/>
      <point x="407" y="710"/>
    </contour>
    <contour>
      <point x="293" y="378" type="curve" smooth="yes"/>
      <point x="162" y="378" type="line"/>
      <point x="162" y="663" type="line"/>
      <point x="272" y="663" type="line" smooth="yes"/>
      <point x="372" y="663"/>
      <point x="436" y="622"/>
      <point x="436" y="521" type="curve" smooth="yes"/>
      <point x="436" y="440"/>
      <point x="394" y="378"/>
    </contour>
    <contour>
      <point x="296" y="45" type="curve" smooth="yes"/>
      <point x="162" y="45" type="line"/>
      <point x="162" y="331" type="line"/>
      <point x="293" y="331" type="line" smooth="yes"/>
      <point x="378" y="331"/>
      <point x="472" y="290"/>
      <point x="472" y="187" type="curve" smooth="yes"/>
      <point x="472" y="92"/>
      <point x="392" y="45"/>
    </contour>
  </outline>
</glyph>
<glyph name="C" format="2">
  <advance width="691"/>
  <unicode hex="0043"/>
  <anchor x="411" y="0" name="bottom"/>
  <anchor x="408" y="722" name="top"/>
  <outline>
    <contour>
      <point x="623" y="47" type="curve"/>
      <point x="600" y="90" type="line"/>
      <point x="554" y="61"/>
      <point x="496" y="39"/>
      <point x="427" y="39" type="curve" smooth="yes"/>
      <point x="239" y="39"/>
      <point x="119" y="180"/>
      <point x="119" y="352" type="curve" smooth="yes"/>
      <point x="119" y="530"/>
      <point x="258" y="671"/>
      <point x="427" y="671" type="curve" smooth="yes"/>
      <point x="492" y="671"/>
      <point x="552" y="648"/>
      <point x="599" y="619" type="curve"/>
      <point x="620" y="664" type="line"/>
      <point x="567" y="696"/>
      <point x="501" y="718"/>
      <point x="426" y="718" type="curve" smooth="yes"/>
      <point x="224" y="718"/>
      <point x="68" y="559"/>
      <point x="68" y="350" type="curve" smooth="yes"/>
      <point x="68" y="156"/>
      <point x="209" y="-7"/>
      <point x="426" y="-8" type="curve" smooth="yes"/>
      <point x="509" y="-9"/>
      <point x="577" y="19"/>
    </contour>
  </outline>
</glyph>
<glyph name="D" format="2">
  <advance width="736"/>
  <unicode hex="0044"/>
  <anchor x="363" y="0" name="bottom"/>
  <anchor x="136" y="355" name="center"/>
  <anchor x="297" y="710" name="top"/>
  <outline>
    <contour>
      <point x="113" y="0" type="line"/>
      <point x="322" y="0" type="line" smooth="yes"/>
      <point x="505" y="0"/>
      <point x="668" y="136"/>
      <point x="668" y="351" type="curve" smooth="yes"/>
      <point x="668" y="516"/>
      <point x="563" y="710"/>
      <point x="288" y="710" type="curve" smooth="yes"/>
      <point x="113" y="710" type="line"/>
    </contour>
    <contour>
      <point x="162" y="47" type="line"/>
      <point x="162" y="662" type="line"/>
      <point x="295" y="662" type="line" smooth="yes"/>
      <point x="507" y="662"/>
      <point x="618" y="516"/>
      <point x="618" y="354" type="curve" smooth="yes"/>
      <point x="618" y="163"/>
      <point x="480" y="47"/>
      <point x="309" y="47" type="curve"/>
    </contour>
  </outline>
</glyph>
<glyph name="E" format="2">
  <advance width="639"/>
  <unicode hex="0045"/>
  <anchor x="323" y="0" name="bottom"/>
  <anchor x="536" y="10" name="ogonek"/>
  <anchor x="323" y="715" name="top"/>
  <anchor x="12" y="710" name="topleft"/>
  <outline>
    <contour>
      <point x="113" y="710" type="line"/>
      <point x="113" y="0" type="line"/>
      <point x="565" y="0" type="line"/>
      <point x="565" y="47" type="line"/>
      <point x="162" y="47" type="line"/>
      <point x="162" y="334" type="line"/>
      <point x="512" y="334" type="line"/>
      <point x="512" y="381" type="line"/>
      <point x="162" y="381" type="line"/>
      <point x="162" y="663" type="line"/>
      <point x="551" y="663" type="line"/>
      <point x="551" y="710" type="line"/>
    </contour>
  </outline>
</glyph>
<glyph name="F" format="2">
  <advance width="578"/>
  <unicode hex="0046"/>
  <anchor x="295" y="0" name="bottom"/>
  <anchor x="295" y="710" name="top"/>
  <outline>
    <contour>
      <point x="113" y="710" type="line"/>
      <point x="113" y="0" type="line"/>
      <point x="162" y="0" type="line"/>
      <point x="162" y="324" type="line"/>
      <point x="471" y="324" type="line"/>
      <point x="471" y="370" type="line"/>
      <point x="162" y="370" type="line"/>
      <point x="162" y="663" type="line"/>
      <point x="511" y="663" type="line"/>
      <point x="511" y="710" type="line"/>
    </contour>
  </outline>
</glyph>
<glyph name="G" format="2">
  <advance width="741"/>
  <unicode hex="0047"/>
  <anchor x="388" y="0" name="bottom"/>
  <anchor x="403" y="710" name="top"/>
  <outline>
    <contour>
      <point x="649" y="50" type="curve"/>
      <point x="649" y="323" type="line"/>
      <point x="440" y="323" type="line"/>
      <point x="440" y="276" type="line"/>
      <point x="600" y="276" type="line"/>
      <point x="600" y="79" type="line"/>
      <point x="556" y="54"/>
      <point x="489" y="40"/>
      <point x="433" y="40" type="curve" smooth="yes"/>
      <point x="243" y="40"/>
      <point x="118" y="175"/>
      <point x="118" y="351" type="curve" smooth="yes"/>
      <point x="118" y="533"/>
      <point x="255" y="669"/>
      <point x="436" y="669" type="curve" smooth="yes"/>
      <point x="495" y="669"/>
      <point x="561" y="650"/>
      <point x="608" y="622" type="curve"/>
      <point x="626" y="666" type="line"/>
      <point x="572" y="698"/>
      <point x="505" y="718"/>
      <point x="431" y="718" type="curve" smooth="yes"/>
      <point x="233" y="718"/>
      <point x="68" y="565"/>
      <point x="68" y="348" type="curve" smooth="yes"/>
      <point x="68" y="149"/>
      <point x="211" y="-8"/>
      <point x="434" y="-8" type="curve" smooth="yes"/>
      <point x="507" y="-8"/>
      <point x="601" y="18"/>
    </contour>
  </outline>
</glyph>
<glyph name="H" format="2">
  <advance width="752"/>
  <unicode hex="0048"/>
  <anchor x="376" y="0" name="bottom"/>
  <anchor x="376" y="355" name="center"/>
  <anchor x="376" y="710" name="top"/>
  <anchor x="12" y="710" name="topleft"/>
  <outline>
    <contour>
      <point x="639" y="710" type="line"/>
      <point x="590" y="710" type="line"/>
      <point x="590" y="380" type="line"/>
      <point x="162" y="380" type="line"/>
      <point x="162" y="710" type="line"/>
      <point x="113" y="710" type="line"/>
      <point x="113" y="0" type="line"/>
      <point x="162" y="0" type="line"/>
      <point x="162" y="334" type="line"/>
      <point x="590" y="334" type="line"/>
      <point x="590" y="0" type="line"/>
      <point x="639" y="0" type="line"/>
    </contour>
  </outline>
</glyph>
<glyph name="I" format="2">
  <advance width="275"/>
  <unicode hex="0049"/>
  <anchor x="138" y="0" name="bottom"/>
  <anchor x="142" y="10" name="ogonek"/>
  <anchor x="138" y="715" name="top"/>
  <anchor x="12" y="710" name="topleft"/>
  <outline>
    <contour>
      <point x="113" y="710" type="line"/>
      <point x="113" y="0" type="line"/>
      <point x="162" y="0" type="line"/>
      <point x="162" y="710" type="line"/>
    </contour>
  </outline>
</glyph>
<glyph name="J" format="2">
  <advance width="330"/>
  <unicode hex="004A"/>
  <anchor x="168" y="0" name="bottom"/>
  <anchor x="187" y="715" name="top"/>
  <outline>
    <contour>
      <point x="217" y="107" type="curve" smooth="yes"/>
      <point x="217" y="710" type="line"/>
      <point x="168" y="710" type="line"/>
      <point x="168" y="110" type="line" smooth="yes"/>
      <point x="168" y="-21"/>
      <point x="97" y="-93"/>
      <point x="1" y="-98" type="curve"/>
      <point x="1" y="-145" type="line"/>
      <point x="1" y="-145" type="line"/>
      <point x="122" y="-141"/>
      <point x="217" y="-52"/>
    </contour>
  </outline>
</glyph>
<glyph name="K" format="2">
  <advance width="655"/>
  <unicode hex="004B"/>
  <anchor x="311" y="0" name="bottom"/>
  <anchor x="324" y="710" name="top"/>
  <outline>
    <contour>
      <point x="163" y="390" type="line"/>
      <point x="163" y="710" type="line"/>
      <point x="113" y="710" type="line"/>
      <point x="113" y="0" type="line"/>
      <point x="163" y="0" type="line"/>
      <point x="162" y="306" type="line"/>
      <point x="248" y="388" type="line"/>
      <point x="549" y="0" type="line"/>
      <point x="611" y="0" type="line"/>
      <point x="284" y="419" type="line"/>
      <point x="578" y="710" type="line"/>
      <point x="515" y="710" type="line"/>
      <point x="164" y="364" type="line"/>
      <point x="161" y="355" type="line"/>
    </contour>
  </outline>
</glyph>
<glyph name="L" format="2">
  <advance width="603"/>
  <unicode hex="004C"/>
  <anchor x="315" y="0" name="bottom"/>
  <anchor x="315" y="355" name="center"/>
  <anchor x="137" y="715" name="top"/>
  <anchor x="617" y="710" name="topright"/>
  <outline>
    <contour>
      <point x="113" y="710" type="line"/>
      <point x="113" y="0" type="line"/>
      <point x="551" y="0" type="line"/>
      <point x="551" y="47" type="line"/>
      <point x="162" y="47" type="line"/>
      <point x="162" y="710" type="line"/>
    </contour>
  </outline>
</glyph>
<glyph name="M" format="2">
  <advance width="906"/>
  <unicode hex="004D"/>
  <anchor x="453" y="0" name="bottom"/>
  <anchor x="453" y="710" name="top"/>
  <outline>
    <contour>
      <point x="113" y="0" type="line"/>
      <point x="161" y="0" type="line"/>
      <point x="161" y="611" type="line"/>
      <point x="153" y="589" type="line"/>
      <point x="451" y="172" type="line"/>
      <point x="453" y="172" type="line"/>
      <point x="749" y="589" type="line"/>
      <point x="745" y="613" type="line"/>
      <point x="745" y="0" type="line"/>
      <point x="793" y="0" type="line"/>
      <point x="793" y="726" type="line"/>
      <point x="792" y="726" type="line"/>
      <point x="443" y="232" type="line"/>
      <point x="464" y="229" type="line"/>
      <point x="114" y="726" type="line"/>
      <point x="113" y="726" type="line"/>
    </contour>
  </outline>
</glyph>
<glyph name="N" format="2">
  <advance width="822"/>
  <unicode hex="004E"/>
  <anchor x="412" y="0" name="bottom"/>
  <anchor x="406" y="710" name="top"/>
  <outline>
    <contour>
      <point x="707" y="-17" type="line"/>
      <point x="709" y="-17" type="line"/>
      <point x="709" y="710" type="line"/>
      <point x="662" y="710" type="line"/>
      <point x="663" y="85" type="line"/>
      <point x="676" y="89" type="line"/>
      <point x="116" y="725" type="line"/>
      <point x="113" y="725" type="line"/>
      <point x="113" y="0" type="line"/>
      <point x="161" y="0" type="line"/>
      <point x="160" y="624" type="line"/>
      <point x="147" y="614" type="line"/>
    </contour>
  </outline>
</glyph>
<glyph name="O" format="2">
  <advance width="862"/>
  <unicode hex="004F"/>
  <anchor x="431" y="0" name="bottom"/>
  <anchor x="431" y="355" name="center"/>
  <anchor x="544" y="10" name="ogonek"/>
  <anchor x="431" y="712" name="top"/>
  <anchor x="24" y="710" name="topleft"/>
  <anchor x="523" y="829" name="topright"/>
  <outline>
    <contour>
      <point x="68" y="354" type="curve"/>
      <point x="68" y="146"/>
      <point x="231" y="-8"/>
      <point x="430" y="-8" type="curve" smooth="yes"/>
      <point x="630" y="-8"/>
      <point x="794" y="154"/>
      <point x="794" y="354" type="curve" smooth="yes"/>
      <point x="794" y="553"/>
      <point x="630" y="718"/>
      <point x="430" y="718" type="curve" smooth="yes"/>
      <point x="231" y="718"/>
      <point x="68" y="553"/>
    </contour>
    <contour>
      <point x="118" y="353" type="curve"/>
      <point x="118" y="524"/>
      <point x="253" y="671"/>
      <point x="430" y="671" type="curve" smooth="yes"/>
      <point x="603" y="671"/>
      <point x="744" y="528"/>
      <point x="744" y="354" type="curve" smooth="yes"/>
      <point x="744" y="179"/>
      <point x="604" y="39"/>
      <point x="429" y="39" type="curve" smooth="yes"/>
      <point x="257" y="39"/>
      <point x="118" y="180"/>
    </contour>
  </outline>
</glyph>
<glyph name="P" format="2">
  <advance width="554"/>
  <unicode hex="0050"/>
  <anchor x="275" y="0" name="bottom"/>
  <anchor x="275" y="710" name="top"/>
  <outline>
    <contour>
      <point x="277" y="710" type="curve" smooth="yes"/>
      <point x="113" y="710" type="line"/>
      <point x="113" y="0" type="line"/>
      <point x="162" y="0" type="line"/>
      <point x="162" y="298" type="line"/>
      <point x="272" y="298" type="line" smooth="yes"/>
      <point x="432" y="298"/>
      <point x="497" y="403"/>
      <point x="497" y="509" type="curve" smooth="yes"/>
      <point x="497" y="643"/>
      <point x="408" y="710"/>
    </contour>
    <contour>
      <point x="272" y="345" type="curve" smooth="yes"/>
      <point x="162" y="345" type="line"/>
      <point x="162" y="663" type="line"/>
      <point x="282" y="663" type="line" smooth="yes"/>
      <point x="389" y="663"/>
      <point x="449" y="599"/>
      <point x="449" y="509" type="curve" smooth="yes"/>
      <point x="449" y="446"/>
      <point x="411" y="345"/>
    </contour>
  </outline>
</glyph>
<glyph name="Q" format="2">
  <advance width="882"/>
  <unicode hex="0051"/>
  <anchor x="438" y="0" name="bottom"/>
  <anchor x="438" y="710" name="top"/>
  <outline>
    <contour>
      <point x="546" y="47" type="line"/>
      <point x="477" y="0" type="line"/>
      <point x="814" y="0" type="line"/>
      <point x="814" y="47" type="line"/>
    </contour>
    <contour>
      <point x="68" y="354" type="curve"/>
      <point x="68" y="146"/>
      <point x="231" y="-8"/>
      <point x="430" y="-8" type="curve" smooth="yes"/>
      <point x="630" y="-8"/>
      <point x="794" y="154"/>
      <point x="794" y="354" type="curve" smooth="yes"/>
      <point x="794" y="553"/>
      <point x="630" y="718"/>
      <point x="430" y="718" type="curve" smooth="yes"/>
      <point x="231" y="718"/>
      <point x="68" y="553"/>
    </contour>
    <contour>
      <point x="118" y="353" type="curve"/>
      <point x="118" y="522"/>
      <point x="253" y="670"/>
      <point x="430" y="670" type="curve" smooth="yes"/>
      <point x="603" y="670"/>
      <point x="744" y="527"/>
      <point x="744" y="354" type="curve" smooth="yes"/>
      <point x="744" y="179"/>
      <point x="604" y="39"/>
      <point x="429" y="39" type="curve" smooth="yes"/>
      <point x="257" y="39"/>
      <point x="118" y="180"/>
    </contour>
  </outline>
</glyph>
<glyph name="R" format="2">
  <advance width="633"/>
  <unicode hex="0052"/>
  <anchor x="287" y="0" name="bottom"/>
  <anchor x="277" y="715" name="top"/>
  <outline>
    <contour>
      <point x="275" y="710" type="curve" smooth="yes"/>
      <point x="113" y="710" type="line"/>
      <point x="113" y="0" type="line"/>
      <point x="162" y="0" type="line"/>
      <point x="162" y="298" type="line"/>
      <point x="272" y="298" type="line" smooth="yes"/>
      <point x="439" y="298"/>
      <point x="499" y="403"/>
      <point x="499" y="509" type="curve" smooth="yes"/>
      <point x="499" y="650"/>
      <point x="381" y="710"/>
    </contour>
    <contour>
      <point x="269" y="345" type="curve" smooth="yes"/>
      <point x="162" y="345" type="line"/>
      <point x="162" y="663" type="line"/>
      <point x="282" y="663" type="line" smooth="yes"/>
      <point x="384" y="663"/>
      <point x="449" y="591"/>
      <point x="449" y="507" type="curve" smooth="yes"/>
      <point x="449" y="434"/>
      <point x="411" y="345"/>
    </contour>
    <contour>
      <point x="371" y="323" type="line"/>
      <point x="313" y="322" type="line"/>
      <point x="511" y="0" type="line"/>
      <point x="568" y="0" type="line"/>
    </contour>
  </outline>
</glyph>
<glyph name="S" format="2">
  <advance width="581"/>
  <unicode hex="0053"/>
  <anchor x="291" y="-3" name="bottom"/>
  <anchor x="291" y="724" name="top"/>
  <outline>
    <contour>
      <point x="468" y="630" type="curve"/>
      <point x="487" y="668" type="line"/>
      <point x="436" y="694"/>
      <point x="362" y="714"/>
      <point x="296" y="714" type="curve" smooth="yes"/>
      <point x="183" y="712"/>
      <point x="98" y="645"/>
      <point x="98" y="543" type="curve" smooth="yes"/>
      <point x="98" y="434"/>
      <point x="197" y="395"/>
      <point x="289" y="361" type="curve" smooth="yes"/>
      <point x="376" y="329"/>
      <point x="461" y="292"/>
      <point x="461" y="191" type="curve" smooth="yes"/>
      <point x="461" y="85"/>
      <point x="370" y="35"/>
      <point x="284" y="35" type="curve" smooth="yes"/>
      <point x="210" y="35"/>
      <point x="131" y="73"/>
      <point x="88" y="105" type="curve"/>
      <point x="65" y="65" type="line"/>
      <point x="103" y="40"/>
      <point x="183" y="-8"/>
      <point x="289" y="-8" type="curve" smooth="yes"/>
      <point x="420" y="-8"/>
      <point x="511" y="73"/>
      <point x="511" y="192" type="curve" smooth="yes"/>
      <point x="511" y="324"/>
      <point x="412" y="366"/>
      <point x="318" y="401" type="curve" smooth="yes"/>
      <point x="230" y="434"/>
      <point x="148" y="468"/>
      <point x="148" y="548" type="curve" smooth="yes"/>
      <point x="148" y="619"/>
      <point x="208" y="671"/>
      <point x="302" y="671" type="curve" smooth="yes"/>
      <point x="362" y="671"/>
      <point x="426" y="650"/>
    </contour>
  </outline>
</glyph>
<glyph name="T" format="2">
  <advance width="577"/>
  <unicode hex="0054"/>
  <anchor x="289" y="0" name="bottom"/>
  <anchor x="289" y="355" name="center"/>
  <anchor x="289" y="710" name="top"/>
  <outline>
    <contour>
      <point x="56" y="710" type="line"/>
      <point x="56" y="663" type="line"/>
      <point x="263" y="663" type="line"/>
      <point x="263" y="0" type="line"/>
      <point x="312" y="0" type="line"/>
      <point x="312" y="663" type="line"/>
      <point x="521" y="663" type="line"/>
      <point x="521" y="710" type="line"/>
    </contour>
  </outline>
</glyph>
<glyph name="U" format="2">
  <advance width="707"/>
  <unicode hex="0055"/>
  <anchor x="354" y="0" name="bottom"/>
  <anchor x="480" y="10" name="ogonek"/>
  <anchor x="354" y="715" name="top"/>
  <anchor x="603" y="810" name="topright"/>
  <outline>
    <contour>
      <point x="158" y="240" type="curve" smooth="yes"/>
      <point x="158" y="710" type="line"/>
      <point x="109" y="710" type="line"/>
      <point x="109" y="237" type="line" smooth="yes"/>
      <point x="109" y="82"/>
      <point x="215" y="-8"/>
      <point x="353" y="-8" type="curve" smooth="yes"/>
      <point x="353" y="-8" type="line" smooth="yes"/>
      <point x="491" y="-8"/>
      <point x="598" y="82"/>
      <point x="598" y="237" type="curve" smooth="yes"/>
      <point x="598" y="710" type="line"/>
      <point x="550" y="710" type="line"/>
      <point x="550" y="240" type="line" smooth="yes"/>
      <point x="550" y="116"/>
      <point x="466" y="39"/>
      <point x="353" y="39" type="curve" smooth="yes"/>
      <point x="241" y="39"/>
      <point x="158" y="116"/>
    </contour>
  </outline>
</glyph>
<glyph name="V" format="2">
  <advance width="702"/>
  <unicode hex="0056"/>
  <anchor x="351" y="0" name="bottom"/>
  <anchor x="351" y="710" name="top"/>
  <outline>
    <contour>
      <point x="106" y="710" type="line"/>
      <point x="49" y="710" type="line"/>
      <point x="351" y="-33" type="line"/>
      <point x="653" y="710" type="line"/>
      <point x="597" y="710" type="line"/>
      <point x="341" y="49" type="line"/>
      <point x="368" y="45" type="line"/>
    </contour>
  </outline>
</glyph>
<glyph name="W" format="2">
  <advance width="993"/>
  <unicode hex="0057"/>
  <anchor x="497" y="0" name="bottom"/>
  <anchor x="497" y="712" name="top"/>
  <outline>
    <contour>
      <point x="49" y="708" type="line"/>
      <point x="329" y="-33" type="line"/>
      <point x="500" y="406" type="line"/>
      <point x="477" y="469" type="line"/>
      <point x="329" y="69" type="line"/>
      <point x="340" y="66" type="line"/>
      <point x="105" y="708" type="line"/>
    </contour>
    <contour>
      <point x="376" y="708" type="line"/>
      <point x="659" y="-32" type="line"/>
      <point x="944" y="708" type="line"/>
      <point x="892" y="708" type="line"/>
      <point x="654" y="70" type="line"/>
      <point x="669" y="66" type="line"/>
      <point x="425" y="708" type="line"/>
    </contour>
  </outline>
</glyph>
<glyph name="X" format="2">
  <advance width="620"/>
  <unicode hex="0058"/>
  <anchor x="309" y="0" name="bottom"/>
  <anchor x="309" y="710" name="top"/>
  <outline>
    <contour>
      <point x="53" y="710" type="line"/>
      <point x="514" y="0" type="line"/>
      <point x="576" y="0" type="line"/>
      <point x="114" y="710" type="line"/>
    </contour>
    <contour>
      <point x="43" y="0" type="line"/>
      <point x="103" y="0" type="line"/>
      <point x="309" y="332" type="line"/>
      <point x="283" y="375" type="line"/>
    </contour>
    <contour>
      <point x="306" y="391" type="line"/>
      <point x="334" y="352" type="line"/>
      <point x="563" y="710" type="line"/>
      <point x="505" y="710" type="line"/>
    </contour>
  </outline>
</glyph>
<glyph name="Y" format="2">
  <advance width="661"/>
  <unicode hex="0059"/>
  <anchor x="331" y="0" name="bottom"/>
  <anchor x="336" y="710" name="top"/>
  <anchor x="25" y="710" name="topleft"/>
  <outline>
    <contour>
      <point x="306" y="253" type="line"/>
      <point x="306" y="0" type="line"/>
      <point x="355" y="0" type="line"/>
      <point x="355" y="253" type="line"/>
      <point x="620" y="710" type="line"/>
      <point x="561" y="710" type="line"/>
      <point x="323" y="293" type="line"/>
      <point x="340" y="294" type="line"/>
      <point x="101" y="710" type="line"/>
      <point x="41" y="710" type="line"/>
    </contour>
  </outline>
</glyph>
<glyph name="Z" format="2">
  <advance width="703"/>
  <unicode hex="005A"/>
  <anchor x="351" y="0" name="bottom"/>
  <anchor x="351" y="710" name="top"/>
  <outline>
    <contour>
      <point x="56" y="0" type="curve"/>
      <point x="645" y="0" type="line"/>
      <point x="645" y="47" type="line"/>
      <point x="131" y="47" type="line"/>
      <point x="135" y="39" type="line"/>
      <point x="621" y="710" type="line"/>
      <point x="164" y="710" type="line"/>
      <point x="141" y="710"/>
      <point x="133" y="716"/>
      <point x="133" y="733" type="curve" smooth="yes"/>
      <point x="133" y="745" type="line"/>
      <point x="86" y="745" type="line"/>
      <point x="86" y="714" type="line" smooth="yes"/>
      <point x="86" y="676"/>
      <point x="115" y="663"/>
      <point x="152" y="663" type="curve" smooth="yes"/>
      <point x="553" y="663" type="line"/>
      <point x="544" y="676" type="line"/>
      <point x="423" y="516"/>
      <point x="177" y="170"/>
    </contour>
  </outline>
</glyph>
<glyph name="bracketleft" format="2">
  <advance width="351"/>
  <unicode hex="005B"/>
  <outline>
    <contour>
      <point x="113" y="750" type="line"/>
      <point x="113" y="-150" type="line"/>
      <point x="295" y="-150" type="line"/>
      <point x="295" y="-105" type="line"/>
      <point x="164" y="-105" type="line"/>
      <point x="164" y="705" type="line"/>
      <point x="295" y="705" type="line"/>
      <point x="295" y="750" type="line"/>
    </contour>
  </outline>
</glyph>
<glyph name="backslash" format="2">
  <advance width="349"/>
  <unicode hex="005C"/>
  <outline>
    <contour>
      <point x="58" y="740" type="curve"/>
      <point x="10" y="740" type="line"/>
      <point x="103" y="487"/>
      <point x="196" y="234"/>
      <point x="289" y="-19" type="curve"/>
      <point x="337" y="-19" type="line"/>
      <point x="244" y="234"/>
      <point x="151" y="487"/>
    </contour>
  </outline>
</glyph>
<glyph name="bracketright" format="2">
  <advance width="351"/>
  <unicode hex="005D"/>
  <outline>
    <contour>
      <point x="238" y="-150" type="line"/>
      <point x="238" y="750" type="line"/>
      <point x="56" y="750" type="line"/>
      <point x="56" y="706" type="line"/>
      <point x="188" y="706" type="line"/>
      <point x="188" y="-105" type="line"/>
      <point x="56" y="-105" type="line"/>
      <point x="56" y="-150" type="line"/>
    </contour>
  </outline>
</glyph>
<glyph name="asciicircum" format="2">
  <advance width="472"/>
  <unicode hex="005E"/>
  <outline>
    <contour>
      <point x="320" y="482" type="curve"/>
      <point x="354" y="482" type="line"/>
      <point x="314" y="542"/>
      <point x="273" y="603"/>
      <point x="233" y="663" type="curve"/>
      <point x="233" y="663" type="line"/>
      <point x="193" y="603"/>
      <point x="153" y="542"/>
      <point x="113" y="482" type="curve"/>
      <point x="147" y="482" type="line"/>
      <point x="173" y="519"/>
      <point x="207" y="569"/>
      <point x="233" y="607" type="curve"/>
      <point x="259" y="569"/>
      <point x="294" y="519"/>
    </contour>
  </outline>
</glyph>
<glyph name="underscore" format="2">
  <advance width="603"/>
  <unicode hex="005F"/>
  <outline>
    <contour>
      <point x="101" y="42" type="line"/>
      <point x="101" y="0" type="line"/>
      <point x="503" y="0" type="line"/>
      <point x="503" y="42" type="line"/>
    </contour>
  </outline>
</glyph>
<glyph name="grave" format="2">
  <advance width="231"/>
  <unicode hex="0060"/>
  <outline>
    <contour>
      <point x="-2" y="615" type="line"/>
      <point x="99" y="482" type="line"/>
      <point x="133" y="482" type="line"/>
      <point x="50" y="615" type="line"/>
    </contour>
  </outline>
</glyph>
<glyph name="a" format="2">
  <advance width="559"/>
  <unicode hex="0061"/>
  <anchor x="280" y="0" name="bottom"/>
  <anchor x="520" y="10" name="ogonek"/>
  <anchor x="285" y="397" name="top"/>
  <outline>
    <contour>
      <point x="251" y="-8" type="curve" smooth="yes"/>
      <point x="339" y="-8"/>
      <point x="413" y="50"/>
      <point x="433" y="103" type="curve"/>
      <point x="423" y="121" type="line"/>
      <point x="423" y="0" type="line"/>
      <point x="470" y="0" type="line"/>
      <point x="470" y="391" type="line"/>
      <point x="428" y="391" type="line"/>
      <point x="422" y="280" type="line"/>
      <point x="429" y="294" type="line"/>
      <point x="402" y="357"/>
      <point x="333" y="403"/>
      <point x="264" y="403" type="curve" smooth="yes"/>
      <point x="142" y="403"/>
      <point x="51" y="326"/>
      <point x="51" y="196" type="curve" smooth="yes"/>
      <point x="51" y="74"/>
      <point x="139" y="-8"/>
    </contour>
    <contour>
      <point x="261" y="32" type="curve" smooth="yes"/>
      <point x="172" y="32"/>
      <point x="98" y="106"/>
      <point x="98" y="198" type="curve" smooth="yes"/>
      <point x="98" y="298"/>
      <point x="171" y="363"/>
      <point x="260" y="363" type="curve" smooth="yes"/>
      <point x="340" y="363"/>
      <point x="407" y="307"/>
      <point x="423" y="234" type="curve"/>
      <point x="423" y="178" type="line"/>
      <point x="417" y="92"/>
      <point x="348" y="32"/>
    </contour>
  </outline>
</glyph>
<glyph name="b" format="2">
  <advance width="562"/>
  <unicode hex="0062"/>
  <anchor x="281" y="0" name="bottom"/>
  <anchor x="281" y="391" name="top"/>
  <outline>
    <contour>
      <point x="308" y="-8" type="curve" smooth="yes"/>
      <point x="418" y="-8"/>
      <point x="511" y="66"/>
      <point x="511" y="199" type="curve"/>
      <point x="511" y="317"/>
      <point x="423" y="403"/>
      <point x="313" y="403" type="curve" smooth="yes"/>
      <point x="233" y="403"/>
      <point x="161" y="363"/>
      <point x="130" y="302" type="curve"/>
      <point x="136" y="276" type="line"/>
      <point x="136" y="760" type="line"/>
      <point x="89" y="760" type="line"/>
      <point x="89" y="0" type="line"/>
      <point x="136" y="0" type="line"/>
      <point x="136" y="128" type="line"/>
      <point x="126" y="101" type="line"/>
      <point x="156" y="38"/>
      <point x="228" y="-8"/>
    </contour>
    <contour>
      <point x="300" y="33" type="curve" smooth="yes"/>
      <point x="212" y="33"/>
      <point x="143" y="99"/>
      <point x="136" y="173" type="curve"/>
      <point x="136" y="234" type="line"/>
      <point x="151" y="309"/>
      <point x="217" y="364"/>
      <point x="300" y="364" type="curve" smooth="yes"/>
      <point x="397" y="364"/>
      <point x="463" y="289"/>
      <point x="463" y="199" type="curve"/>
      <point x="463" y="102"/>
      <point x="400" y="33"/>
    </contour>
  </outline>
</glyph>
<glyph name="c" format="2">
  <advance width="433"/>
  <unicode hex="0063"/>
  <anchor x="217" y="0" name="bottom"/>
  <anchor x="251" y="394" name="top"/>
  <outline>
    <contour>
      <point x="391" y="38" type="curve"/>
      <point x="365" y="67" type="line"/>
      <point x="337" y="46"/>
      <point x="302" y="32"/>
      <point x="262" y="32" type="curve" smooth="yes"/>
      <point x="169" y="32"/>
      <point x="98" y="105"/>
      <point x="98" y="196" type="curve" smooth="yes"/>
      <point x="98" y="288"/>
      <point x="169" y="361"/>
      <point x="258" y="361" type="curve" smooth="yes"/>
      <point x="301" y="361"/>
      <point x="339" y="344"/>
      <point x="367" y="322" type="curve"/>
      <point x="392" y="354" type="line"/>
      <point x="357" y="383"/>
      <point x="310" y="400"/>
      <point x="255" y="400" type="curve" smooth="yes"/>
      <point x="144" y="400"/>
      <point x="51" y="314"/>
      <point x="51" y="196" type="curve" smooth="yes"/>
      <point x="51" y="78"/>
      <point x="139" y="-8"/>
      <point x="259" y="-8" type="curve" smooth="yes"/>
      <point x="308" y="-8"/>
      <point x="355" y="9"/>
    </contour>
  </outline>
</glyph>
<glyph name="d" format="2">
  <advance width="562"/>
  <unicode hex="0064"/>
  <anchor x="281" y="0" name="bottom"/>
  <anchor x="447" y="630" name="center"/>
  <anchor x="281" y="391" name="top"/>
  <anchor x="539" y="391" name="topright"/>
  <outline>
    <contour>
      <point x="249" y="-8" type="curve" smooth="yes"/>
      <point x="330" y="-8"/>
      <point x="402" y="35"/>
      <point x="435" y="98" type="curve"/>
      <point x="425" y="120" type="line"/>
      <point x="425" y="0" type="line"/>
      <point x="473" y="0" type="line"/>
      <point x="473" y="760" type="line"/>
      <point x="426" y="760" type="line"/>
      <point x="426" y="276" type="line"/>
      <point x="434" y="298" type="line"/>
      <point x="403" y="360"/>
      <point x="329" y="403"/>
      <point x="254" y="403" type="curve" smooth="yes"/>
      <point x="141" y="403"/>
      <point x="51" y="324"/>
      <point x="51" y="198" type="curve" smooth="yes"/>
      <point x="51" y="79"/>
      <point x="138" y="-8"/>
    </contour>
    <contour>
      <point x="261" y="33" type="curve" smooth="yes"/>
      <point x="172" y="33"/>
      <point x="98" y="107"/>
      <point x="98" y="199" type="curve" smooth="yes"/>
      <point x="98" y="297"/>
      <point x="171" y="364"/>
      <point x="261" y="364" type="curve" smooth="yes"/>
      <point x="342" y="364"/>
      <point x="410" y="306"/>
      <point x="425" y="231" type="curve"/>
      <point x="425" y="181" type="line"/>
      <point x="419" y="96"/>
      <point x="350" y="33"/>
    </contour>
  </outline>
</glyph>
<glyph name="e" format="2">
  <advance width="487"/>
  <unicode hex="0065"/>
  <anchor x="244" y="0" name="bottom"/>
  <anchor x="429" y="10" name="ogonek"/>
  <anchor x="247" y="397" name="top"/>
  <outline>
    <contour>
      <point x="259" y="-8" type="curve" smooth="yes"/>
      <point x="310" y="-8"/>
      <point x="360" y="12"/>
      <point x="398" y="42" type="curve"/>
      <point x="374" y="76" type="line"/>
      <point x="343" y="50"/>
      <point x="303" y="33"/>
      <point x="260" y="33" type="curve" smooth="yes"/>
      <point x="163" y="33"/>
      <point x="97" y="110"/>
      <point x="97" y="199" type="curve" smooth="yes"/>
      <point x="97" y="292"/>
      <point x="167" y="364"/>
      <point x="257" y="364" type="curve" smooth="yes"/>
      <point x="324" y="364"/>
      <point x="370" y="319"/>
      <point x="393" y="266" type="curve"/>
      <point x="403" y="280" type="line"/>
      <point x="90" y="158" type="line"/>
      <point x="104" y="124" type="line"/>
      <point x="446" y="256" type="line"/>
      <point x="418" y="344"/>
      <point x="353" y="404"/>
      <point x="260" y="404" type="curve" smooth="yes"/>
      <point x="143" y="404"/>
      <point x="51" y="311"/>
      <point x="51" y="197" type="curve" smooth="yes"/>
      <point x="51" y="81"/>
      <point x="137" y="-8"/>
    </contour>
  </outline>
</glyph>
<glyph name="f" format="2">
  <advance width="324"/>
  <unicode hex="0066"/>
  <anchor x="162" y="0" name="bottom"/>
  <anchor x="162" y="391" name="top"/>
  <outline>
    <contour>
      <point x="115" y="0" type="line"/>
      <point x="162" y="0" type="line"/>
      <point x="162" y="347" type="line"/>
      <point x="293" y="347" type="line"/>
      <point x="293" y="390" type="line"/>
      <point x="162" y="390" type="line"/>
      <point x="162" y="588" type="line" smooth="yes"/>
      <point x="162" y="690"/>
      <point x="191" y="725"/>
      <point x="248" y="725" type="curve" smooth="yes"/>
      <point x="262" y="725"/>
      <point x="274" y="722"/>
      <point x="283" y="715" type="curve"/>
      <point x="303" y="749" type="line"/>
      <point x="285" y="759"/>
      <point x="262" y="764"/>
      <point x="244" y="764" type="curve" smooth="yes"/>
      <point x="159" y="764"/>
      <point x="115" y="712"/>
      <point x="115" y="587" type="curve" smooth="yes"/>
      <point x="115" y="390" type="line"/>
      <point x="47" y="390" type="line"/>
      <point x="47" y="347" type="line"/>
      <point x="115" y="347" type="line"/>
    </contour>
  </outline>
</glyph>
<glyph name="g" format="2">
  <advance width="564"/>
  <unicode hex="0067"/>
  <anchor x="282" y="0" name="bottom"/>
  <anchor x="282" y="397" name="top"/>
  <outline>
    <contour>
      <point x="263" y="-191" type="curve" smooth="yes"/>
      <point x="414" y="-191"/>
      <point x="475" y="-103"/>
      <point x="475" y="-6" type="curve" smooth="yes"/>
      <point x="475" y="391" type="line"/>
      <point x="433" y="391" type="line"/>
      <point x="428" y="279" type="line"/>
      <point x="434" y="301" type="line"/>
      <point x="405" y="362"/>
      <point x="333" y="403"/>
      <point x="261" y="403" type="curve" smooth="yes"/>
      <point x="144" y="403"/>
      <point x="51" y="318"/>
      <point x="51" y="197" type="curve" smooth="yes"/>
      <point x="51" y="82"/>
      <point x="140" y="-8"/>
      <point x="251" y="-8" type="curve" smooth="yes"/>
      <point x="337" y="-8"/>
      <point x="412" y="40"/>
      <point x="439" y="110" type="curve"/>
      <point x="428" y="122" type="line"/>
      <point x="427" y="-5" type="line"/>
      <point x="425" y="-85"/>
      <point x="383" y="-149"/>
      <point x="261" y="-149" type="curve" smooth="yes"/>
      <point x="214" y="-149"/>
      <point x="166" y="-134"/>
      <point x="109" y="-79" type="curve"/>
      <point x="81" y="-111" type="line"/>
      <point x="143" y="-170"/>
      <point x="197" y="-191"/>
    </contour>
    <contour>
      <point x="98" y="198" type="curve" smooth="yes"/>
      <point x="98" y="296"/>
      <point x="170" y="363"/>
      <point x="263" y="363" type="curve" smooth="yes"/>
      <point x="344" y="363"/>
      <point x="412" y="308"/>
      <point x="428" y="233" type="curve"/>
      <point x="428" y="175" type="line"/>
      <point x="421" y="98"/>
      <point x="351" y="32"/>
      <point x="263" y="32" type="curve" smooth="yes"/>
      <point x="171" y="32"/>
      <point x="98" y="106"/>
    </contour>
  </outline>
</glyph>
<glyph name="h" format="2">
  <advance width="512"/>
  <unicode hex="0068"/>
  <anchor x="256" y="0" name="bottom"/>
  <anchor x="116" y="578" name="center"/>
  <anchor x="107" y="749" name="top"/>
  <outline>
    <contour>
      <point x="89" y="0" type="line"/>
      <point x="136" y="0" type="line"/>
      <point x="136" y="210" type="line" smooth="yes"/>
      <point x="136" y="296"/>
      <point x="205" y="361"/>
      <point x="284" y="361" type="curve"/>
      <point x="343" y="359"/>
      <point x="373" y="322"/>
      <point x="375" y="272" type="curve"/>
      <point x="375" y="0" type="line"/>
      <point x="423" y="0" type="line"/>
      <point x="423" y="285" type="line"/>
      <point x="421" y="354"/>
      <point x="372" y="402"/>
      <point x="299" y="402" type="curve" smooth="yes"/>
      <point x="222" y="402"/>
      <point x="158" y="359"/>
      <point x="132" y="304" type="curve"/>
      <point x="135" y="287" type="line"/>
      <point x="135" y="760" type="line"/>
      <point x="89" y="760" type="line"/>
    </contour>
  </outline>
</glyph>
<glyph name="k" format="2">
  <advance width="451"/>
  <unicode hex="006B"/>
  <anchor x="226" y="0" name="bottom"/>
  <anchor x="226" y="391" name="top"/>
  <outline>
    <contour>
      <point x="89" y="0" type="line"/>
      <point x="136" y="0" type="line"/>
      <point x="136" y="760" type="line"/>
      <point x="89" y="760" type="line"/>
    </contour>
    <contour>
      <point x="226" y="254" type="line"/>
      <point x="193" y="228" type="line"/>
      <point x="353" y="0" type="line"/>
      <point x="408" y="0" type="line"/>
    </contour>
    <contour>
      <point x="120" y="142" type="line"/>
      <point x="384" y="374" type="line"/>
      <point x="355" y="399" type="line"/>
      <point x="116" y="189" type="line"/>
    </contour>
  </outline>
</glyph>
<glyph name="l" format="2">
  <advance width="225"/>
  <unicode hex="006C"/>
  <anchor x="113" y="0" name="bottom"/>
  <anchor x="113" y="196" name="center"/>
  <anchor x="118" y="765" name="top"/>
  <anchor x="202" y="391" name="topright"/>
  <outline>
    <contour>
      <point x="89" y="760" type="line"/>
      <point x="89" y="0" type="line"/>
      <point x="136" y="0" type="line"/>
      <point x="136" y="760" type="line"/>
    </contour>
  </outline>
</glyph>
<glyph name="m" format="2">
  <advance width="787"/>
  <unicode hex="006D"/>
  <anchor x="394" y="0" name="bottom"/>
  <anchor x="394" y="391" name="top"/>
  <outline>
    <contour>
      <point x="130" y="391" type="line"/>
      <point x="89" y="391" type="line"/>
      <point x="89" y="0" type="line"/>
      <point x="136" y="0" type="line"/>
      <point x="136" y="210" type="line" smooth="yes"/>
      <point x="136" y="294"/>
      <point x="203" y="361"/>
      <point x="283" y="361" type="curve"/>
      <point x="340" y="358"/>
      <point x="368" y="321"/>
      <point x="370" y="275" type="curve"/>
      <point x="370" y="0" type="line"/>
      <point x="417" y="0" type="line"/>
      <point x="417" y="214" type="line"/>
      <point x="421" y="295"/>
      <point x="486" y="361"/>
      <point x="565" y="361" type="curve"/>
      <point x="622" y="358"/>
      <point x="649" y="321"/>
      <point x="651" y="275" type="curve"/>
      <point x="651" y="0" type="line"/>
      <point x="698" y="0" type="line"/>
      <point x="698" y="285" type="line"/>
      <point x="696" y="354"/>
      <point x="650" y="402"/>
      <point x="575" y="402" type="curve" smooth="yes"/>
      <point x="506" y="402"/>
      <point x="440" y="366"/>
      <point x="412" y="300" type="curve"/>
      <point x="418" y="306" type="line"/>
      <point x="412" y="362"/>
      <point x="361" y="402"/>
      <point x="296" y="402" type="curve" smooth="yes"/>
      <point x="222" y="402"/>
      <point x="155" y="360"/>
      <point x="128" y="292" type="curve"/>
      <point x="135" y="282" type="line"/>
    </contour>
  </outline>
</glyph>
<glyph name="n" format="2">
  <advance width="512"/>
  <unicode hex="006E"/>
  <anchor x="256" y="0" name="bottom"/>
  <anchor x="256" y="394" name="top"/>
  <outline>
    <contour>
      <point x="130" y="391" type="line"/>
      <point x="89" y="391" type="line"/>
      <point x="89" y="0" type="line"/>
      <point x="136" y="0" type="line"/>
      <point x="136" y="210" type="line" smooth="yes"/>
      <point x="136" y="300"/>
      <point x="205" y="361"/>
      <point x="284" y="361" type="curve"/>
      <point x="343" y="359"/>
      <point x="373" y="322"/>
      <point x="375" y="272" type="curve"/>
      <point x="375" y="0" type="line"/>
      <point x="423" y="0" type="line"/>
      <point x="423" y="285" type="line"/>
      <point x="421" y="354"/>
      <point x="372" y="402"/>
      <point x="299" y="402" type="curve" smooth="yes"/>
      <point x="222" y="402"/>
      <point x="152" y="360"/>
      <point x="129" y="292" type="curve"/>
      <point x="135" y="268" type="line"/>
    </contour>
  </outline>
</glyph>
<glyph name="o" format="2">
  <advance width="519"/>
  <unicode hex="006F"/>
  <anchor x="260" y="0" name="bottom"/>
  <anchor x="260" y="196" name="center"/>
  <anchor x="441" y="10" name="ogonek"/>
  <anchor x="260" y="397" name="top"/>
  <anchor x="373" y="391" name="topright"/>
  <outline>
    <contour>
      <point x="51" y="198" type="curve"/>
      <point x="51" y="77"/>
      <point x="141" y="-8"/>
      <point x="259" y="-8" type="curve" smooth="yes"/>
      <point x="379" y="-8"/>
      <point x="468" y="83"/>
      <point x="468" y="198" type="curve" smooth="yes"/>
      <point x="468" y="312"/>
      <point x="379" y="404"/>
      <point x="260" y="404" type="curve" smooth="yes"/>
      <point x="141" y="404"/>
      <point x="51" y="312"/>
    </contour>
    <contour>
      <point x="98" y="197" type="curve"/>
      <point x="98" y="283"/>
      <point x="166" y="363"/>
      <point x="259" y="363" type="curve" smooth="yes"/>
      <point x="349" y="363"/>
      <point x="420" y="289"/>
      <point x="420" y="197" type="curve" smooth="yes"/>
      <point x="420" y="105"/>
      <point x="349" y="32"/>
      <point x="259" y="32" type="curve" smooth="yes"/>
      <point x="169" y="32"/>
      <point x="98" y="105"/>
    </contour>
  </outline>
</glyph>
<glyph name="p" format="2">
  <advance width="562"/>
  <unicode hex="0070"/>
  <anchor x="281" y="0" name="bottom"/>
  <anchor x="281" y="391" name="top"/>
  <outline>
    <contour>
      <point x="305" y="-8" type="curve" smooth="yes"/>
      <point x="421" y="-8"/>
      <point x="511" y="77"/>
      <point x="511" y="196" type="curve" smooth="yes"/>
      <point x="511" y="315"/>
      <point x="424" y="403"/>
      <point x="312" y="403" type="curve" smooth="yes"/>
      <point x="233" y="403"/>
      <point x="161" y="358"/>
      <point x="127" y="295" type="curve"/>
      <point x="136" y="266" type="line"/>
      <point x="131" y="394" type="line"/>
      <point x="89" y="394" type="line"/>
      <point x="89" y="-188" type="line"/>
      <point x="136" y="-188" type="line"/>
      <point x="136" y="115" type="line"/>
      <point x="128" y="98" type="line"/>
      <point x="158" y="35"/>
      <point x="230" y="-8"/>
    </contour>
    <contour>
      <point x="297" y="31" type="curve" smooth="yes"/>
      <point x="212" y="31"/>
      <point x="142" y="96"/>
      <point x="136" y="179" type="curve"/>
      <point x="136" y="211" type="line"/>
      <point x="143" y="296"/>
      <point x="212" y="362"/>
      <point x="300" y="362" type="curve" smooth="yes"/>
      <point x="391" y="362"/>
      <point x="463" y="290"/>
      <point x="463" y="196" type="curve" smooth="yes"/>
      <point x="463" y="104"/>
      <point x="389" y="31"/>
    </contour>
  </outline>
</glyph>
<glyph name="q" format="2">
  <advance width="562"/>
  <unicode hex="0071"/>
  <anchor x="281" y="0" name="bottom"/>
  <anchor x="281" y="391" name="top"/>
  <outline>
    <contour>
      <point x="248" y="-8" type="curve" smooth="yes"/>
      <point x="329" y="-8"/>
      <point x="402" y="33"/>
      <point x="432" y="94" type="curve"/>
      <point x="426" y="127" type="line"/>
      <point x="426" y="-188" type="line"/>
      <point x="473" y="-188" type="line"/>
      <point x="473" y="394" type="line"/>
      <point x="425" y="394" type="line"/>
      <point x="425" y="266" type="line"/>
      <point x="436" y="294" type="line"/>
      <point x="405" y="358"/>
      <point x="333" y="403"/>
      <point x="260" y="403" type="curve" smooth="yes"/>
      <point x="142" y="403"/>
      <point x="51" y="316"/>
      <point x="51" y="196" type="curve" smooth="yes"/>
      <point x="51" y="78"/>
      <point x="139" y="-8"/>
    </contour>
    <contour>
      <point x="261" y="31" type="curve" smooth="yes"/>
      <point x="172" y="31"/>
      <point x="98" y="104"/>
      <point x="98" y="196" type="curve" smooth="yes"/>
      <point x="98" y="289"/>
      <point x="172" y="362"/>
      <point x="261" y="362" type="curve" smooth="yes"/>
      <point x="350" y="362"/>
      <point x="419" y="296"/>
      <point x="425" y="211" type="curve"/>
      <point x="425" y="177" type="line"/>
      <point x="418" y="95"/>
      <point x="348" y="31"/>
    </contour>
  </outline>
</glyph>
<glyph name="r" format="2">
  <advance width="342"/>
  <unicode hex="0072"/>
  <anchor x="151" y="0" name="bottom"/>
  <anchor x="168" y="391" name="top"/>
  <outline>
    <contour>
      <point x="130" y="391" type="line"/>
      <point x="89" y="391" type="line"/>
      <point x="89" y="0" type="line"/>
      <point x="136" y="0" type="line"/>
      <point x="136" y="207" type="line" smooth="yes"/>
      <point x="136" y="291"/>
      <point x="208" y="356"/>
      <point x="297" y="356" type="curve"/>
      <point x="299" y="402" type="line"/>
      <point x="235" y="401"/>
      <point x="155" y="358"/>
      <point x="129" y="286" type="curve"/>
      <point x="135" y="271" type="line"/>
    </contour>
  </outline>
</glyph>
<glyph name="s" format="2">
  <advance width="368"/>
  <unicode hex="0073"/>
  <anchor x="183" y="-3" name="bottom"/>
  <anchor x="185" y="394" name="top"/>
  <outline>
    <contour>
      <point x="181" y="-8" type="curve" smooth="yes"/>
      <point x="270" y="-8"/>
      <point x="315" y="43"/>
      <point x="315" y="112" type="curve" smooth="yes"/>
      <point x="315" y="180"/>
      <point x="259" y="202"/>
      <point x="202" y="221" type="curve" smooth="yes"/>
      <point x="157" y="237"/>
      <point x="113" y="252"/>
      <point x="113" y="299" type="curve" smooth="yes"/>
      <point x="113" y="342"/>
      <point x="157" y="362"/>
      <point x="192" y="362" type="curve" smooth="yes"/>
      <point x="219" y="361"/>
      <point x="259" y="352"/>
      <point x="281" y="323" type="curve"/>
      <point x="302" y="356" type="line"/>
      <point x="269" y="388"/>
      <point x="226" y="400"/>
      <point x="185" y="400" type="curve" smooth="yes"/>
      <point x="116" y="400"/>
      <point x="66" y="357"/>
      <point x="66" y="293" type="curve" smooth="yes"/>
      <point x="66" y="234"/>
      <point x="107" y="206"/>
      <point x="164" y="187" type="curve" smooth="yes"/>
      <point x="215" y="170"/>
      <point x="268" y="157"/>
      <point x="268" y="102" type="curve" smooth="yes"/>
      <point x="268" y="48"/>
      <point x="223" y="30"/>
      <point x="178" y="30" type="curve" smooth="yes"/>
      <point x="137" y="30"/>
      <point x="98" y="48"/>
      <point x="72" y="76" type="curve"/>
      <point x="50" y="45" type="line"/>
      <point x="81" y="7"/>
      <point x="135" y="-8"/>
    </contour>
  </outline>
</glyph>
<glyph name="t" format="2">
  <advance width="325"/>
  <unicode hex="0074"/>
  <anchor x="149" y="0" name="bottom"/>
  <anchor x="162" y="201" name="center"/>
  <anchor x="162" y="391" name="top"/>
  <anchor x="301" y="391" name="topright"/>
  <outline>
    <contour>
      <point x="128" y="563" type="line"/>
      <point x="128" y="386" type="line"/>
      <point x="45" y="386" type="line"/>
      <point x="45" y="348" type="line"/>
      <point x="128" y="348" type="line"/>
      <point x="128" y="0" type="line"/>
      <point x="176" y="0" type="line"/>
      <point x="176" y="348" type="line"/>
      <point x="297" y="348" type="line"/>
      <point x="297" y="386" type="line"/>
      <point x="176" y="386" type="line"/>
      <point x="176" y="563" type="line"/>
    </contour>
  </outline>
</glyph>
<glyph name="u" format="2">
  <advance width="509"/>
  <unicode hex="0075"/>
  <anchor x="255" y="0" name="bottom"/>
  <anchor x="477" y="10" name="ogonek"/>
  <anchor x="255" y="397" name="top"/>
  <anchor x="439" y="391" name="topright"/>
  <outline>
    <contour>
      <point x="212" y="-11" type="curve" smooth="yes"/>
      <point x="287" y="-11"/>
      <point x="360" y="35"/>
      <point x="380" y="96" type="curve"/>
      <point x="373" y="123" type="line"/>
      <point x="378" y="0" type="line"/>
      <point x="420" y="0" type="line"/>
      <point x="420" y="391" type="line"/>
      <point x="373" y="391" type="line"/>
      <point x="373" y="183" type="line" smooth="yes"/>
      <point x="373" y="95"/>
      <point x="304" y="30"/>
      <point x="228" y="30" type="curve"/>
      <point x="168" y="33"/>
      <point x="138" y="69"/>
      <point x="136" y="120" type="curve"/>
      <point x="136" y="391" type="line"/>
      <point x="89" y="391" type="line"/>
      <point x="89" y="106" type="line"/>
      <point x="91" y="37"/>
      <point x="139" y="-11"/>
    </contour>
  </outline>
</glyph>
<glyph name="v" format="2">
  <advance width="454"/>
  <unicode hex="0076"/>
  <anchor x="227" y="0" name="bottom"/>
  <anchor x="227" y="391" name="top"/>
  <outline>
    <contour>
      <point x="226" y="-15" type="line"/>
      <point x="232" y="-15" type="line"/>
      <point x="426" y="391" type="line"/>
      <point x="374" y="391" type="line"/>
      <point x="217" y="37" type="line"/>
      <point x="246" y="36" type="line"/>
      <point x="83" y="391" type="line"/>
      <point x="28" y="391" type="line"/>
    </contour>
  </outline>
</glyph>
<glyph name="w" format="2">
  <advance width="665"/>
  <unicode hex="0077"/>
  <anchor x="332" y="0" name="bottom"/>
  <anchor x="332" y="391" name="top"/>
  <outline>
    <contour>
      <point x="309" y="391" type="line"/>
      <point x="266" y="391" type="line"/>
      <point x="309" y="298" type="line"/>
      <point x="209" y="56" type="line"/>
      <point x="226" y="51" type="line"/>
      <point x="75" y="391" type="line"/>
      <point x="28" y="391" type="line"/>
      <point x="212" y="-24" type="line"/>
      <point x="327" y="254" type="line"/>
      <point x="453" y="-24" type="line"/>
      <point x="637" y="391" type="line"/>
      <point x="589" y="391" type="line"/>
      <point x="446" y="57" type="line"/>
      <point x="457" y="58" type="line"/>
    </contour>
  </outline>
</glyph>
<glyph name="x" format="2">
  <advance width="405"/>
  <unicode hex="0078"/>
  <anchor x="201" y="0" name="bottom"/>
  <anchor x="201" y="391" name="top"/>
  <outline>
    <contour>
      <point x="204" y="222" type="line"/>
      <point x="224" y="187" type="line"/>
      <point x="369" y="391" type="line"/>
      <point x="320" y="391" type="line"/>
    </contour>
    <contour>
      <point x="377" y="0" type="line"/>
      <point x="87" y="391" type="line"/>
      <point x="28" y="391" type="line"/>
      <point x="321" y="0" type="line"/>
    </contour>
    <contour>
      <point x="203" y="168" type="line"/>
      <point x="177" y="199" type="line"/>
      <point x="33" y="0" type="line"/>
      <point x="83" y="0" type="line"/>
    </contour>
  </outline>
</glyph>
<glyph name="y" format="2">
  <advance width="454"/>
  <unicode hex="0079"/>
  <anchor x="353" y="-3" name="bottom"/>
  <anchor x="230" y="391" name="top"/>
  <outline>
    <contour>
      <point x="125" y="-188" type="line"/>
      <point x="174" y="-188" type="line"/>
      <point x="426" y="391" type="line"/>
      <point x="380" y="391" type="line"/>
    </contour>
    <contour>
      <point x="213" y="-4" type="line"/>
      <point x="250" y="21" type="line"/>
      <point x="81" y="391" type="line"/>
      <point x="28" y="391" type="line"/>
    </contour>
  </outline>
</glyph>
<glyph name="z" format="2">
  <advance width="404"/>
  <unicode hex="007A"/>
  <anchor x="193" y="0" name="bottom"/>
  <anchor x="208" y="391" name="top"/>
  <outline>
    <contour>
      <point x="99" y="352" type="curve" smooth="yes"/>
      <point x="303" y="352" type="line"/>
      <point x="293" y="365" type="line"/>
      <point x="36" y="0" type="line"/>
      <point x="359" y="0" type="line"/>
      <point x="359" y="40" type="line"/>
      <point x="99" y="40" type="line"/>
      <point x="109" y="30" type="line"/>
      <point x="363" y="391" type="line"/>
      <point x="110" y="391" type="line" smooth="yes"/>
      <point x="87" y="391"/>
      <point x="76" y="400"/>
      <point x="76" y="416" type="curve" smooth="yes"/>
      <point x="76" y="428" type="line"/>
      <point x="39" y="428" type="line"/>
      <point x="39" y="409" type="line" smooth="yes"/>
      <point x="39" y="366"/>
      <point x="64" y="352"/>
    </contour>
  </outline>
</glyph>
<glyph name="braceleft" format="2">
  <advance width="306"/>
  <unicode hex="007B"/>
  <outline>
    <contour>
      <point x="212" y="707" type="curve" smooth="yes"/>
      <point x="264" y="707" type="line"/>
      <point x="264" y="750" type="line"/>
      <point x="215" y="750" type="line" smooth="yes"/>
      <point x="163" y="750"/>
      <point x="111" y="754"/>
      <point x="111" y="631" type="curve" smooth="yes"/>
      <point x="111" y="456" type="line" smooth="yes"/>
      <point x="111" y="400"/>
      <point x="93" y="328"/>
      <point x="31" y="325" type="curve"/>
      <point x="31" y="277" type="line"/>
      <point x="31" y="277" type="line"/>
      <point x="93" y="274"/>
      <point x="111" y="202"/>
      <point x="111" y="147" type="curve" smooth="yes"/>
      <point x="111" y="-4" type="line" smooth="yes"/>
      <point x="111" y="-155"/>
      <point x="157" y="-149"/>
      <point x="215" y="-149" type="curve" smooth="yes"/>
      <point x="264" y="-149" type="line"/>
      <point x="264" y="-107" type="line"/>
      <point x="212" y="-107" type="line" smooth="yes"/>
      <point x="171" y="-107"/>
      <point x="160" y="-81"/>
      <point x="160" y="2" type="curve" smooth="yes"/>
      <point x="160" y="144" type="line" smooth="yes"/>
      <point x="160" y="250"/>
      <point x="125" y="281"/>
      <point x="94" y="301" type="curve"/>
      <point x="126" y="319"/>
      <point x="160" y="350"/>
      <point x="160" y="462" type="curve" smooth="yes"/>
      <point x="160" y="599" type="line" smooth="yes"/>
      <point x="160" y="681"/>
      <point x="171" y="707"/>
    </contour>
  </outline>
</glyph>
<glyph name="bar" format="2">
  <advance width="242"/>
  <unicode hex="007C"/>
  <outline>
    <contour>
      <point x="96" y="704" type="line"/>
      <point x="96" y="-233" type="line"/>
      <point x="140" y="-233" type="line"/>
      <point x="140" y="704" type="line"/>
    </contour>
  </outline>
</glyph>
<glyph name="braceright" format="2">
  <advance width="341"/>
  <unicode hex="007D"/>
  <outline>
    <contour>
      <point x="130" y="-107" type="curve" smooth="yes"/>
      <point x="78" y="-107" type="line"/>
      <point x="78" y="-149" type="line"/>
      <point x="126" y="-149" type="line" smooth="yes"/>
      <point x="178" y="-149"/>
      <point x="231" y="-155"/>
      <point x="231" y="-31" type="curve" smooth="yes"/>
      <point x="231" y="119" type="line" smooth="yes"/>
      <point x="231" y="168"/>
      <point x="234" y="272"/>
      <point x="310" y="275" type="curve"/>
      <point x="310" y="324" type="line"/>
      <point x="310" y="324" type="line"/>
      <point x="234" y="327"/>
      <point x="231" y="431"/>
      <point x="231" y="480" type="curve" smooth="yes"/>
      <point x="231" y="631" type="line" smooth="yes"/>
      <point x="231" y="755"/>
      <point x="178" y="750"/>
      <point x="126" y="750" type="curve" smooth="yes"/>
      <point x="78" y="750" type="line"/>
      <point x="78" y="707" type="line"/>
      <point x="130" y="707" type="line" smooth="yes"/>
      <point x="171" y="707"/>
      <point x="182" y="682"/>
      <point x="182" y="599" type="curve" smooth="yes"/>
      <point x="182" y="457" type="line" smooth="yes"/>
      <point x="182" y="350"/>
      <point x="217" y="319"/>
      <point x="248" y="300" type="curve"/>
      <point x="223" y="285"/>
      <point x="182" y="252"/>
      <point x="182" y="166" type="curve" smooth="yes"/>
      <point x="182" y="2" type="line" smooth="yes"/>
      <point x="182" y="-81"/>
      <point x="171" y="-107"/>
    </contour>
  </outline>
</glyph>
<glyph name="asciitilde" format="2">
  <advance width="402"/>
  <unicode hex="007E"/>
  <outline>
    <contour>
      <point x="277" y="449" type="curve"/>
      <point x="324" y="449"/>
      <point x="361" y="492"/>
      <point x="359" y="577" type="curve"/>
      <point x="327" y="578" type="line"/>
      <point x="325" y="511"/>
      <point x="304" y="486"/>
      <point x="276" y="486" type="curve"/>
      <point x="250" y="486"/>
      <point x="232" y="505"/>
      <point x="213" y="526" type="curve"/>
      <point x="192" y="549"/>
      <point x="169" y="574"/>
      <point x="131" y="574" type="curve"/>
      <point x="82" y="574"/>
      <point x="42" y="528"/>
      <point x="43" y="446" type="curve"/>
      <point x="75" y="445" type="line"/>
      <point x="77" y="511"/>
      <point x="104" y="535"/>
      <point x="129" y="535" type="curve"/>
      <point x="155" y="535"/>
      <point x="172" y="516"/>
      <point x="190" y="497" type="curve"/>
      <point x="212" y="474"/>
      <point x="235" y="449"/>
    </contour>
  </outline>
</glyph>
<glyph name="cent" format="2">
  <advance width="433"/>
  <unicode hex="00A2"/>
  <outline>
    <contour>
      <point x="235" y="456" type="line"/>
      <point x="235" y="-68" type="line"/>
      <point x="268" y="-68" type="line"/>
      <point x="268" y="456" type="line"/>
    </contour>
    <component base="c"/>
  </outline>
</glyph>
<glyph name="sterling" format="2">
  <advance width="593"/>
  <unicode hex="00A3"/>
  <outline>
    <contour>
      <point x="316" y="350" type="line"/>
      <point x="70" y="350" type="line"/>
      <point x="70" y="302" type="line"/>
      <point x="316" y="302" type="line"/>
    </contour>
    <contour>
      <point x="135" y="516" type="curve" smooth="yes"/>
      <point x="135" y="177" type="line" smooth="yes"/>
      <point x="135" y="74"/>
      <point x="128" y="47"/>
      <point x="83" y="47" type="curve" smooth="yes"/>
      <point x="38" y="47" type="line"/>
      <point x="38" y="0" type="line"/>
      <point x="401" y="0" type="line" smooth="yes"/>
      <point x="515" y="0"/>
      <point x="525" y="46"/>
      <point x="525" y="98" type="curve" smooth="yes"/>
      <point x="525" y="147" type="line"/>
      <point x="482" y="147" type="line"/>
      <point x="482" y="96" type="line" smooth="yes"/>
      <point x="482" y="59"/>
      <point x="454" y="47"/>
      <point x="388" y="47" type="curve" smooth="yes"/>
      <point x="152" y="47" type="line"/>
      <point x="161" y="47" type="line"/>
      <point x="181" y="66"/>
      <point x="183" y="120"/>
      <point x="183" y="138" type="curve" smooth="yes"/>
      <point x="183" y="161" type="line"/>
      <point x="183" y="504" type="line" smooth="yes"/>
      <point x="183" y="566"/>
      <point x="215" y="614"/>
      <point x="315" y="614" type="curve" smooth="yes"/>
      <point x="398" y="614"/>
      <point x="424" y="587"/>
      <point x="450" y="543" type="curve"/>
      <point x="485" y="567" type="line"/>
      <point x="456" y="624"/>
      <point x="406" y="661"/>
      <point x="315" y="661" type="curve" smooth="yes"/>
      <point x="207" y="661"/>
      <point x="135" y="610"/>
    </contour>
  </outline>
</glyph>
<glyph name="currency" format="2">
  <advance width="502"/>
  <unicode hex="00A4"/>
  <outline>
    <contour>
      <point x="359" y="445" type="curve"/>
      <point x="393" y="479" type="line"/>
      <point x="370" y="502" type="line"/>
      <point x="336" y="468" type="line"/>
      <point x="336" y="468" type="line"/>
      <point x="312" y="488"/>
      <point x="282" y="501"/>
      <point x="248" y="501" type="curve" smooth="yes"/>
      <point x="215" y="501"/>
      <point x="185" y="488"/>
      <point x="161" y="469" type="curve"/>
      <point x="127" y="503" type="line"/>
      <point x="104" y="480" type="line"/>
      <point x="116" y="468"/>
      <point x="126" y="457"/>
      <point x="138" y="446" type="curve"/>
      <point x="120" y="422"/>
      <point x="109" y="393"/>
      <point x="109" y="361" type="curve" smooth="yes"/>
      <point x="109" y="361" type="line" smooth="yes"/>
      <point x="109" y="327"/>
      <point x="121" y="296"/>
      <point x="140" y="272" type="curve"/>
      <point x="104" y="236" type="line"/>
      <point x="127" y="213" type="line"/>
      <point x="164" y="250" type="line"/>
      <point x="164" y="250" type="line"/>
      <point x="187" y="232"/>
      <point x="216" y="221"/>
      <point x="248" y="221" type="curve" smooth="yes"/>
      <point x="280" y="221"/>
      <point x="310" y="232"/>
      <point x="333" y="251" type="curve"/>
      <point x="346" y="238"/>
      <point x="358" y="226"/>
      <point x="370" y="214" type="curve"/>
      <point x="393" y="237" type="line"/>
      <point x="357" y="273" type="line"/>
      <point x="376" y="297"/>
      <point x="389" y="327"/>
      <point x="389" y="361" type="curve" smooth="yes"/>
      <point x="389" y="393"/>
      <point x="378" y="422"/>
    </contour>
    <contour>
      <point x="141" y="361" type="curve" smooth="yes"/>
      <point x="141" y="361" type="line" smooth="yes"/>
      <point x="141" y="421"/>
      <point x="190" y="469"/>
      <point x="249" y="469" type="curve" smooth="yes"/>
      <point x="308" y="469"/>
      <point x="356" y="421"/>
      <point x="356" y="361" type="curve" smooth="yes"/>
      <point x="356" y="301"/>
      <point x="308" y="253"/>
      <point x="249" y="253" type="curve" smooth="yes"/>
      <point x="190" y="253"/>
      <point x="141" y="301"/>
    </contour>
  </outline>
</glyph>
<glyph name="yen" format="2">
  <advance width="661"/>
  <unicode hex="00A5"/>
  <anchor x="330" y="0" name="bottom"/>
  <anchor x="335" y="710" name="top"/>
  <anchor x="24" y="710" name="topleft"/>
  <outline>
    <contour>
      <point x="156" y="287" type="line"/>
      <point x="156" y="247" type="line"/>
      <point x="503" y="247" type="line"/>
      <point x="503" y="287" type="line"/>
    </contour>
    <contour>
      <point x="157" y="131" type="line"/>
      <point x="157" y="90" type="line"/>
      <point x="502" y="90" type="line"/>
      <point x="502" y="131" type="line"/>
    </contour>
    <contour>
      <point x="306" y="297" type="line"/>
      <point x="306" y="0" type="line"/>
      <point x="355" y="0" type="line"/>
      <point x="355" y="297" type="line"/>
      <point x="620" y="710" type="line"/>
      <point x="561" y="710" type="line"/>
      <point x="323" y="336" type="line"/>
      <point x="340" y="338" type="line"/>
      <point x="101" y="710" type="line"/>
      <point x="41" y="710" type="line"/>
    </contour>
  </outline>
</glyph>
<glyph name="brokenbar" format="2">
  <advance width="216"/>
  <unicode hex="00A6"/>
  <outline>
    <contour>
      <point x="89" y="704" type="line"/>
      <point x="89" y="352" type="line"/>
      <point x="132" y="352" type="line"/>
      <point x="132" y="704" type="line"/>
    </contour>
    <contour>
      <point x="89" y="118" type="line"/>
      <point x="89" y="-234" type="line"/>
      <point x="132" y="-234" type="line"/>
      <point x="132" y="118" type="line"/>
    </contour>
  </outline>
</glyph>
<glyph name="section" format="2">
  <advance width="564"/>
  <unicode hex="00A7"/>
  <outline>
    <contour>
      <point x="357" y="135" type="line"/>
      <point x="452" y="153"/>
      <point x="514" y="216"/>
      <point x="514" y="296" type="curve" smooth="yes"/>
      <point x="514" y="405"/>
      <point x="415" y="437"/>
      <point x="322" y="461" type="curve" smooth="yes"/>
      <point x="226" y="485"/>
      <point x="155" y="508"/>
      <point x="155" y="581" type="curve" smooth="yes"/>
      <point x="155" y="634"/>
      <point x="211" y="685"/>
      <point x="305" y="685" type="curve" smooth="yes"/>
      <point x="361" y="684"/>
      <point x="419" y="667"/>
      <point x="460" y="643" type="curve"/>
      <point x="481" y="679" type="line"/>
      <point x="432" y="708"/>
      <point x="359" y="727"/>
      <point x="300" y="727" type="curve" smooth="yes"/>
      <point x="180" y="727"/>
      <point x="105" y="654"/>
      <point x="105" y="578" type="curve" smooth="yes"/>
      <point x="105" y="496"/>
      <point x="167" y="453"/>
      <point x="253" y="428" type="curve"/>
      <point x="258" y="444" type="line"/>
      <point x="162" y="444"/>
      <point x="76" y="384"/>
      <point x="76" y="290" type="curve" smooth="yes"/>
      <point x="76" y="183"/>
      <point x="177" y="152"/>
      <point x="270" y="126" type="curve"/>
      <point x="354" y="106"/>
      <point x="434" y="83"/>
      <point x="434" y="7" type="curve" smooth="yes"/>
      <point x="434" y="-69"/>
      <point x="350" y="-114"/>
      <point x="265" y="-114" type="curve" smooth="yes"/>
      <point x="193" y="-114"/>
      <point x="121" y="-79"/>
      <point x="74" y="-45" type="curve"/>
      <point x="50" y="-85" type="line"/>
      <point x="86" y="-112"/>
      <point x="165" y="-158"/>
      <point x="269" y="-158" type="curve" smooth="yes"/>
      <point x="392" y="-158"/>
      <point x="484" y="-83"/>
      <point x="484" y="10" type="curve" smooth="yes"/>
      <point x="484" y="96"/>
      <point x="419" y="136"/>
      <point x="342" y="152" type="curve"/>
    </contour>
    <contour>
      <point x="466" y="289" type="curve" smooth="yes"/>
      <point x="465" y="211"/>
      <point x="381" y="167"/>
      <point x="316" y="162" type="curve"/>
      <point x="202" y="192"/>
      <point x="124" y="215"/>
      <point x="124" y="299" type="curve" smooth="yes"/>
      <point x="125" y="368"/>
      <point x="190" y="420"/>
      <point x="294" y="419" type="curve"/>
      <point x="383" y="397"/>
      <point x="466" y="366"/>
    </contour>
  </outline>
</glyph>
<glyph name="dieresis" format="2">
  <advance width="389"/>
  <unicode hex="00A8"/>
  <outline>
    <contour>
      <point x="74" y="511" type="curve" smooth="yes"/>
      <point x="74" y="511" type="line" smooth="yes"/>
      <point x="74" y="492"/>
      <point x="90" y="477"/>
      <point x="107" y="477" type="curve" smooth="yes"/>
      <point x="124" y="477"/>
      <point x="141" y="492"/>
      <point x="141" y="511" type="curve" smooth="yes"/>
      <point x="141" y="530"/>
      <point x="124" y="545"/>
      <point x="107" y="545" type="curve" smooth="yes"/>
      <point x="90" y="545"/>
      <point x="74" y="530"/>
    </contour>
    <contour>
      <point x="248" y="511" type="curve" smooth="yes"/>
      <point x="248" y="511" type="line" smooth="yes"/>
      <point x="248" y="492"/>
      <point x="264" y="477"/>
      <point x="282" y="477" type="curve" smooth="yes"/>
      <point x="298" y="477"/>
      <point x="315" y="492"/>
      <point x="315" y="511" type="curve" smooth="yes"/>
      <point x="315" y="530"/>
      <point x="298" y="545"/>
      <point x="282" y="545" type="curve" smooth="yes"/>
      <point x="264" y="545"/>
      <point x="248" y="530"/>
    </contour>
  </outline>
</glyph>
<glyph name="copyright" format="2">
  <advance width="814"/>
  <unicode hex="00A9"/>
  <outline>
    <contour>
      <point x="521" y="222" type="curve"/>
      <point x="499" y="255" type="line"/>
      <point x="476" y="238"/>
      <point x="449" y="228"/>
      <point x="420" y="228" type="curve" smooth="yes"/>
      <point x="346" y="228"/>
      <point x="293" y="286"/>
      <point x="293" y="358" type="curve" smooth="yes"/>
      <point x="293" y="434"/>
      <point x="353" y="491"/>
      <point x="421" y="491" type="curve" smooth="yes"/>
      <point x="449" y="491"/>
      <point x="474" y="485"/>
      <point x="496" y="469" type="curve"/>
      <point x="515" y="505" type="line"/>
      <point x="489" y="524"/>
      <point x="451" y="533"/>
      <point x="418" y="533" type="curve" smooth="yes"/>
      <point x="321" y="533"/>
      <point x="245" y="457"/>
      <point x="245" y="358" type="curve" smooth="yes"/>
      <point x="245" y="265"/>
      <point x="315" y="186"/>
      <point x="414" y="185" type="curve" smooth="yes"/>
      <point x="458" y="185"/>
      <point x="495" y="202"/>
    </contour>
    <contour>
      <point x="407" y="68" type="curve" smooth="yes"/>
      <point x="579" y="68"/>
      <point x="698" y="191"/>
      <point x="698" y="356" type="curve" smooth="yes"/>
      <point x="698" y="523"/>
      <point x="569" y="645"/>
      <point x="407" y="645" type="curve" smooth="yes"/>
      <point x="245" y="645"/>
      <point x="116" y="523"/>
      <point x="116" y="356" type="curve" smooth="yes"/>
      <point x="116" y="191"/>
      <point x="245" y="68"/>
    </contour>
    <contour>
      <point x="406" y="108" type="curve" smooth="yes"/>
      <point x="252" y="108"/>
      <point x="158" y="213"/>
      <point x="158" y="355" type="curve" smooth="yes"/>
      <point x="158" y="500"/>
      <point x="269" y="605"/>
      <point x="406" y="605" type="curve" smooth="yes"/>
      <point x="544" y="605"/>
      <point x="655" y="500"/>
      <point x="655" y="355" type="curve" smooth="yes"/>
      <point x="655" y="214"/>
      <point x="544" y="108"/>
    </contour>
  </outline>
</glyph>
<glyph name="ordfeminine" format="2">
  <advance width="410"/>
  <unicode hex="00AA"/>
  <outline>
    <contour>
      <point x="180" y="417" type="curve"/>
      <point x="241" y="417"/>
      <point x="293" y="456"/>
      <point x="310" y="496" type="curve"/>
      <point x="300" y="508" type="line"/>
      <point x="300" y="422" type="line"/>
      <point x="338" y="422" type="line"/>
      <point x="338" y="705" type="line"/>
      <point x="304" y="705" type="line"/>
      <point x="299" y="624" type="line"/>
      <point x="306" y="640" type="line"/>
      <point x="286" y="685"/>
      <point x="236" y="712"/>
      <point x="179" y="712" type="curve"/>
      <point x="104" y="712"/>
      <point x="40" y="657"/>
      <point x="40" y="564" type="curve"/>
      <point x="40" y="476"/>
      <point x="102" y="417"/>
    </contour>
    <contour>
      <point x="189" y="449" type="curve"/>
      <point x="128" y="449"/>
      <point x="78" y="500"/>
      <point x="78" y="565" type="curve"/>
      <point x="78" y="635"/>
      <point x="128" y="680"/>
      <point x="189" y="680" type="curve"/>
      <point x="244" y="680"/>
      <point x="289" y="640"/>
      <point x="300" y="589" type="curve"/>
      <point x="300" y="552" type="line"/>
      <point x="297" y="492"/>
      <point x="249" y="449"/>
    </contour>
  </outline>
</glyph>
<glyph name="guillemetleft" format="2">
  <advance width="603"/>
  <unicode hex="00AB"/>
  <outline>
    <contour>
      <point x="90" y="240" type="curve"/>
      <point x="283" y="67" type="line"/>
      <point x="283" y="112" type="line"/>
      <point x="248" y="148"/>
      <point x="188" y="204"/>
      <point x="154" y="240" type="curve"/>
      <point x="188" y="276"/>
      <point x="248" y="332"/>
      <point x="283" y="367" type="curve"/>
      <point x="283" y="413" type="line"/>
      <point x="241" y="373"/>
      <point x="132" y="280"/>
    </contour>
    <contour>
      <point x="282" y="240" type="curve"/>
      <point x="475" y="67" type="line"/>
      <point x="475" y="112" type="line"/>
      <point x="440" y="148"/>
      <point x="380" y="204"/>
      <point x="346" y="240" type="curve"/>
      <point x="380" y="276"/>
      <point x="440" y="332"/>
      <point x="475" y="367" type="curve"/>
      <point x="475" y="413" type="line"/>
      <point x="433" y="373"/>
      <point x="324" y="280"/>
    </contour>
  </outline>
</glyph>
<glyph name="logicalnot" format="2">
  <advance width="535"/>
  <unicode hex="00AC"/>
  <outline>
    <contour>
      <point x="87" y="264" type="line"/>
      <point x="87" y="217" type="line"/>
      <point x="400" y="217" type="line"/>
      <point x="400" y="133" type="line"/>
      <point x="449" y="133" type="line"/>
      <point x="449" y="264" type="line"/>
    </contour>
  </outline>
</glyph>
<glyph name="registered" format="2">
  <advance width="406"/>
  <unicode hex="00AE"/>
  <outline>
    <contour>
      <point x="203" y="376" type="curve"/>
      <point x="296" y="376"/>
      <point x="370" y="446"/>
      <point x="370" y="541" type="curve"/>
      <point x="370" y="637"/>
      <point x="296" y="706"/>
      <point x="203" y="706" type="curve"/>
      <point x="110" y="706"/>
      <point x="36" y="637"/>
      <point x="36" y="541" type="curve"/>
      <point x="36" y="446"/>
      <point x="110" y="376"/>
    </contour>
    <contour>
      <point x="202" y="406" type="curve"/>
      <point x="128" y="406"/>
      <point x="68" y="464"/>
      <point x="68" y="541" type="curve"/>
      <point x="68" y="619"/>
      <point x="128" y="677"/>
      <point x="202" y="677" type="curve"/>
      <point x="278" y="677"/>
      <point x="338" y="619"/>
      <point x="338" y="541" type="curve"/>
      <point x="338" y="464"/>
      <point x="278" y="406"/>
    </contour>
    <contour>
      <point x="143" y="636" type="line"/>
      <point x="143" y="453" type="line"/>
      <point x="173" y="453" type="line"/>
      <point x="173" y="523" type="line"/>
      <point x="203" y="523" type="line"/>
      <point x="245" y="523"/>
      <point x="265" y="548"/>
      <point x="265" y="581" type="curve"/>
      <point x="265" y="620"/>
      <point x="237" y="636"/>
      <point x="204" y="636" type="curve"/>
    </contour>
    <contour>
      <point x="197" y="548" type="curve"/>
      <point x="174" y="548" type="line"/>
      <point x="174" y="611" type="line"/>
      <point x="200" y="611" type="line"/>
      <point x="216" y="611"/>
      <point x="233" y="602"/>
      <point x="233" y="580" type="curve"/>
      <point x="233" y="561"/>
      <point x="223" y="548"/>
    </contour>
    <contour>
      <point x="230" y="531" type="line"/>
      <point x="199" y="530" type="line"/>
      <point x="236" y="453" type="line"/>
      <point x="270" y="453" type="line"/>
    </contour>
  </outline>
</glyph>
<glyph name="macron" format="2">
  <advance width="387"/>
  <unicode hex="00AF"/>
  <outline>
    <contour>
      <point x="76" y="519" type="line"/>
      <point x="76" y="483" type="line"/>
      <point x="312" y="483" type="line"/>
      <point x="312" y="519" type="line"/>
    </contour>
  </outline>
</glyph>
<glyph name="degree" format="2">
  <advance width="283"/>
  <unicode hex="00B0"/>
  <outline>
    <contour>
      <point x="51" y="562" type="curve" smooth="yes"/>
      <point x="51" y="562" type="line" smooth="yes"/>
      <point x="51" y="514"/>
      <point x="89" y="476"/>
      <point x="139" y="476" type="curve" smooth="yes"/>
      <point x="187" y="476"/>
      <point x="225" y="514"/>
      <point x="225" y="562" type="curve" smooth="yes"/>
      <point x="225" y="612"/>
      <point x="187" y="650"/>
      <point x="139" y="650" type="curve" smooth="yes"/>
      <point x="89" y="650"/>
      <point x="51" y="612"/>
    </contour>
    <contour>
      <point x="139" y="506" type="curve"/>
      <point x="139" y="506" type="line"/>
      <point x="107" y="506"/>
      <point x="82" y="531"/>
      <point x="82" y="563" type="curve" smooth="yes"/>
      <point x="82" y="594"/>
      <point x="107" y="619"/>
      <point x="139" y="619" type="curve" smooth="yes"/>
      <point x="170" y="619"/>
      <point x="196" y="594"/>
      <point x="196" y="563" type="curve" smooth="yes"/>
      <point x="196" y="531"/>
      <point x="170" y="506"/>
    </contour>
  </outline>
</glyph>
<glyph name="plusminus" format="2">
  <advance width="527"/>
  <unicode hex="00B1"/>
  <outline>
    <contour>
      <point x="246" y="574" type="line"/>
      <point x="246" y="415" type="line"/>
      <point x="87" y="415" type="line"/>
      <point x="87" y="372" type="line"/>
      <point x="246" y="372" type="line"/>
      <point x="246" y="212" type="line"/>
      <point x="289" y="212" type="line"/>
      <point x="289" y="372" type="line"/>
      <point x="448" y="372" type="line"/>
      <point x="448" y="415" type="line"/>
      <point x="289" y="415" type="line"/>
      <point x="289" y="574" type="line"/>
    </contour>
    <contour>
      <point x="87" y="159" type="line"/>
      <point x="87" y="116" type="line"/>
      <point x="448" y="116" type="line"/>
      <point x="448" y="159" type="line"/>
    </contour>
  </outline>
</glyph>
<glyph name="twosuperior" format="2">
  <advance width="399"/>
  <unicode hex="00B2"/>
  <outline>
    <contour>
      <point x="91" y="648" type="curve"/>
      <point x="108" y="619" type="line"/>
      <point x="123" y="640"/>
      <point x="147" y="657"/>
      <point x="181" y="657" type="curve" smooth="yes"/>
      <point x="223" y="657"/>
      <point x="254" y="636"/>
      <point x="254" y="579" type="curve" smooth="yes"/>
      <point x="254" y="511"/>
      <point x="166" y="434"/>
      <point x="90" y="368" type="curve"/>
      <point x="90" y="346" type="line"/>
      <point x="318" y="346" type="line"/>
      <point x="318" y="386" type="line"/>
      <point x="130" y="386" type="line"/>
      <point x="128" y="354" type="line"/>
      <point x="197" y="421"/>
      <point x="303" y="500"/>
      <point x="303" y="589" type="curve" smooth="yes"/>
      <point x="303" y="660"/>
      <point x="259" y="697"/>
      <point x="192" y="698" type="curve" smooth="yes"/>
      <point x="149" y="698"/>
      <point x="109" y="676"/>
    </contour>
  </outline>
</glyph>
<glyph name="threesuperior" format="2">
  <advance width="404"/>
  <unicode hex="00B3"/>
  <outline>
    <contour>
      <point x="167" y="345" type="curve" smooth="yes"/>
      <point x="240" y="345"/>
      <point x="288" y="395"/>
      <point x="288" y="464" type="curve" smooth="yes"/>
      <point x="288" y="526"/>
      <point x="234" y="567"/>
      <point x="184" y="565" type="curve"/>
      <point x="161" y="565"/>
      <point x="139" y="557"/>
      <point x="125" y="546" type="curve"/>
      <point x="158" y="541" type="line"/>
      <point x="264" y="695" type="line"/>
      <point x="80" y="695" type="line"/>
      <point x="80" y="659" type="line"/>
      <point x="223" y="659" type="line"/>
      <point x="210" y="671" type="line"/>
      <point x="107" y="531" type="line"/>
      <point x="110" y="526" type="line"/>
      <point x="126" y="532"/>
      <point x="140" y="538"/>
      <point x="168" y="538" type="curve" smooth="yes"/>
      <point x="209" y="538"/>
      <point x="244" y="513"/>
      <point x="244" y="465" type="curve" smooth="yes"/>
      <point x="244" y="417"/>
      <point x="213" y="380"/>
      <point x="163" y="379" type="curve" smooth="yes"/>
      <point x="126" y="377"/>
      <point x="99" y="400"/>
      <point x="85" y="416" type="curve"/>
      <point x="69" y="388" type="line"/>
      <point x="88" y="368"/>
      <point x="120" y="345"/>
    </contour>
  </outline>
</glyph>
<glyph name="acute" format="2">
  <advance width="235"/>
  <unicode hex="00B4"/>
  <outline>
    <contour>
      <point x="188" y="615" type="line"/>
      <point x="135" y="615" type="line"/>
      <point x="48" y="482" type="line"/>
      <point x="82" y="482" type="line"/>
    </contour>
  </outline>
</glyph>
<glyph name="micro" format="2">
  <advance width="509"/>
  <unicode hex="00B5"/>
  <anchor x="255" y="0" name="bottom"/>
  <anchor x="477" y="10" name="ogonek"/>
  <anchor x="255" y="397" name="top"/>
  <anchor x="439" y="391" name="topright"/>
  <outline>
    <contour>
      <point x="212" y="-11" type="curve" smooth="yes"/>
      <point x="287" y="-11"/>
      <point x="358" y="36"/>
      <point x="378" y="97" type="curve"/>
      <point x="373" y="125" type="line"/>
      <point x="378" y="0" type="line"/>
      <point x="420" y="0" type="line"/>
      <point x="420" y="391" type="line"/>
      <point x="373" y="391" type="line"/>
      <point x="373" y="183" type="line" smooth="yes"/>
      <point x="373" y="95"/>
      <point x="304" y="30"/>
      <point x="228" y="30" type="curve"/>
      <point x="168" y="33"/>
      <point x="138" y="69"/>
      <point x="136" y="120" type="curve"/>
      <point x="136" y="391" type="line"/>
      <point x="89" y="391" type="line"/>
      <point x="89" y="109" type="line"/>
      <point x="89" y="-201" type="line"/>
      <point x="136" y="-201" type="line"/>
      <point x="136" y="78" type="line"/>
      <point x="94" y="79" type="line"/>
      <point x="106" y="25"/>
      <point x="149" y="-11"/>
    </contour>
  </outline>
</glyph>
<glyph name="paragraph" format="2">
  <advance width="516"/>
  <unicode hex="00B6"/>
  <outline>
    <contour>
      <point x="202" y="425" type="curve"/>
      <point x="202" y="0" type="line"/>
      <point x="245" y="0" type="line"/>
      <point x="245" y="712" type="line"/>
      <point x="366" y="712" type="line"/>
      <point x="366" y="0" type="line"/>
      <point x="409" y="0" type="line"/>
      <point x="409" y="754" type="line"/>
      <point x="202" y="754" type="line" smooth="yes"/>
      <point x="111" y="754"/>
      <point x="38" y="681"/>
      <point x="38" y="589" type="curve" smooth="yes"/>
      <point x="38" y="498"/>
      <point x="111" y="425"/>
    </contour>
  </outline>
</glyph>
<glyph name="cedilla" format="2">
  <advance width="431"/>
  <unicode hex="00B8"/>
  <outline>
    <contour>
      <point x="131" y="-171" type="curve"/>
      <point x="114" y="-195" type="line"/>
      <point x="134" y="-213"/>
      <point x="167" y="-226"/>
      <point x="209" y="-226" type="curve"/>
      <point x="275" y="-226"/>
      <point x="328" y="-199"/>
      <point x="328" y="-141" type="curve"/>
      <point x="328" y="-87"/>
      <point x="287" y="-57"/>
      <point x="219" y="-58" type="curve"/>
      <point x="193" y="-58"/>
      <point x="161" y="-65"/>
      <point x="147" y="-74" type="curve"/>
      <point x="164" y="-85" type="line"/>
      <point x="231" y="-3" type="line"/>
      <point x="195" y="4" type="line"/>
      <point x="125" y="-74" type="line"/>
      <point x="140" y="-99" type="line"/>
      <point x="156" y="-92"/>
      <point x="188" y="-85"/>
      <point x="210" y="-85" type="curve"/>
      <point x="263" y="-85"/>
      <point x="286" y="-111"/>
      <point x="286" y="-142" type="curve"/>
      <point x="286" y="-177"/>
      <point x="251" y="-197"/>
      <point x="204" y="-197" type="curve"/>
      <point x="171" y="-197"/>
      <point x="146" y="-186"/>
    </contour>
  </outline>
</glyph>
<glyph name="onesuperior" format="2">
  <advance width="258"/>
  <unicode hex="00B9"/>
  <outline>
    <contour>
      <point x="65" y="658" type="line"/>
      <point x="65" y="615" type="line"/>
      <point x="116" y="615" type="line"/>
      <point x="116" y="328" type="line"/>
      <point x="161" y="328" type="line"/>
      <point x="161" y="658" type="line"/>
    </contour>
  </outline>
</glyph>
<glyph name="ordmasculine" format="2">
  <advance width="380"/>
  <unicode hex="00BA"/>
  <outline>
    <contour>
      <point x="40" y="560" type="curve"/>
      <point x="40" y="474"/>
      <point x="105" y="413"/>
      <point x="190" y="413" type="curve"/>
      <point x="276" y="413"/>
      <point x="341" y="477"/>
      <point x="341" y="560" type="curve"/>
      <point x="341" y="644"/>
      <point x="276" y="709"/>
      <point x="190" y="709" type="curve"/>
      <point x="105" y="709"/>
      <point x="40" y="644"/>
    </contour>
    <contour>
      <point x="79" y="560" type="curve"/>
      <point x="79" y="620"/>
      <point x="126" y="675"/>
      <point x="190" y="675" type="curve"/>
      <point x="252" y="675"/>
      <point x="302" y="624"/>
      <point x="302" y="560" type="curve"/>
      <point x="302" y="497"/>
      <point x="252" y="447"/>
      <point x="190" y="447" type="curve"/>
      <point x="128" y="447"/>
      <point x="79" y="497"/>
    </contour>
  </outline>
</glyph>
<glyph name="guillemetright" format="2">
  <advance width="603"/>
  <unicode hex="00BB"/>
  <outline>
    <contour>
      <point x="492" y="240" type="curve"/>
      <point x="299" y="67" type="line"/>
      <point x="299" y="112" type="line"/>
      <point x="334" y="148"/>
      <point x="394" y="204"/>
      <point x="428" y="240" type="curve"/>
      <point x="394" y="276"/>
      <point x="334" y="332"/>
      <point x="299" y="367" type="curve"/>
      <point x="299" y="413" type="line"/>
      <point x="341" y="373"/>
      <point x="450" y="280"/>
    </contour>
    <contour>
      <point x="300" y="240" type="curve"/>
      <point x="107" y="67" type="line"/>
      <point x="107" y="112" type="line"/>
      <point x="142" y="148"/>
      <point x="202" y="204"/>
      <point x="236" y="240" type="curve"/>
      <point x="202" y="276"/>
      <point x="142" y="332"/>
      <point x="107" y="367" type="curve"/>
      <point x="107" y="413" type="line"/>
      <point x="149" y="373"/>
      <point x="258" y="280"/>
    </contour>
  </outline>
</glyph>
<glyph name="onequarter" format="2">
  <advance width="762"/>
  <unicode hex="00BC"/>
  <outline>
    <contour>
      <point x="582" y="671.328" type="line"/>
      <point x="536" y="671.328" type="line"/>
      <point x="129" y="0.0" type="line"/>
      <point x="175" y="0.0" type="line"/>
    </contour>
    <component base="onesuperior" xOffset="7"/>
    <component base="foursuperior" xOffset="423" yOffset="-328"/>
  </outline>
</glyph>
<glyph name="AE" format="2">
  <advance width="934"/>
  <unicode hex="00C6"/>
  <anchor x="497" y="0" name="bottom"/>
  <anchor x="634" y="715" name="top"/>
  <outline>
    <contour>
      <point x="468" y="710" type="line"/>
      <point x="468" y="0" type="line"/>
      <point x="860" y="0" type="line"/>
      <point x="860" y="47" type="line"/>
      <point x="517" y="47" type="line"/>
      <point x="517" y="333" type="line"/>
      <point x="806" y="333" type="line"/>
      <point x="806" y="380" type="line"/>
      <point x="517" y="380" type="line"/>
      <point x="517" y="662" type="line"/>
      <point x="846" y="662" type="line"/>
      <point x="846" y="710" type="line"/>
    </contour>
    <contour>
      <point x="482" y="664" type="curve"/>
      <point x="468" y="710" type="line"/>
      <point x="20" y="0" type="line"/>
      <point x="75" y="0" type="line"/>
      <point x="472" y="635" type="line"/>
      <point x="475" y="641"/>
      <point x="479" y="654"/>
    </contour>
    <contour>
      <point x="190" y="236" type="line"/>
      <point x="178" y="196" type="line"/>
      <point x="479" y="196" type="line"/>
      <point x="479" y="236" type="line"/>
    </contour>
  </outline>
</glyph>
<glyph name="multiply" format="2">
  <advance width="507"/>
  <unicode hex="00D7"/>
  <outline>
    <contour>
      <point x="269" y="184" type="curve"/>
      <point x="157" y="295" type="line"/>
      <point x="121" y="258" type="line"/>
      <point x="232" y="147" type="line"/>
      <point x="195" y="110"/>
      <point x="159" y="73"/>
      <point x="122" y="36" type="curve"/>
      <point x="133" y="24"/>
      <point x="145" y="12"/>
      <point x="157" y="1" type="curve"/>
      <point x="194" y="37"/>
      <point x="231" y="74"/>
      <point x="267" y="111" type="curve"/>
      <point x="305" y="74"/>
      <point x="342" y="37"/>
      <point x="379" y="0" type="curve"/>
      <point x="416" y="36" type="line"/>
      <point x="378" y="74"/>
      <point x="342" y="111"/>
      <point x="305" y="148" type="curve"/>
      <point x="341" y="185"/>
      <point x="378" y="222"/>
      <point x="415" y="258" type="curve"/>
      <point x="403" y="270"/>
      <point x="391" y="283"/>
      <point x="380" y="294" type="curve"/>
      <point x="342" y="257"/>
      <point x="306" y="221"/>
    </contour>
  </outline>
</glyph>
<glyph name="Oslash" format="2">
  <advance width="857"/>
  <unicode hex="00D8"/>
  <anchor x="428" y="0" name="bottom"/>
  <anchor x="428" y="710" name="top"/>
  <outline>
    <contour>
      <point x="735" y="699" type="line"/>
      <point x="705" y="727" type="line"/>
      <point x="110" y="22" type="line"/>
      <point x="140" y="-6" type="line"/>
    </contour>
    <component base="O"/>
  </outline>
</glyph>
<glyph name="Thorn" format="2">
  <advance width="554"/>
  <unicode hex="00DE"/>
  <anchor x="282" y="0" name="bottom"/>
  <anchor x="282" y="710" name="top"/>
  <outline>
    <contour>
      <point x="283" y="556" type="curve" smooth="yes"/>
      <point x="163" y="556" type="line"/>
      <point x="163" y="704" type="line"/>
      <point x="113" y="704" type="line"/>
      <point x="113" y="0" type="line"/>
      <point x="163" y="0" type="line"/>
      <point x="163" y="145" type="line"/>
      <point x="275" y="145" type="line" smooth="yes"/>
      <point x="435" y="145"/>
      <point x="497" y="250"/>
      <point x="497" y="356" type="curve" smooth="yes"/>
      <point x="497" y="497"/>
      <point x="388" y="556"/>
    </contour>
    <contour>
      <point x="273" y="192" type="curve" smooth="yes"/>
      <point x="163" y="192" type="line"/>
      <point x="163" y="509" type="line"/>
      <point x="274" y="509" type="line" smooth="yes"/>
      <point x="379" y="509"/>
      <point x="447" y="444"/>
      <point x="447" y="356" type="curve" smooth="yes"/>
      <point x="447" y="288"/>
      <point x="407" y="192"/>
    </contour>
  </outline>
</glyph>
<glyph name="germandbls" format="2">
  <advance width="577"/>
  <unicode hex="00DF"/>
  <outline>
    <contour>
      <point x="112" y="437" type="curve" smooth="yes"/>
      <point x="112" y="399" type="line"/>
      <point x="47" y="399" type="line"/>
      <point x="47" y="359" type="line"/>
      <point x="112" y="359" type="line"/>
      <point x="112" y="0" type="line"/>
      <point x="160" y="0" type="line"/>
      <point x="160" y="427" type="line" smooth="yes"/>
      <point x="160" y="546"/>
      <point x="205" y="621"/>
      <point x="301" y="621" type="curve" smooth="yes"/>
      <point x="380" y="621"/>
      <point x="419" y="568"/>
      <point x="419" y="510" type="curve" smooth="yes"/>
      <point x="419" y="449"/>
      <point x="372" y="410"/>
      <point x="312" y="410" type="curve"/>
      <point x="312" y="366" type="line"/>
      <point x="317" y="366" type="line"/>
      <point x="409" y="367"/>
      <point x="477" y="294"/>
      <point x="477" y="198" type="curve" smooth="yes"/>
      <point x="477" y="106"/>
      <point x="409" y="29"/>
      <point x="317" y="29" type="curve" smooth="yes"/>
      <point x="286" y="29"/>
      <point x="257" y="37"/>
      <point x="232" y="54" type="curve"/>
      <point x="213" y="24" type="line"/>
      <point x="239" y="6"/>
      <point x="276" y="-9"/>
      <point x="322" y="-9" type="curve" smooth="yes"/>
      <point x="435" y="-9"/>
      <point x="524" y="75"/>
      <point x="524" y="196" type="curve" smooth="yes"/>
      <point x="524" y="297"/>
      <point x="464" y="368"/>
      <point x="382" y="391" type="curve"/>
      <point x="435" y="413"/>
      <point x="467" y="459"/>
      <point x="467" y="522" type="curve" smooth="yes"/>
      <point x="467" y="592"/>
      <point x="412" y="660"/>
      <point x="299" y="661" type="curve"/>
      <point x="186" y="659"/>
      <point x="112" y="579"/>
    </contour>
  </outline>
</glyph>
<glyph name="ae" format="2">
  <advance width="780"/>
  <unicode hex="00E6"/>
  <anchor x="389" y="0" name="bottom"/>
  <anchor x="389" y="391" name="top"/>
  <outline>
    <contour>
      <point x="204" y="-11" type="curve"/>
      <point x="245" y="-11"/>
      <point x="331" y="1"/>
      <point x="373" y="55" type="curve"/>
      <point x="372" y="162" type="line"/>
      <point x="343" y="162" type="line"/>
      <point x="343" y="74" type="line"/>
      <point x="313" y="40"/>
      <point x="252" y="25"/>
      <point x="215" y="25" type="curve"/>
      <point x="137" y="25"/>
      <point x="103" y="62"/>
      <point x="103" y="109" type="curve"/>
      <point x="103" y="168"/>
      <point x="157" y="192"/>
      <point x="207" y="192" type="curve"/>
      <point x="265" y="192"/>
      <point x="314" y="166"/>
      <point x="357" y="118" type="curve"/>
      <point x="367" y="146" type="line"/>
      <point x="332" y="196"/>
      <point x="265" y="227"/>
      <point x="197" y="227" type="curve"/>
      <point x="122" y="227"/>
      <point x="51" y="185"/>
      <point x="51" y="106" type="curve"/>
      <point x="51" y="45"/>
      <point x="96" y="-11"/>
    </contour>
    <contour>
      <point x="344" y="168" type="line"/>
      <point x="390" y="233" type="line"/>
      <point x="390" y="276" type="line"/>
      <point x="390" y="355"/>
      <point x="345" y="402"/>
      <point x="248" y="402" type="curve"/>
      <point x="173" y="402"/>
      <point x="117" y="370"/>
      <point x="76" y="327" type="curve"/>
      <point x="101" y="295" type="line"/>
      <point x="145" y="341"/>
      <point x="191" y="361"/>
      <point x="243" y="361" type="curve"/>
      <point x="292" y="361"/>
      <point x="344" y="344"/>
      <point x="344" y="263" type="curve"/>
    </contour>
    <component base="e" xOffset="293"/>
  </outline>
</glyph>
<glyph name="eth" format="2">
  <advance width="519"/>
  <unicode hex="00F0"/>
  <outline>
    <contour>
      <point x="255" y="-8" type="curve"/>
      <point x="378" y="-8"/>
      <point x="468" y="96"/>
      <point x="468" y="223" type="curve"/>
      <point x="468" y="404"/>
      <point x="328" y="628"/>
      <point x="170" y="743" type="curve"/>
      <point x="138" y="712" type="line"/>
      <point x="275" y="609"/>
      <point x="403" y="422"/>
      <point x="417" y="253" type="curve"/>
      <point x="432" y="265" type="line"/>
      <point x="410" y="334"/>
      <point x="345" y="404"/>
      <point x="250" y="404" type="curve"/>
      <point x="139" y="404"/>
      <point x="51" y="312"/>
      <point x="51" y="198" type="curve"/>
      <point x="51" y="77"/>
      <point x="141" y="-8"/>
    </contour>
    <contour>
      <point x="259" y="32" type="curve"/>
      <point x="169" y="32"/>
      <point x="98" y="105"/>
      <point x="98" y="197" type="curve"/>
      <point x="98" y="283"/>
      <point x="166" y="363"/>
      <point x="259" y="363" type="curve"/>
      <point x="349" y="363"/>
      <point x="420" y="289"/>
      <point x="420" y="197" type="curve"/>
      <point x="420" y="105"/>
      <point x="349" y="32"/>
    </contour>
    <contour>
      <point x="358" y="682" type="line"/>
      <point x="340" y="711" type="line"/>
      <point x="146" y="588" type="line"/>
      <point x="164" y="557" type="line"/>
    </contour>
  </outline>
</glyph>
<glyph name="divide" format="2">
  <advance width="503"/>
  <unicode hex="00F7"/>
  <outline>
    <contour>
      <point x="219" y="364" type="curve" smooth="yes"/>
      <point x="219" y="364" type="line" smooth="yes"/>
      <point x="219" y="345"/>
      <point x="235" y="331"/>
      <point x="252" y="331" type="curve" smooth="yes"/>
      <point x="269" y="331"/>
      <point x="286" y="345"/>
      <point x="286" y="364" type="curve" smooth="yes"/>
      <point x="286" y="383"/>
      <point x="269" y="398"/>
      <point x="252" y="398" type="curve" smooth="yes"/>
      <point x="235" y="398"/>
      <point x="219" y="383"/>
    </contour>
    <contour>
      <point x="219" y="97" type="curve" smooth="yes"/>
      <point x="219" y="97" type="line" smooth="yes"/>
      <point x="219" y="77"/>
      <point x="235" y="63"/>
      <point x="252" y="63" type="curve" smooth="yes"/>
      <point x="269" y="63"/>
      <point x="286" y="77"/>
      <point x="286" y="97" type="curve" smooth="yes"/>
      <point x="286" y="116"/>
      <point x="269" y="131"/>
      <point x="252" y="131" type="curve" smooth="yes"/>
      <point x="235" y="131"/>
      <point x="219" y="116"/>
    </contour>
    <contour>
      <point x="68" y="252" type="line"/>
      <point x="68" y="209" type="line"/>
      <point x="430" y="209" type="line"/>
      <point x="430" y="252" type="line"/>
    </contour>
  </outline>
</glyph>
<glyph name="oslash" format="2">
  <advance width="496"/>
  <unicode hex="00F8"/>
  <anchor x="248" y="391" name="top"/>
  <outline>
    <contour>
      <point x="430" y="382" type="line"/>
      <point x="405" y="404" type="line"/>
      <point x="72" y="14" type="line"/>
      <point x="96" y="-10" type="line"/>
    </contour>
    <component base="o"/>
  </outline>
</glyph>
<glyph name="thorn" format="2">
  <advance width="544"/>
  <unicode hex="00FE"/>
  <outline>
    <contour>
      <point x="298" y="-8" type="curve" smooth="yes"/>
      <point x="414" y="-8"/>
      <point x="504" y="76"/>
      <point x="504" y="196" type="curve" smooth="yes"/>
      <point x="504" y="315"/>
      <point x="417" y="403"/>
      <point x="306" y="403" type="curve" smooth="yes"/>
      <point x="226" y="403"/>
      <point x="145" y="353"/>
      <point x="118" y="285" type="curve"/>
      <point x="130" y="271" type="line"/>
      <point x="130" y="760" type="line"/>
      <point x="82" y="760" type="line"/>
      <point x="82" y="-188" type="line"/>
      <point x="129" y="-188" type="line"/>
      <point x="129" y="129" type="line"/>
      <point x="123" y="103" type="line"/>
      <point x="145" y="39"/>
      <point x="223" y="-8"/>
    </contour>
    <contour>
      <point x="291" y="32" type="curve" smooth="yes"/>
      <point x="207" y="32"/>
      <point x="138" y="93"/>
      <point x="130" y="174" type="curve"/>
      <point x="130" y="211" type="line"/>
      <point x="136" y="296"/>
      <point x="205" y="362"/>
      <point x="294" y="362" type="curve" smooth="yes"/>
      <point x="381" y="362"/>
      <point x="457" y="292"/>
      <point x="457" y="196" type="curve" smooth="yes"/>
      <point x="457" y="104"/>
      <point x="382" y="32"/>
    </contour>
  </outline>
</glyph>
<glyph name="aogonek" format="2">
  <advance width="561"/>
  <unicode hex="0105"/>
  <anchor x="521" y="10" name="_ogonek"/>
  <anchor x="281" y="0" name="bottom"/>
  <anchor x="521" y="10" name="ogonek"/>
  <anchor x="286" y="391" name="top"/>
  <outline>
    <contour>
      <point x="251" y="-8" type="curve"/>
      <point x="336" y="-8"/>
      <point x="400" y="46"/>
      <point x="427" y="103" type="curve"/>
      <point x="424" y="119" type="line"/>
      <point x="424" y="-6" type="line"/>
      <point x="432" y="-1" type="line"/>
      <point x="427" y="10" type="line"/>
      <point x="376" y="-16"/>
      <point x="335" y="-61"/>
      <point x="335" y="-109" type="curve"/>
      <point x="335" y="-163"/>
      <point x="377" y="-198"/>
      <point x="425" y="-198" type="curve"/>
      <point x="461" y="-198"/>
      <point x="497" y="-172"/>
      <point x="514" y="-139" type="curve"/>
      <point x="493" y="-116" type="line"/>
      <point x="477" y="-143"/>
      <point x="455" y="-162"/>
      <point x="429" y="-162" type="curve"/>
      <point x="402" y="-162"/>
      <point x="377" y="-142"/>
      <point x="377" y="-106" type="curve"/>
      <point x="377" y="-66"/>
      <point x="413" y="-31"/>
      <point x="471" y="1" type="curve"/>
      <point x="471" y="391" type="line"/>
      <point x="429" y="391" type="line"/>
      <point x="424" y="294" type="line"/>
      <point x="395" y="357"/>
      <point x="334" y="403"/>
      <point x="251" y="403" type="curve"/>
      <point x="143" y="403"/>
      <point x="52" y="326"/>
      <point x="52" y="196" type="curve"/>
      <point x="52" y="74"/>
      <point x="140" y="-8"/>
    </contour>
    <contour>
      <point x="261" y="32" type="curve"/>
      <point x="172" y="32"/>
      <point x="99" y="106"/>
      <point x="99" y="198" type="curve"/>
      <point x="99" y="298"/>
      <point x="172" y="363"/>
      <point x="261" y="363" type="curve"/>
      <point x="341" y="363"/>
      <point x="408" y="307"/>
      <point x="424" y="234" type="curve"/>
      <point x="424" y="178" type="line"/>
      <point x="418" y="92"/>
      <point x="349" y="32"/>
    </contour>
  </outline>
</glyph>
<glyph name="eogonek" format="2">
  <advance width="488"/>
  <unicode hex="0119"/>
  <outline>
    <contour>
      <point x="335" y="-198" type="curve"/>
      <point x="365" y="-198"/>
      <point x="396" y="-180"/>
      <point x="414" y="-156" type="curve"/>
      <point x="395" y="-129" type="line"/>
      <point x="379" y="-150"/>
      <point x="361" y="-162"/>
      <point x="339" y="-162" type="curve"/>
      <point x="309" y="-162"/>
      <point x="279" y="-136"/>
      <point x="279" y="-96" type="curve"/>
      <point x="279" y="-20"/>
      <point x="346" y="2"/>
      <point x="399" y="42" type="curve"/>
      <point x="375" y="76" type="line"/>
      <point x="344" y="50"/>
      <point x="304" y="33"/>
      <point x="261" y="33" type="curve"/>
      <point x="168" y="33"/>
      <point x="98" y="108"/>
      <point x="98" y="199" type="curve"/>
      <point x="98" y="292"/>
      <point x="168" y="364"/>
      <point x="258" y="364" type="curve"/>
      <point x="323" y="364"/>
      <point x="368" y="323"/>
      <point x="394" y="266" type="curve"/>
      <point x="406" y="276" type="line"/>
      <point x="94" y="154" type="line"/>
      <point x="105" y="124" type="line"/>
      <point x="447" y="256" type="line"/>
      <point x="419" y="344"/>
      <point x="354" y="404"/>
      <point x="261" y="404" type="curve"/>
      <point x="144" y="404"/>
      <point x="52" y="311"/>
      <point x="52" y="197" type="curve"/>
      <point x="52" y="81"/>
      <point x="138" y="-8"/>
      <point x="260" y="-8" type="curve"/>
      <point x="287" y="-8"/>
      <point x="325" y="1"/>
      <point x="342" y="14" type="curve"/>
      <point x="299" y="9" type="line"/>
      <point x="258" y="-20"/>
      <point x="237" y="-61"/>
      <point x="237" y="-102" type="curve"/>
      <point x="237" y="-160"/>
      <point x="280" y="-198"/>
    </contour>
  </outline>
</glyph>
<glyph name="Hbar" format="2">
  <advance width="912"/>
  <unicode hex="0126"/>
  <outline>
    <contour>
      <point x="113" y="532" type="line"/>
      <point x="113" y="494" type="line"/>
      <point x="799" y="494" type="line"/>
      <point x="799" y="532" type="line"/>
    </contour>
    <component base="H" xOffset="60"/>
  </outline>
</glyph>
<glyph name="Iogonek" format="2">
  <advance width="262"/>
  <unicode hex="012E"/>
  <outline>
    <contour>
      <point x="110" y="-198" type="curve"/>
      <point x="147" y="-198"/>
      <point x="182" y="-172"/>
      <point x="200" y="-139" type="curve"/>
      <point x="178" y="-116" type="line"/>
      <point x="162" y="-143"/>
      <point x="141" y="-162"/>
      <point x="115" y="-162" type="curve"/>
      <point x="88" y="-162"/>
      <point x="62" y="-142"/>
      <point x="62" y="-106" type="curve"/>
      <point x="62" y="-66"/>
      <point x="98" y="-32"/>
      <point x="159" y="0" type="curve"/>
      <point x="150" y="6" type="line"/>
      <point x="116" y="9" type="line"/>
      <point x="63" y="-17"/>
      <point x="21" y="-62"/>
      <point x="21" y="-112" type="curve"/>
      <point x="21" y="-165"/>
      <point x="62" y="-198"/>
    </contour>
    <component base="I"/>
  </outline>
</glyph>
<glyph name="iogonek" format="2">
  <advance width="227"/>
  <unicode hex="012F"/>
  <outline>
    <contour>
      <point x="90" y="-198" type="curve"/>
      <point x="127" y="-198"/>
      <point x="162" y="-172"/>
      <point x="180" y="-139" type="curve"/>
      <point x="158" y="-116" type="line"/>
      <point x="142" y="-143"/>
      <point x="121" y="-162"/>
      <point x="94" y="-162" type="curve"/>
      <point x="68" y="-162"/>
      <point x="42" y="-142"/>
      <point x="42" y="-106" type="curve"/>
      <point x="42" y="-66"/>
      <point x="77" y="-32"/>
      <point x="137" y="0" type="curve"/>
      <point x="127" y="7" type="line"/>
      <point x="96" y="11" type="line"/>
      <point x="43" y="-14"/>
      <point x="1" y="-60"/>
      <point x="1" y="-109" type="curve"/>
      <point x="1" y="-163"/>
      <point x="42" y="-198"/>
    </contour>
    <component base="idotless"/>
    <component base="dotaccentcomb" xOffset="17" yOffset="-32"/>
  </outline>
</glyph>
<glyph name="idotless" format="2">
  <advance width="225"/>
  <unicode hex="0131"/>
  <anchor x="109" y="0" name="bottom"/>
  <anchor x="206" y="10" name="ogonek"/>
  <anchor x="113" y="391" name="top"/>
  <outline>
    <contour>
      <point x="89" y="391" type="line"/>
      <point x="89" y="0" type="line"/>
      <point x="136" y="0" type="line"/>
      <point x="136" y="391" type="line"/>
    </contour>
  </outline>
</glyph>
<glyph name="kgreenlandic" format="2">
  <advance width="452"/>
  <unicode hex="0138"/>
  <outline>
    <contour>
      <point x="130" y="135" type="line"/>
      <point x="396" y="391" type="line"/>
      <point x="338" y="391" type="line"/>
      <point x="122" y="178" type="line"/>
    </contour>
    <contour>
      <point x="136" y="0" type="line"/>
      <point x="136" y="391" type="line"/>
      <point x="89" y="391" type="line"/>
      <point x="89" y="0" type="line"/>
    </contour>
    <contour>
      <point x="202" y="221" type="line"/>
      <point x="168" y="197" type="line"/>
      <point x="344" y="0" type="line"/>
      <point x="402" y="0" type="line"/>
    </contour>
  </outline>
</glyph>
<glyph name="Lslash" format="2">
  <advance width="589"/>
  <unicode hex="0141"/>
  <outline>
    <contour>
      <point x="364" y="431" type="line"/>
      <point x="26" y="313" type="line"/>
      <point x="34" y="273" type="line"/>
      <point x="372" y="391" type="line"/>
    </contour>
    <component base="L"/>
  </outline>
</glyph>
<glyph name="lslash" format="2">
  <advance width="219"/>
  <unicode hex="0142"/>
  <outline>
    <contour>
      <point x="211" y="366" type="line"/>
      <point x="25" y="307" type="line"/>
      <point x="25" y="265" type="line"/>
      <point x="211" y="324" type="line"/>
    </contour>
    <component base="l" xOffset="3"/>
  </outline>
</glyph>
<glyph name="Eng" format="2">
  <advance width="809"/>
  <unicode hex="014A"/>
  <outline>
    <contour>
      <point x="700" y="-17" type="line"/>
      <point x="702" y="-8" type="line"/>
      <point x="702" y="710" type="line"/>
      <point x="655" y="710" type="line"/>
      <point x="656" y="85" type="line"/>
      <point x="670" y="86" type="line"/>
      <point x="109" y="725" type="line"/>
      <point x="107" y="725" type="line"/>
      <point x="107" y="0" type="line"/>
      <point x="154" y="0" type="line"/>
      <point x="153" y="624" type="line"/>
      <point x="141" y="617" type="line"/>
    </contour>
    <contour>
      <point x="702" y="54" type="line"/>
      <point x="655" y="89" type="line"/>
      <point x="655" y="-6" type="line" smooth="yes"/>
      <point x="655" y="-72"/>
      <point x="633" y="-124"/>
      <point x="598" y="-159" type="curve"/>
      <point x="628" y="-188" type="line"/>
      <point x="676" y="-148"/>
      <point x="702" y="-86"/>
      <point x="702" y="-5" type="curve" smooth="yes"/>
    </contour>
  </outline>
</glyph>
<glyph name="eng" format="2">
  <advance width="512"/>
  <unicode hex="014B"/>
  <anchor x="256" y="0" name="bottom"/>
  <anchor x="256" y="394" name="top"/>
  <outline>
    <contour>
      <point x="423" y="-3" type="curve" smooth="yes"/>
      <point x="423" y="285" type="line"/>
      <point x="421" y="354"/>
      <point x="372" y="402"/>
      <point x="299" y="402" type="curve" smooth="yes"/>
      <point x="222" y="402"/>
      <point x="158" y="360"/>
      <point x="135" y="292" type="curve"/>
      <point x="130" y="391" type="line"/>
      <point x="89" y="391" type="line"/>
      <point x="89" y="0" type="line"/>
      <point x="136" y="0" type="line"/>
      <point x="136" y="210" type="line" smooth="yes"/>
      <point x="136" y="300"/>
      <point x="205" y="361"/>
      <point x="284" y="361" type="curve"/>
      <point x="343" y="359"/>
      <point x="373" y="322"/>
      <point x="375" y="272" type="curve"/>
      <point x="375" y="-6" type="line" smooth="yes"/>
      <point x="375" y="-72"/>
      <point x="353" y="-124"/>
      <point x="319" y="-159" type="curve"/>
      <point x="349" y="-188" type="line"/>
      <point x="397" y="-148"/>
      <point x="423" y="-85"/>
    </contour>
  </outline>
</glyph>
<glyph name="OE" format="2">
  <advance width="1011"/>
  <unicode hex="0152"/>
  <anchor x="506" y="0" name="bottom"/>
  <anchor x="506" y="710" name="top"/>
  <outline>
    <contour>
      <point x="505" y="662" type="curve"/>
      <point x="528" y="705" type="line"/>
      <point x="499" y="713"/>
      <point x="468" y="718"/>
      <point x="436" y="718" type="curve" smooth="yes"/>
      <point x="237" y="718"/>
      <point x="74" y="553"/>
      <point x="74" y="354" type="curve" smooth="yes"/>
      <point x="74" y="154"/>
      <point x="237" y="-8"/>
      <point x="436" y="-8" type="curve" smooth="yes"/>
      <point x="467" y="-8"/>
      <point x="497" y="-4"/>
      <point x="526" y="3" type="curve"/>
      <point x="505" y="47" type="line"/>
      <point x="483" y="42"/>
      <point x="460" y="39"/>
      <point x="438" y="39" type="curve" smooth="yes"/>
      <point x="264" y="39"/>
      <point x="124" y="180"/>
      <point x="124" y="353" type="curve" smooth="yes"/>
      <point x="124" y="527"/>
      <point x="264" y="670"/>
      <point x="436" y="670" type="curve" smooth="yes"/>
      <point x="460" y="670"/>
      <point x="483" y="667"/>
    </contour>
    <contour>
      <point x="498" y="710" type="line"/>
      <point x="498" y="0" type="line"/>
      <point x="920" y="0" type="line"/>
      <point x="920" y="47" type="line"/>
      <point x="548" y="47" type="line"/>
      <point x="548" y="334" type="line"/>
      <point x="867" y="334" type="line"/>
      <point x="867" y="380" type="line"/>
      <point x="548" y="380" type="line"/>
      <point x="548" y="664" type="line"/>
      <point x="906" y="664" type="line"/>
      <point x="906" y="710" type="line"/>
    </contour>
  </outline>
</glyph>
<glyph name="Uogonek" format="2">
  <advance width="707"/>
  <unicode hex="0172"/>
  <outline>
    <contour>
      <point x="450" y="-198" type="curve"/>
      <point x="487" y="-198"/>
      <point x="522" y="-172"/>
      <point x="540" y="-139" type="curve"/>
      <point x="518" y="-116" type="line"/>
      <point x="502" y="-143"/>
      <point x="481" y="-162"/>
      <point x="454" y="-162" type="curve"/>
      <point x="428" y="-162"/>
      <point x="402" y="-142"/>
      <point x="402" y="-106" type="curve"/>
      <point x="402" y="-56"/>
      <point x="437" y="-13"/>
      <point x="492" y="28" type="curve"/>
      <point x="551" y="69"/>
      <point x="598" y="134"/>
      <point x="598" y="235" type="curve"/>
      <point x="598" y="710" type="line"/>
      <point x="550" y="710" type="line"/>
      <point x="550" y="240" type="line"/>
      <point x="550" y="116"/>
      <point x="466" y="39"/>
      <point x="353" y="39" type="curve"/>
      <point x="241" y="39"/>
      <point x="158" y="116"/>
      <point x="158" y="240" type="curve"/>
      <point x="158" y="710" type="line"/>
      <point x="109" y="710" type="line"/>
      <point x="109" y="237" type="line"/>
      <point x="109" y="83"/>
      <point x="211" y="-8"/>
      <point x="353" y="-8" type="curve"/>
      <point x="388" y="-8"/>
      <point x="421" y="-2"/>
      <point x="448" y="9" type="curve"/>
      <point x="446" y="27" type="line"/>
      <point x="430" y="11" type="line"/>
      <point x="389" y="-17"/>
      <point x="361" y="-65"/>
      <point x="361" y="-109" type="curve"/>
      <point x="361" y="-163"/>
      <point x="402" y="-198"/>
    </contour>
  </outline>
</glyph>
<glyph name="uogonek" format="2">
  <advance width="511"/>
  <unicode hex="0173"/>
  <outline>
    <contour>
      <point x="381" y="-198" type="curve"/>
      <point x="418" y="-198"/>
      <point x="453" y="-172"/>
      <point x="471" y="-139" type="curve"/>
      <point x="449" y="-116" type="line"/>
      <point x="433" y="-143"/>
      <point x="412" y="-162"/>
      <point x="386" y="-162" type="curve"/>
      <point x="359" y="-162"/>
      <point x="333" y="-142"/>
      <point x="333" y="-106" type="curve"/>
      <point x="333" y="-67"/>
      <point x="366" y="-31"/>
      <point x="421" y="0" type="curve"/>
      <point x="404" y="9" type="line"/>
      <point x="380" y="10" type="line"/>
      <point x="330" y="-16"/>
      <point x="292" y="-62"/>
      <point x="292" y="-109" type="curve"/>
      <point x="292" y="-163"/>
      <point x="333" y="-198"/>
    </contour>
    <component base="u"/>
  </outline>
</glyph>
<glyph name="Schwa" format="2">
  <advance width="805"/>
  <unicode hex="018F"/>
  <outline>
    <contour>
      <point x="375" y="718" type="curve"/>
      <point x="284" y="718"/>
      <point x="186" y="675"/>
      <point x="123" y="615" type="curve"/>
      <point x="149" y="577" type="line"/>
      <point x="203" y="630"/>
      <point x="291" y="670"/>
      <point x="374" y="670" type="curve"/>
      <point x="555" y="670"/>
      <point x="686" y="522"/>
      <point x="686" y="355" type="curve"/>
      <point x="686" y="181"/>
      <point x="548" y="38"/>
      <point x="377" y="38" type="curve"/>
      <point x="254" y="38"/>
      <point x="159" y="117"/>
      <point x="113" y="234" type="curve"/>
      <point x="97" y="215" type="line"/>
      <point x="690" y="448" type="line"/>
      <point x="678" y="486" type="line"/>
      <point x="55" y="245" type="line"/>
      <point x="103" y="96"/>
      <point x="214" y="-6"/>
      <point x="374" y="-6" type="curve"/>
      <point x="575" y="-6"/>
      <point x="737" y="154"/>
      <point x="737" y="357" type="curve"/>
      <point x="737" y="559"/>
      <point x="583" y="718"/>
    </contour>
  </outline>
</glyph>
<glyph name="florin" format="2">
  <advance width="303"/>
  <unicode hex="0192"/>
  <outline>
    <contour>
      <point x="96" y="517" type="curve" smooth="yes"/>
      <point x="96" y="390" type="line"/>
      <point x="28" y="390" type="line"/>
      <point x="28" y="344" type="line"/>
      <point x="96" y="344" type="line"/>
      <point x="96" y="71" type="line" smooth="yes"/>
      <point x="96" y="-48"/>
      <point x="28" y="-122"/>
      <point x="-67" y="-124" type="curve"/>
      <point x="-67" y="-171" type="line"/>
      <point x="60" y="-166"/>
      <point x="144" y="-86"/>
      <point x="144" y="73" type="curve" smooth="yes"/>
      <point x="144" y="344" type="line"/>
      <point x="275" y="344" type="line"/>
      <point x="275" y="390" type="line"/>
      <point x="144" y="390" type="line"/>
      <point x="144" y="519" type="line" smooth="yes"/>
      <point x="144" y="637"/>
      <point x="212" y="711"/>
      <point x="307" y="713" type="curve"/>
      <point x="307" y="760" type="line"/>
      <point x="188" y="756"/>
      <point x="96" y="675"/>
    </contour>
  </outline>
</glyph>
<glyph name="Nhookleft" format="2">
  <advance width="815"/>
  <unicode hex="019D"/>
  <outline>
    <contour>
      <point x="700" y="-17" type="line"/>
      <point x="702" y="-8" type="line"/>
      <point x="702" y="710" type="line"/>
      <point x="655" y="710" type="line"/>
      <point x="656" y="85" type="line"/>
      <point x="670" y="89" type="line"/>
      <point x="109" y="725" type="line"/>
      <point x="107" y="725" type="line"/>
      <point x="107" y="0" type="line"/>
      <point x="154" y="0" type="line"/>
      <point x="153" y="624" type="line"/>
      <point x="141" y="616" type="line"/>
    </contour>
    <contour>
      <point x="154" y="54" type="line"/>
      <point x="107" y="89" type="line"/>
      <point x="107" y="-6" type="line" smooth="yes"/>
      <point x="107" y="-72"/>
      <point x="85" y="-124"/>
      <point x="50" y="-159" type="curve"/>
      <point x="82" y="-188" type="line"/>
      <point x="130" y="-148"/>
      <point x="154" y="-86"/>
      <point x="154" y="-5" type="curve" smooth="yes"/>
    </contour>
  </outline>
</glyph>
<glyph name="Oogonek" format="2">
  <advance width="862"/>
  <unicode hex="01EA"/>
  <outline>
    <contour>
      <point x="430" y="-8" type="curve"/>
      <point x="475" y="-8"/>
      <point x="531" y="4"/>
      <point x="566" y="21" type="curve"/>
      <point x="534" y="15" type="line"/>
      <point x="480" y="-8"/>
      <point x="425" y="-47"/>
      <point x="425" y="-112" type="curve"/>
      <point x="425" y="-165"/>
      <point x="466" y="-198"/>
      <point x="514" y="-198" type="curve"/>
      <point x="551" y="-198"/>
      <point x="586" y="-172"/>
      <point x="603" y="-139" type="curve"/>
      <point x="582" y="-116" type="line"/>
      <point x="566" y="-143"/>
      <point x="545" y="-162"/>
      <point x="518" y="-162" type="curve"/>
      <point x="492" y="-162"/>
      <point x="466" y="-142"/>
      <point x="466" y="-105" type="curve"/>
      <point x="466" y="-25"/>
      <point x="562" y="-4"/>
      <point x="651" y="65" type="curve"/>
      <point x="724" y="121"/>
      <point x="794" y="211"/>
      <point x="794" y="354" type="curve"/>
      <point x="794" y="553"/>
      <point x="630" y="718"/>
      <point x="430" y="718" type="curve"/>
      <point x="231" y="718"/>
      <point x="68" y="553"/>
      <point x="68" y="354" type="curve"/>
      <point x="68" y="146"/>
      <point x="231" y="-8"/>
    </contour>
    <contour>
      <point x="431" y="39" type="curve"/>
      <point x="257" y="39"/>
      <point x="118" y="180"/>
      <point x="118" y="353" type="curve"/>
      <point x="118" y="522"/>
      <point x="253" y="670"/>
      <point x="430" y="670" type="curve"/>
      <point x="603" y="670"/>
      <point x="744" y="527"/>
      <point x="744" y="354" type="curve"/>
      <point x="744" y="179"/>
      <point x="604" y="39"/>
    </contour>
  </outline>
</glyph>
<glyph name="oogonek" format="2">
  <advance width="519"/>
  <unicode hex="01EB"/>
  <outline>
    <contour>
      <point x="350" y="-198" type="curve"/>
      <point x="387" y="-198"/>
      <point x="422" y="-172"/>
      <point x="440" y="-139" type="curve"/>
      <point x="418" y="-116" type="line"/>
      <point x="402" y="-143"/>
      <point x="381" y="-162"/>
      <point x="354" y="-162" type="curve"/>
      <point x="328" y="-162"/>
      <point x="302" y="-138"/>
      <point x="302" y="-96" type="curve"/>
      <point x="302" y="-44"/>
      <point x="345" y="-4"/>
      <point x="395" y="40" type="curve" smooth="yes"/>
      <point x="442" y="81"/>
      <point x="468" y="139"/>
      <point x="468" y="198" type="curve" smooth="yes"/>
      <point x="468" y="312"/>
      <point x="379" y="404"/>
      <point x="260" y="404" type="curve" smooth="yes"/>
      <point x="141" y="404"/>
      <point x="51" y="312"/>
      <point x="51" y="198" type="curve"/>
      <point x="51" y="77"/>
      <point x="141" y="-8"/>
      <point x="259" y="-8" type="curve" smooth="yes"/>
      <point x="317" y="-8"/>
      <point x="362" y="13"/>
      <point x="399" y="48" type="curve"/>
      <point x="356" y="37" type="line"/>
      <point x="303" y="5"/>
      <point x="261" y="-35"/>
      <point x="261" y="-99" type="curve"/>
      <point x="261" y="-159"/>
      <point x="302" y="-198"/>
    </contour>
    <contour>
      <point x="259" y="32" type="curve" smooth="yes"/>
      <point x="169" y="32"/>
      <point x="98" y="105"/>
      <point x="98" y="197" type="curve"/>
      <point x="98" y="283"/>
      <point x="166" y="363"/>
      <point x="259" y="363" type="curve" smooth="yes"/>
      <point x="349" y="363"/>
      <point x="420" y="289"/>
      <point x="420" y="197" type="curve" smooth="yes"/>
      <point x="420" y="105"/>
      <point x="349" y="32"/>
    </contour>
  </outline>
</glyph>
<glyph name="jdotless" format="2">
  <advance width="224"/>
  <unicode hex="0237"/>
  <anchor x="119" y="0" name="bottom"/>
  <anchor x="123" y="391" name="top"/>
  <outline>
    <contour>
      <point x="72" y="-188" type="line"/>
      <point x="122" y="-149"/>
      <point x="147" y="-89"/>
      <point x="147" y="-5" type="curve"/>
      <point x="147" y="391" type="line"/>
      <point x="99" y="391" type="line"/>
      <point x="99" y="-6" type="line" smooth="yes"/>
      <point x="99" y="-72"/>
      <point x="77" y="-124"/>
      <point x="42" y="-159" type="curve"/>
    </contour>
  </outline>
</glyph>
<glyph name="schwa" format="2">
  <advance width="487"/>
  <unicode hex="0259"/>
  <outline>
    <contour>
      <point x="228" y="399" type="curve" smooth="yes"/>
      <point x="177" y="399"/>
      <point x="127" y="379"/>
      <point x="89" y="349" type="curve"/>
      <point x="113" y="315" type="line"/>
      <point x="144" y="341"/>
      <point x="184" y="358"/>
      <point x="227" y="358" type="curve" smooth="yes"/>
      <point x="324" y="358"/>
      <point x="390" y="281"/>
      <point x="390" y="192" type="curve" smooth="yes"/>
      <point x="390" y="99"/>
      <point x="320" y="27"/>
      <point x="230" y="27" type="curve" smooth="yes"/>
      <point x="163" y="27"/>
      <point x="117" y="72"/>
      <point x="94" y="125" type="curve"/>
      <point x="84" y="111" type="line"/>
      <point x="397" y="233" type="line"/>
      <point x="383" y="267" type="line"/>
      <point x="41" y="135" type="line"/>
      <point x="69" y="47"/>
      <point x="134" y="-13"/>
      <point x="227" y="-13" type="curve" smooth="yes"/>
      <point x="344" y="-13"/>
      <point x="436" y="80"/>
      <point x="436" y="194" type="curve" smooth="yes"/>
      <point x="436" y="310"/>
      <point x="350" y="399"/>
    </contour>
  </outline>
</glyph>
<glyph name="circumflex" format="2">
  <advance width="438"/>
  <unicode hex="02C6"/>
  <outline>
    <contour>
      <point x="323" y="504" type="line"/>
      <point x="370" y="504" type="line"/>
      <point x="224" y="663" type="line"/>
      <point x="223" y="663" type="line"/>
      <point x="78" y="504" type="line"/>
      <point x="125" y="504" type="line"/>
      <point x="235" y="629" type="line"/>
      <point x="214" y="626" type="line"/>
    </contour>
  </outline>
</glyph>
<glyph name="caron" format="2">
  <advance width="434"/>
  <unicode hex="02C7"/>
  <outline>
    <contour>
      <point x="123" y="641" type="line"/>
      <point x="76" y="641" type="line"/>
      <point x="223" y="482" type="line"/>
      <point x="224" y="482" type="line"/>
      <point x="369" y="641" type="line"/>
      <point x="322" y="641" type="line"/>
      <point x="211" y="515" type="line"/>
      <point x="233" y="518" type="line"/>
    </contour>
  </outline>
</glyph>
<glyph name="breve" format="2">
  <advance width="368"/>
  <unicode hex="02D8"/>
  <outline>
    <contour>
      <point x="185" y="492" type="curve"/>
      <point x="259" y="492"/>
      <point x="312" y="557"/>
      <point x="318" y="657" type="curve"/>
      <point x="283" y="657" type="line"/>
      <point x="279" y="586"/>
      <point x="242" y="527"/>
      <point x="185" y="527" type="curve"/>
      <point x="128" y="527"/>
      <point x="89" y="586"/>
      <point x="84" y="657" type="curve"/>
      <point x="50" y="657" type="line"/>
      <point x="57" y="558"/>
      <point x="110" y="492"/>
    </contour>
  </outline>
</glyph>
<glyph name="dotaccent" format="2">
  <advance width="199"/>
  <unicode hex="02D9"/>
  <outline>
    <contour>
      <point x="61" y="530" type="curve" smooth="yes"/>
      <point x="61" y="511"/>
      <point x="78" y="496"/>
      <point x="96" y="496" type="curve" smooth="yes"/>
      <point x="114" y="496"/>
      <point x="130" y="510"/>
      <point x="130" y="530" type="curve" smooth="yes"/>
      <point x="130" y="549"/>
      <point x="114" y="563"/>
      <point x="96" y="563" type="curve" smooth="yes"/>
      <point x="78" y="563"/>
      <point x="61" y="549"/>
    </contour>
  </outline>
</glyph>
<glyph name="ring" format="2">
  <advance width="388"/>
  <unicode hex="02DA"/>
  <outline>
    <contour>
      <point x="130" y="495" type="curve" smooth="yes"/>
      <point x="130" y="451"/>
      <point x="162" y="421"/>
      <point x="206" y="421" type="curve" smooth="yes"/>
      <point x="249" y="421"/>
      <point x="281" y="452"/>
      <point x="281" y="495" type="curve" smooth="yes"/>
      <point x="281" y="538"/>
      <point x="249" y="569"/>
      <point x="206" y="569" type="curve" smooth="yes"/>
      <point x="162" y="569"/>
      <point x="130" y="538"/>
    </contour>
    <contour>
      <point x="159" y="494" type="curve" smooth="yes"/>
      <point x="159" y="521"/>
      <point x="180" y="541"/>
      <point x="206" y="541" type="curve" smooth="yes"/>
      <point x="231" y="541"/>
      <point x="252" y="521"/>
      <point x="252" y="494" type="curve" smooth="yes"/>
      <point x="252" y="468"/>
      <point x="231" y="447"/>
      <point x="206" y="447" type="curve" smooth="yes"/>
      <point x="180" y="447"/>
      <point x="159" y="468"/>
    </contour>
  </outline>
</glyph>
<glyph name="ogonek" format="2">
  <advance width="297"/>
  <unicode hex="02DB"/>
  <outline>
    <contour>
      <point x="156" y="-198" type="curve"/>
      <point x="193" y="-198"/>
      <point x="228" y="-172"/>
      <point x="246" y="-139" type="curve"/>
      <point x="224" y="-116" type="line"/>
      <point x="208" y="-143"/>
      <point x="187" y="-162"/>
      <point x="160" y="-162" type="curve"/>
      <point x="134" y="-162"/>
      <point x="108" y="-142"/>
      <point x="108" y="-106" type="curve"/>
      <point x="108" y="-67"/>
      <point x="146" y="-33"/>
      <point x="209" y="0" type="curve"/>
      <point x="162" y="11" type="line"/>
      <point x="109" y="-14"/>
      <point x="67" y="-60"/>
      <point x="67" y="-109" type="curve"/>
      <point x="67" y="-163"/>
      <point x="108" y="-198"/>
    </contour>
  </outline>
</glyph>
<glyph name="tildecomb" format="2">
  <unicode hex="0303"/>
  <anchor x="205" y="391" name="_top"/>
  <anchor x="208" y="559" name="top"/>
  <outline>
    <contour>
      <point x="279.9152" y="452.12" type="curve"/>
      <point x="324.73440000000005" y="452.12"/>
      <point x="360.0176" y="493.1248"/>
      <point x="358.1104" y="574.1808000000001" type="curve"/>
      <point x="327.5952" y="575.1344" type="line"/>
      <point x="325.688" y="511.2432"/>
      <point x="305.66240000000005" y="487.40319999999997"/>
      <point x="278.9616" y="487.40319999999997" type="curve"/>
      <point x="254.168" y="487.40319999999997"/>
      <point x="237.0032" y="505.5216"/>
      <point x="218.8848" y="525.5472" type="curve"/>
      <point x="198.85920000000002" y="547.48"/>
      <point x="176.9264" y="571.32"/>
      <point x="140.68959999999998" y="571.32" type="curve"/>
      <point x="93.9632" y="571.32"/>
      <point x="55.8192" y="527.4544000000001"/>
      <point x="56.772800000000004" y="449.2592" type="curve"/>
      <point x="87.288" y="448.30559999999997" type="line"/>
      <point x="89.1952" y="511.2432"/>
      <point x="114.9424" y="534.1296"/>
      <point x="138.7824" y="534.1296" type="curve"/>
      <point x="163.576" y="534.1296"/>
      <point x="179.7872" y="516.0112"/>
      <point x="196.952" y="497.8928" type="curve"/>
      <point x="217.9312" y="475.96"/>
      <point x="239.864" y="452.12"/>
    </contour>
  </outline>
</glyph>
<glyph name="hookabovecomb" format="2">
  <unicode hex="0309"/>
  <anchor x="150" y="485" name="_top"/>
  <anchor x="157" y="748" name="top"/>
  <outline>
    <contour>
      <point x="138" y="556" type="curve"/>
      <point x="156" y="534" type="line"/>
      <point x="192" y="561"/>
      <point x="221" y="586"/>
      <point x="221" y="626" type="curve" smooth="yes"/>
      <point x="221" y="671"/>
      <point x="194" y="694"/>
      <point x="157" y="694" type="curve" smooth="yes"/>
      <point x="125" y="694"/>
      <point x="99" y="678"/>
      <point x="77" y="642" type="curve"/>
      <point x="98" y="626" type="line"/>
      <point x="115" y="650"/>
      <point x="128" y="661"/>
      <point x="152" y="661" type="curve" smooth="yes"/>
      <point x="173" y="661"/>
      <point x="188" y="646"/>
      <point x="188" y="624" type="curve"/>
      <point x="188" y="597"/>
      <point x="167" y="580"/>
    </contour>
  </outline>
</glyph>
<glyph name="breveinvertedcomb" format="2">
  <unicode hex="0311"/>
  <anchor x="180" y="443" name="_top"/>
  <anchor x="180" y="665" name="top"/>
  <outline>
    <contour>
      <point x="183" y="665" type="curve"/>
      <point x="109" y="665"/>
      <point x="56" y="600"/>
      <point x="50" y="500" type="curve"/>
      <point x="85" y="500" type="line"/>
      <point x="89" y="571"/>
      <point x="126" y="630"/>
      <point x="183" y="630" type="curve"/>
      <point x="240" y="630"/>
      <point x="279" y="571"/>
      <point x="284" y="500" type="curve"/>
      <point x="318" y="500" type="line"/>
      <point x="311" y="599"/>
      <point x="258" y="665"/>
    </contour>
  </outline>
</glyph>
<glyph name="commaturnedabovecomb" format="2">
  <unicode hex="0312"/>
  <anchor x="100" y="391" name="_top"/>
  <anchor x="100" y="683" name="top"/>
  <outline>
    <contour>
      <point x="121" y="642" type="line"/>
      <point x="66" y="611"/>
      <point x="51" y="547"/>
      <point x="57" y="494" type="curve"/>
      <point x="102" y="494" type="line"/>
      <point x="95" y="548"/>
      <point x="109" y="597"/>
      <point x="145" y="624" type="curve"/>
    </contour>
  </outline>
</glyph>
<glyph name="horncomb" format="2">
  <unicode hex="031B"/>
  <anchor x="129" y="710" name="_topright"/>
  <anchor x="112" y="400" name="topright"/>
  <outline>
    <contour>
      <point x="82" y="710" type="curve"/>
      <point x="82" y="678" type="line"/>
      <point x="158" y="678"/>
      <point x="212" y="698"/>
      <point x="218" y="810" type="curve"/>
      <point x="180" y="810" type="line"/>
      <point x="177" y="734"/>
      <point x="146" y="710"/>
    </contour>
  </outline>
</glyph>
<glyph name="dotbelowcomb" format="2">
  <unicode hex="0323"/>
  <anchor x="98" y="0" name="_bottom"/>
  <anchor x="98" y="-136" name="bottom"/>
  <outline>
    <contour>
      <point x="64.1696" y="-98.59199999999998" type="curve" smooth="yes"/>
      <point x="64.1696" y="-116.71039999999999"/>
      <point x="80.3808" y="-131.01440000000002"/>
      <point x="97.54560000000001" y="-131.01440000000002" type="curve" smooth="yes"/>
      <point x="114.7104" y="-131.01440000000002"/>
      <point x="129.96800000000002" y="-117.66399999999999"/>
      <point x="129.96800000000002" y="-98.59199999999998" type="curve" smooth="yes"/>
      <point x="129.96800000000002" y="-80.47360000000003"/>
      <point x="114.7104" y="-67.1232"/>
      <point x="97.54560000000001" y="-67.1232" type="curve" smooth="yes"/>
      <point x="80.3808" y="-67.1232"/>
      <point x="64.1696" y="-80.47360000000003"/>
    </contour>
  </outline>
</glyph>
<glyph name="commaaccentcomb" format="2">
  <unicode hex="0326"/>
  <anchor x="121" y="0" name="_bottom"/>
  <anchor x="94" y="-182" name="bottom"/>
  <outline>
    <contour>
      <point x="80" y="-190" type="line"/>
      <point x="135" y="-159"/>
      <point x="150" y="-95"/>
      <point x="144" y="-42" type="curve"/>
      <point x="99" y="-42" type="line"/>
      <point x="106" y="-96"/>
      <point x="92" y="-145"/>
      <point x="56" y="-172" type="curve"/>
    </contour>
  </outline>
</glyph>
<glyph name="strokeshortcomb" format="2">
  <unicode hex="0335"/>
  <anchor x="197" y="278" name="_center"/>
  <outline>
    <contour>
      <point x="75" y="299" type="line"/>
      <point x="75" y="254" type="line"/>
      <point x="316" y="254" type="line"/>
      <point x="316" y="299" type="line"/>
    </contour>
  </outline>
</glyph>
<glyph name="Delta" format="2">
  <advance width="742"/>
  <unicode hex="0394"/>
  <outline>
    <contour>
      <point x="51" y="0" type="line"/>
      <point x="691" y="0" type="line"/>
      <point x="371" y="741" type="line"/>
      <point x="366" y="741" type="line"/>
    </contour>
    <contour>
      <point x="627" y="12" type="line"/>
      <point x="652" y="46" type="line"/>
      <point x="92" y="46" type="line"/>
      <point x="107" y="12" type="line"/>
      <point x="391" y="684" type="line"/>
      <point x="350" y="684" type="line"/>
    </contour>
  </outline>
</glyph>
<glyph name="pi" format="2">
  <advance width="320"/>
  <unicode hex="03C0"/>
  <outline>
    <contour>
      <point x="6" y="333" type="line"/>
      <point x="6" y="290" type="line"/>
      <point x="59" y="290" type="line"/>
      <point x="59" y="0" type="line"/>
      <point x="102" y="0" type="line"/>
      <point x="102" y="290" type="line"/>
      <point x="226" y="290" type="line"/>
      <point x="226" y="0" type="line"/>
      <point x="269" y="0" type="line"/>
      <point x="269" y="290" type="line"/>
      <point x="313" y="290" type="line"/>
      <point x="313" y="333" type="line"/>
    </contour>
  </outline>
</glyph>
<glyph name="Germandbls" format="2">
  <advance width="839"/>
  <unicode hex="1E9E"/>
  <outline>
    <contour>
      <point x="577" y="-8" type="curve"/>
      <point x="693" y="-8"/>
      <point x="768" y="70"/>
      <point x="768" y="161" type="curve"/>
      <point x="768" y="259"/>
      <point x="686" y="296"/>
      <point x="608" y="338" type="curve"/>
      <point x="534" y="379"/>
      <point x="461" y="417"/>
      <point x="461" y="497" type="curve"/>
      <point x="461" y="565"/>
      <point x="518" y="618"/>
      <point x="586" y="618" type="curve"/>
      <point x="634" y="618"/>
      <point x="668" y="593"/>
      <point x="679" y="584" type="curve"/>
      <point x="695" y="620" type="line"/>
      <point x="647" y="675"/>
      <point x="539" y="729"/>
      <point x="420" y="729" type="curve"/>
      <point x="211" y="729"/>
      <point x="113" y="580"/>
      <point x="113" y="364" type="curve"/>
      <point x="113" y="0" type="line"/>
      <point x="162" y="0" type="line"/>
      <point x="162" y="360" type="line"/>
      <point x="162" y="588"/>
      <point x="267" y="689"/>
      <point x="426" y="689" type="curve"/>
      <point x="506" y="689"/>
      <point x="591" y="659"/>
      <point x="647" y="607" type="curve"/>
      <point x="663" y="629" type="line"/>
      <point x="646" y="640"/>
      <point x="626" y="654"/>
      <point x="580" y="654" type="curve"/>
      <point x="464" y="647"/>
      <point x="411" y="571"/>
      <point x="411" y="486" type="curve"/>
      <point x="411" y="392"/>
      <point x="496" y="339"/>
      <point x="580" y="298" type="curve"/>
      <point x="648" y="258"/>
      <point x="718" y="231"/>
      <point x="718" y="160" type="curve"/>
      <point x="718" y="78"/>
      <point x="636" y="35"/>
      <point x="575" y="35" type="curve"/>
      <point x="512" y="35"/>
      <point x="448" y="57"/>
      <point x="402" y="85" type="curve"/>
      <point x="381" y="45" type="line"/>
      <point x="427" y="17"/>
      <point x="493" y="-8"/>
    </contour>
  </outline>
</glyph>
<glyph name="endash" format="2">
  <advance width="512"/>
  <unicode hex="2013"/>
  <outline>
    <contour>
      <point x="101" y="218" type="line"/>
      <point x="101" y="175" type="line"/>
      <point x="403" y="175" type="line"/>
      <point x="403" y="218" type="line"/>
    </contour>
  </outline>
</glyph>
<glyph name="emdash" format="2">
  <advance width="704"/>
  <unicode hex="2014"/>
  <outline>
    <contour>
      <point x="100" y="218" type="line"/>
      <point x="100" y="175" type="line"/>
      <point x="604" y="175" type="line"/>
      <point x="604" y="218" type="line"/>
    </contour>
  </outline>
</glyph>
<glyph name="quoteleft" format="2">
  <advance width="171"/>
  <unicode hex="2018"/>
  <outline>
    <contour>
      <point x="104" y="720" type="line"/>
      <point x="63" y="686"/>
      <point x="38" y="633"/>
      <point x="50" y="574" type="curve"/>
      <point x="92" y="581" type="line"/>
      <point x="84" y="621"/>
      <point x="99" y="663"/>
      <point x="128" y="699" type="curve"/>
    </contour>
  </outline>
</glyph>
<glyph name="quoteright" format="2">
  <advance width="173"/>
  <unicode hex="2019"/>
  <outline>
    <contour>
      <point x="72" y="569" type="line"/>
      <point x="72" y="569" type="line"/>
      <point x="113" y="601"/>
      <point x="138" y="661"/>
      <point x="127" y="715" type="curve"/>
      <point x="84" y="708" type="line"/>
      <point x="93" y="661"/>
      <point x="77" y="616"/>
      <point x="49" y="589" type="curve"/>
    </contour>
  </outline>
</glyph>
<glyph name="dagger" format="2">
  <advance width="300"/>
  <unicode hex="2020"/>
  <outline>
    <contour>
      <point x="47" y="450" type="line"/>
      <point x="47" y="407" type="line"/>
      <point x="252" y="407" type="line"/>
      <point x="252" y="450" type="line"/>
    </contour>
    <contour>
      <point x="128" y="588" type="line"/>
      <point x="128" y="46" type="line"/>
      <point x="172" y="46" type="line"/>
      <point x="172" y="588" type="line"/>
    </contour>
  </outline>
</glyph>
<glyph name="daggerdbl" format="2">
  <advance width="309"/>
  <unicode hex="2021"/>
  <outline>
    <contour>
      <point x="44" y="297" type="line"/>
      <point x="44" y="254" type="line"/>
      <point x="264" y="254" type="line"/>
      <point x="264" y="297" type="line"/>
    </contour>
    <contour>
      <point x="55" y="450" type="line"/>
      <point x="55" y="407" type="line"/>
      <point x="260" y="407" type="line"/>
      <point x="260" y="450" type="line"/>
    </contour>
    <contour>
      <point x="136" y="588" type="line"/>
      <point x="136" y="46" type="line"/>
      <point x="179" y="46" type="line"/>
      <point x="179" y="588" type="line"/>
    </contour>
  </outline>
</glyph>
<glyph name="bullet" format="2">
  <advance width="481"/>
  <unicode hex="2022"/>
  <outline>
    <contour>
      <point x="149" y="302" type="curve" smooth="yes"/>
      <point x="149" y="302" type="line" smooth="yes"/>
      <point x="149" y="251"/>
      <point x="190" y="210"/>
      <point x="240" y="210" type="curve" smooth="yes"/>
      <point x="292" y="210"/>
      <point x="333" y="251"/>
      <point x="333" y="302" type="curve" smooth="yes"/>
      <point x="333" y="353"/>
      <point x="292" y="394"/>
      <point x="240" y="394" type="curve" smooth="yes"/>
      <point x="190" y="394"/>
      <point x="149" y="353"/>
    </contour>
  </outline>
</glyph>
<glyph name="ellipsis" format="2">
  <advance width="504"/>
  <unicode hex="2026"/>
  <outline>
    <contour>
      <point x="53" y="34" type="curve" smooth="yes"/>
      <point x="53" y="34" type="line" smooth="yes"/>
      <point x="53" y="14"/>
      <point x="69" y="0"/>
      <point x="86" y="0" type="curve" smooth="yes"/>
      <point x="103" y="0"/>
      <point x="120" y="14"/>
      <point x="120" y="34" type="curve" smooth="yes"/>
      <point x="120" y="53"/>
      <point x="103" y="68"/>
      <point x="86" y="68" type="curve" smooth="yes"/>
      <point x="69" y="68"/>
      <point x="53" y="53"/>
    </contour>
    <contour>
      <point x="222" y="34" type="curve" smooth="yes"/>
      <point x="222" y="34" type="line" smooth="yes"/>
      <point x="222" y="14"/>
      <point x="238" y="0"/>
      <point x="256" y="0" type="curve" smooth="yes"/>
      <point x="272" y="0"/>
      <point x="289" y="14"/>
      <point x="289" y="34" type="curve" smooth="yes"/>
      <point x="289" y="53"/>
      <point x="272" y="68"/>
      <point x="256" y="68" type="curve" smooth="yes"/>
      <point x="238" y="68"/>
      <point x="222" y="53"/>
    </contour>
    <contour>
      <point x="391" y="34" type="curve" smooth="yes"/>
      <point x="391" y="34" type="line" smooth="yes"/>
      <point x="391" y="14"/>
      <point x="407" y="0"/>
      <point x="425" y="0" type="curve" smooth="yes"/>
      <point x="442" y="0"/>
      <point x="458" y="14"/>
      <point x="458" y="34" type="curve" smooth="yes"/>
      <point x="458" y="53"/>
      <point x="442" y="68"/>
      <point x="425" y="68" type="curve" smooth="yes"/>
      <point x="407" y="68"/>
      <point x="391" y="53"/>
    </contour>
  </outline>
</glyph>
<glyph name="perthousand" format="2">
  <advance width="1041"/>
  <unicode hex="2030"/>
  <outline>
    <contour>
      <point x="214" y="240" type="curve"/>
      <point x="285" y="240"/>
      <point x="337" y="297"/>
      <point x="337" y="392" type="curve"/>
      <point x="337" y="485"/>
      <point x="286" y="544"/>
      <point x="214" y="544" type="curve"/>
      <point x="140" y="544"/>
      <point x="90" y="485"/>
      <point x="90" y="392" type="curve"/>
      <point x="90" y="298"/>
      <point x="140" y="240"/>
    </contour>
    <contour>
      <point x="133" y="391" type="curve"/>
      <point x="133" y="470"/>
      <point x="166" y="508"/>
      <point x="214" y="508" type="curve"/>
      <point x="261" y="508"/>
      <point x="294" y="465"/>
      <point x="294" y="391" type="curve"/>
      <point x="294" y="318"/>
      <point x="261" y="275"/>
      <point x="214" y="275" type="curve"/>
      <point x="166" y="275"/>
      <point x="133" y="318"/>
    </contour>
    <contour>
      <point x="547" y="-4" type="curve"/>
      <point x="618" y="-4"/>
      <point x="671" y="53"/>
      <point x="671" y="148" type="curve"/>
      <point x="671" y="241"/>
      <point x="620" y="300"/>
      <point x="547" y="300" type="curve"/>
      <point x="474" y="300"/>
      <point x="424" y="241"/>
      <point x="424" y="148" type="curve"/>
      <point x="424" y="54"/>
      <point x="474" y="-4"/>
    </contour>
    <contour>
      <point x="466" y="147" type="curve"/>
      <point x="466" y="226"/>
      <point x="500" y="264"/>
      <point x="547" y="264" type="curve"/>
      <point x="594" y="264"/>
      <point x="628" y="221"/>
      <point x="628" y="147" type="curve"/>
      <point x="628" y="74"/>
      <point x="594" y="31"/>
      <point x="547" y="31" type="curve"/>
      <point x="500" y="31"/>
      <point x="466" y="74"/>
    </contour>
    <contour>
      <point x="578" y="546" type="line"/>
      <point x="529" y="546" type="line"/>
      <point x="182" y="0" type="line"/>
      <point x="230" y="-1" type="line"/>
    </contour>
    <contour>
      <point x="842" y="-4" type="curve"/>
      <point x="913" y="-4"/>
      <point x="966" y="53"/>
      <point x="966" y="148" type="curve"/>
      <point x="966" y="241"/>
      <point x="915" y="300"/>
      <point x="842" y="300" type="curve"/>
      <point x="769" y="300"/>
      <point x="719" y="241"/>
      <point x="719" y="148" type="curve"/>
      <point x="719" y="54"/>
      <point x="769" y="-4"/>
    </contour>
    <contour>
      <point x="761" y="147" type="curve"/>
      <point x="761" y="226"/>
      <point x="795" y="264"/>
      <point x="842" y="264" type="curve"/>
      <point x="889" y="264"/>
      <point x="923" y="221"/>
      <point x="923" y="147" type="curve"/>
      <point x="923" y="74"/>
      <point x="889" y="31"/>
      <point x="842" y="31" type="curve"/>
      <point x="795" y="31"/>
      <point x="761" y="74"/>
    </contour>
  </outline>
</glyph>
<glyph name="guilsinglleft" format="2">
  <advance width="383"/>
  <unicode hex="2039"/>
  <outline>
    <contour>
      <point x="90" y="240" type="curve"/>
      <point x="283" y="67" type="line"/>
      <point x="283" y="112" type="line"/>
      <point x="248" y="148"/>
      <point x="188" y="204"/>
      <point x="154" y="240" type="curve"/>
      <point x="188" y="276"/>
      <point x="248" y="332"/>
      <point x="283" y="367" type="curve"/>
      <point x="283" y="413" type="line"/>
      <point x="241" y="373"/>
      <point x="132" y="280"/>
    </contour>
  </outline>
</glyph>
<glyph name="guilsinglright" format="2">
  <advance width="381"/>
  <unicode hex="203A"/>
  <outline>
    <contour>
      <point x="300" y="240" type="curve"/>
      <point x="107" y="67" type="line"/>
      <point x="107" y="112" type="line"/>
      <point x="142" y="148"/>
      <point x="202" y="204"/>
      <point x="236" y="240" type="curve"/>
      <point x="202" y="276"/>
      <point x="142" y="332"/>
      <point x="107" y="367" type="curve"/>
      <point x="107" y="413" type="line"/>
      <point x="149" y="373"/>
      <point x="258" y="280"/>
    </contour>
  </outline>
</glyph>
<glyph name="fraction" format="2">
  <advance width="546"/>
  <unicode hex="2044"/>
  <outline>
    <contour>
      <point x="471" y="672" type="line"/>
      <point x="425" y="672" type="line"/>
      <point x="18" y="0" type="line"/>
      <point x="64" y="0" type="line"/>
    </contour>
  </outline>
</glyph>
<glyph name="foursuperior" format="2">
  <advance width="364"/>
  <unicode hex="2074"/>
  <outline>
    <contour>
      <point x="290" y="463" type="line"/>
      <point x="72" y="463" type="line"/>
      <point x="80" y="447" type="line"/>
      <point x="219" y="611" type="line"/>
      <point x="208" y="615" type="line"/>
      <point x="208" y="328" type="line"/>
      <point x="250" y="328" type="line"/>
      <point x="250" y="667" type="line"/>
      <point x="224" y="667" type="line"/>
      <point x="41" y="448" type="line"/>
      <point x="42" y="433" type="line"/>
      <point x="290" y="433" type="line"/>
    </contour>
  </outline>
</glyph>
<glyph name="colonsign" format="2">
  <advance width="692"/>
  <unicode hex="20A1"/>
  <outline>
    <contour>
      <point x="513" y="756" type="line"/>
      <point x="469" y="756" type="line"/>
      <point x="178" y="-35" type="line"/>
      <point x="221" y="-35" type="line"/>
    </contour>
    <contour>
      <point x="647" y="758" type="line"/>
      <point x="604" y="758" type="line"/>
      <point x="312" y="-34" type="line"/>
      <point x="356" y="-34" type="line"/>
    </contour>
    <component base="C"/>
  </outline>
</glyph>
<glyph name="lira" format="2">
  <advance width="601"/>
  <unicode hex="20A4"/>
  <outline>
    <contour>
      <point x="319" y="371" type="line"/>
      <point x="69" y="371" type="line"/>
      <point x="69" y="326" type="line"/>
      <point x="319" y="326" type="line"/>
    </contour>
    <contour>
      <point x="319" y="245" type="line"/>
      <point x="69" y="245" type="line"/>
      <point x="69" y="201" type="line"/>
      <point x="319" y="201" type="line"/>
    </contour>
    <contour>
      <point x="136" y="516" type="curve" smooth="yes"/>
      <point x="136" y="177" type="line" smooth="yes"/>
      <point x="136" y="74"/>
      <point x="129" y="47"/>
      <point x="83" y="47" type="curve" smooth="yes"/>
      <point x="39" y="47" type="line"/>
      <point x="39" y="0" type="line"/>
      <point x="402" y="0" type="line" smooth="yes"/>
      <point x="516" y="0"/>
      <point x="526" y="46"/>
      <point x="526" y="98" type="curve" smooth="yes"/>
      <point x="526" y="147" type="line"/>
      <point x="482" y="147" type="line"/>
      <point x="482" y="96" type="line" smooth="yes"/>
      <point x="482" y="59"/>
      <point x="455" y="47"/>
      <point x="388" y="47" type="curve" smooth="yes"/>
      <point x="162" y="47" type="line"/>
      <point x="162" y="47" type="line"/>
      <point x="182" y="66"/>
      <point x="184" y="120"/>
      <point x="184" y="138" type="curve" smooth="yes"/>
      <point x="184" y="161" type="line"/>
      <point x="184" y="504" type="line" smooth="yes"/>
      <point x="184" y="566"/>
      <point x="216" y="614"/>
      <point x="316" y="614" type="curve" smooth="yes"/>
      <point x="398" y="614"/>
      <point x="425" y="587"/>
      <point x="451" y="543" type="curve"/>
      <point x="486" y="567" type="line"/>
      <point x="457" y="624"/>
      <point x="407" y="661"/>
      <point x="315" y="661" type="curve" smooth="yes"/>
      <point x="208" y="661"/>
      <point x="136" y="610"/>
    </contour>
  </outline>
</glyph>
<glyph name="naira" format="2">
  <advance width="822"/>
  <unicode hex="20A6"/>
  <anchor x="412" y="0" name="bottom"/>
  <anchor x="406" y="710" name="top"/>
  <outline>
    <contour>
      <point x="421" y="369" type="line"/>
      <point x="421" y="334" type="line"/>
      <point x="801" y="334" type="line"/>
      <point x="801" y="369" type="line"/>
    </contour>
    <contour>
      <point x="415" y="334" type="line"/>
      <point x="415" y="369" type="line"/>
      <point x="15" y="369" type="line"/>
      <point x="15" y="334" type="line"/>
    </contour>
    <contour>
      <point x="707" y="-17" type="line"/>
      <point x="709" y="-17" type="line"/>
      <point x="709" y="710" type="line"/>
      <point x="660" y="710" type="line"/>
      <point x="661" y="85" type="line"/>
      <point x="676" y="80" type="line"/>
      <point x="116" y="725" type="line"/>
      <point x="113" y="725" type="line"/>
      <point x="113" y="0" type="line"/>
      <point x="163" y="0" type="line"/>
      <point x="162" y="624" type="line"/>
      <point x="147" y="623" type="line"/>
    </contour>
  </outline>
</glyph>
<glyph name="peseta" format="2">
  <advance width="572"/>
  <unicode hex="20A7"/>
  <outline>
    <contour>
      <point x="476" y="520" type="line"/>
      <point x="476" y="484" type="line"/>
      <point x="560" y="484" type="line"/>
      <point x="560" y="520" type="line"/>
    </contour>
    <contour>
      <point x="126" y="484" type="line"/>
      <point x="126" y="520" type="line"/>
      <point x="37" y="520" type="line"/>
      <point x="37" y="484" type="line"/>
    </contour>
    <component base="P"/>
  </outline>
</glyph>
<glyph name="won" format="2">
  <advance width="993"/>
  <unicode hex="20A9"/>
  <outline>
    <contour>
      <point x="65" y="429" type="line"/>
      <point x="65" y="393" type="line"/>
      <point x="958" y="393" type="line"/>
      <point x="958" y="429" type="line"/>
    </contour>
    <component base="W"/>
  </outline>
</glyph>
<glyph name="dong" format="2">
  <advance width="609"/>
  <unicode hex="20AB"/>
  <outline>
    <contour>
      <point x="331" y="687" type="line"/>
      <point x="331" y="652" type="line"/>
      <point x="553" y="652" type="line"/>
      <point x="553" y="687" type="line"/>
    </contour>
    <contour>
      <point x="90" y="35" type="line"/>
      <point x="90" y="0" type="line"/>
      <point x="556" y="0" type="line"/>
      <point x="556" y="35" type="line"/>
    </contour>
    <contour>
      <point x="282" y="116" type="curve" smooth="yes"/>
      <point x="362" y="116"/>
      <point x="434" y="158"/>
      <point x="465" y="221" type="curve"/>
      <point x="456" y="243" type="line"/>
      <point x="456" y="124" type="line"/>
      <point x="503" y="124" type="line"/>
      <point x="503" y="775" type="line"/>
      <point x="456" y="775" type="line"/>
      <point x="456" y="400" type="line"/>
      <point x="465" y="420" type="line"/>
      <point x="435" y="482"/>
      <point x="361" y="527"/>
      <point x="287" y="527" type="curve" smooth="yes"/>
      <point x="176" y="527"/>
      <point x="86" y="447"/>
      <point x="86" y="322" type="curve" smooth="yes"/>
      <point x="86" y="203"/>
      <point x="172" y="116"/>
    </contour>
    <contour>
      <point x="295" y="157" type="curve" smooth="yes"/>
      <point x="206" y="157"/>
      <point x="134" y="231"/>
      <point x="134" y="323" type="curve" smooth="yes"/>
      <point x="134" y="421"/>
      <point x="205" y="488"/>
      <point x="295" y="488" type="curve" smooth="yes"/>
      <point x="374" y="488"/>
      <point x="441" y="430"/>
      <point x="456" y="355" type="curve"/>
      <point x="456" y="305" type="line"/>
      <point x="450" y="219"/>
      <point x="382" y="157"/>
    </contour>
  </outline>
</glyph>
<glyph name="euro" format="2">
  <advance width="732"/>
  <unicode hex="20AC"/>
  <outline>
    <contour>
      <point x="68" y="422" type="line"/>
      <point x="68" y="381" type="line"/>
      <point x="412" y="381" type="line"/>
      <point x="412" y="422" type="line"/>
    </contour>
    <contour>
      <point x="69" y="302" type="line"/>
      <point x="69" y="262" type="line"/>
      <point x="412" y="262" type="line"/>
      <point x="412" y="302" type="line"/>
    </contour>
    <component base="C" xOffset="41"/>
  </outline>
</glyph>
<glyph name="kip" format="2">
  <advance width="659"/>
  <unicode hex="20AD"/>
  <outline>
    <contour>
      <point x="35" y="427" type="line"/>
      <point x="35" y="380" type="line"/>
      <point x="542" y="380" type="line"/>
      <point x="542" y="427" type="line"/>
    </contour>
    <component base="K" xOffset="5"/>
  </outline>
</glyph>
<glyph name="peso" format="2">
  <advance width="567"/>
  <unicode hex="20B1"/>
  <outline>
    <contour>
      <point x="449" y="588" type="line"/>
      <point x="449" y="552" type="line"/>
      <point x="568" y="552" type="line"/>
      <point x="568" y="588" type="line"/>
    </contour>
    <contour>
      <point x="454" y="457" type="line"/>
      <point x="454" y="421" type="line"/>
      <point x="568" y="421" type="line"/>
      <point x="568" y="457" type="line"/>
    </contour>
    <contour>
      <point x="137" y="421" type="line"/>
      <point x="137" y="457" type="line"/>
      <point x="15" y="457" type="line"/>
      <point x="15" y="421" type="line"/>
    </contour>
    <contour>
      <point x="137" y="552" type="line"/>
      <point x="137" y="588" type="line"/>
      <point x="15" y="588" type="line"/>
      <point x="15" y="552" type="line"/>
    </contour>
    <component base="P"/>
  </outline>
</glyph>
<glyph name="rupeeIndian" format="2">
  <advance width="586"/>
  <unicode hex="20B9"/>
  <outline>
    <contour>
      <point x="132" y="298" type="line"/>
      <point x="223" y="298" type="line" smooth="yes"/>
      <point x="390" y="298"/>
      <point x="449" y="403"/>
      <point x="449" y="509" type="curve" smooth="yes"/>
      <point x="449" y="650"/>
      <point x="332" y="697"/>
      <point x="226" y="697" type="curve"/>
      <point x="291" y="663" type="line"/>
      <point x="522" y="663" type="line"/>
      <point x="522" y="710" type="line"/>
      <point x="132" y="710" type="line"/>
      <point x="132" y="663" type="line"/>
      <point x="233" y="663" type="line"/>
      <point x="334" y="663"/>
      <point x="399" y="591"/>
      <point x="399" y="507" type="curve" smooth="yes"/>
      <point x="399" y="434"/>
      <point x="362" y="345"/>
      <point x="220" y="345" type="curve" smooth="yes"/>
      <point x="132" y="345" type="line"/>
    </contour>
    <contour>
      <point x="462" y="0" type="line"/>
      <point x="518" y="0" type="line"/>
      <point x="322" y="323" type="line"/>
      <point x="264" y="322" type="line"/>
    </contour>
    <contour>
      <point x="130" y="478" type="line"/>
      <point x="533" y="478" type="line"/>
      <point x="533" y="519" type="line"/>
      <point x="130" y="519" type="line"/>
    </contour>
  </outline>
</glyph>
<glyph name="liraTurkish" format="2">
  <advance width="634"/>
  <unicode hex="20BA"/>
  <outline>
    <contour>
      <point x="563" y="316" type="curve"/>
      <point x="513" y="304" type="line"/>
      <point x="514" y="294"/>
      <point x="515" y="284"/>
      <point x="515" y="273" type="curve" smooth="yes"/>
      <point x="515" y="101"/>
      <point x="381" y="47"/>
      <point x="215" y="47" type="curve"/>
      <point x="219" y="21" type="line"/>
      <point x="219" y="710" type="line"/>
      <point x="170" y="710" type="line"/>
      <point x="170" y="0" type="line"/>
      <point x="219" y="0" type="line" smooth="yes"/>
      <point x="407" y="0"/>
      <point x="565" y="70"/>
      <point x="566" y="272" type="curve" smooth="yes"/>
      <point x="566" y="287"/>
      <point x="565" y="302"/>
    </contour>
    <contour>
      <point x="436" y="392" type="line"/>
      <point x="61" y="183" type="line"/>
      <point x="80" y="152" type="line"/>
      <point x="455" y="361" type="line"/>
    </contour>
    <contour>
      <point x="404" y="519" type="line"/>
      <point x="30" y="312" type="line"/>
      <point x="49" y="281" type="line"/>
      <point x="423" y="488" type="line"/>
    </contour>
  </outline>
</glyph>
<glyph name="manat" format="2">
  <advance width="715"/>
  <unicode hex="20BC"/>
  <anchor x="358" y="-11" name="bottom"/>
  <anchor x="117" y="-125" name="bottomleft"/>
  <anchor x="231" y="694" name="ogonek"/>
  <anchor x="358" y="704" name="top"/>
  <outline>
    <contour>
      <point x="337" y="831" type="line"/>
      <point x="337" y="0" type="line"/>
      <point x="380" y="0" type="line"/>
      <point x="380" y="831" type="line"/>
    </contour>
    <contour>
      <point x="553" y="464" type="curve" smooth="yes"/>
      <point x="553" y="-6" type="line"/>
      <point x="602" y="-6" type="line"/>
      <point x="602" y="466" type="line" smooth="yes"/>
      <point x="602" y="622"/>
      <point x="497" y="712"/>
      <point x="358" y="712" type="curve" smooth="yes"/>
      <point x="358" y="712" type="line" smooth="yes"/>
      <point x="221" y="712"/>
      <point x="113" y="622"/>
      <point x="113" y="466" type="curve" smooth="yes"/>
      <point x="113" y="-6" type="line"/>
      <point x="162" y="-6" type="line"/>
      <point x="162" y="464" type="line" smooth="yes"/>
      <point x="162" y="588"/>
      <point x="245" y="665"/>
      <point x="358" y="665" type="curve" smooth="yes"/>
      <point x="470" y="665"/>
      <point x="553" y="588"/>
    </contour>
  </outline>
</glyph>
<glyph name="ruble" format="2">
  <advance width="554"/>
  <unicode hex="20BD"/>
  <outline>
    <contour>
      <point x="15" y="182" type="line"/>
      <point x="15" y="138" type="line"/>
      <point x="276" y="138" type="line"/>
      <point x="276" y="182" type="line"/>
    </contour>
    <contour>
      <point x="15" y="342" type="line"/>
      <point x="15" y="298" type="line"/>
      <point x="179" y="298" type="line"/>
      <point x="179" y="342" type="line"/>
    </contour>
    <component base="P"/>
  </outline>
</glyph>
<glyph name="numero" format="2">
  <advance width="1282"/>
  <unicode hex="2116"/>
  <outline>
    <contour>
      <point x="843" y="235" type="line"/>
      <point x="843" y="193" type="line"/>
      <point x="1219" y="193" type="line"/>
      <point x="1219" y="235" type="line"/>
    </contour>
    <component base="N"/>
    <component base="o" xOffset="763" yOffset="307"/>
  </outline>
</glyph>
<glyph name="trademark" format="2">
  <advance width="568"/>
  <unicode hex="2122"/>
  <outline>
    <contour>
      <point x="471" y="663" type="line"/>
      <point x="471" y="448" type="line"/>
      <point x="504" y="448" type="line"/>
      <point x="504" y="718" type="line"/>
      <point x="377" y="557" type="line"/>
      <point x="383" y="557" type="line"/>
      <point x="257" y="718" type="line"/>
      <point x="257" y="448" type="line"/>
      <point x="288" y="448" type="line"/>
      <point x="288" y="662" type="line"/>
      <point x="273" y="656" type="line"/>
      <point x="380" y="511" type="line"/>
      <point x="487" y="656" type="line"/>
    </contour>
    <contour>
      <point x="47" y="707" type="line"/>
      <point x="47" y="677" type="line"/>
      <point x="111" y="677" type="line"/>
      <point x="111" y="448" type="line"/>
      <point x="145" y="448" type="line"/>
      <point x="145" y="677" type="line"/>
      <point x="210" y="677" type="line"/>
      <point x="210" y="707" type="line"/>
    </contour>
  </outline>
</glyph>
<glyph name="Ohm" format="2">
  <advance width="833"/>
  <unicode hex="2126"/>
  <outline>
    <contour>
      <point x="492" y="42" type="curve"/>
      <point x="492" y="16" type="line"/>
      <point x="597" y="52"/>
      <point x="700" y="121"/>
      <point x="703" y="293" type="curve" smooth="yes"/>
      <point x="706" y="436"/>
      <point x="630" y="596"/>
      <point x="435" y="596" type="curve" smooth="yes"/>
      <point x="253" y="597"/>
      <point x="164" y="453"/>
      <point x="164" y="302" type="curve" smooth="yes"/>
      <point x="164" y="126"/>
      <point x="271" y="57"/>
      <point x="382" y="17" type="curve"/>
      <point x="382" y="42" type="line"/>
      <point x="294" y="79"/>
      <point x="207" y="158"/>
      <point x="208" y="297" type="curve" smooth="yes"/>
      <point x="209" y="452"/>
      <point x="295" y="555"/>
      <point x="436" y="554" type="curve" smooth="yes"/>
      <point x="575" y="553"/>
      <point x="660" y="453"/>
      <point x="660" y="292" type="curve" smooth="yes"/>
      <point x="659" y="157"/>
      <point x="581" y="77"/>
    </contour>
    <contour>
      <point x="162" y="42" type="line"/>
      <point x="162" y="0" type="line"/>
      <point x="382" y="0" type="line"/>
      <point x="382" y="42" type="line"/>
    </contour>
    <contour>
      <point x="492" y="42" type="line"/>
      <point x="492" y="0" type="line"/>
      <point x="701" y="0" type="line"/>
      <point x="701" y="42" type="line"/>
    </contour>
  </outline>
</glyph>
<glyph name="increment" format="2">
  <advance width="502"/>
  <unicode hex="2206"/>
  <outline>
    <contour>
      <point x="236" y="733" type="line"/>
      <point x="236" y="733" type="line"/>
      <point x="77" y="275" type="line"/>
      <point x="112" y="275" type="line"/>
      <point x="236" y="641" type="line"/>
      <point x="361" y="275" type="line"/>
      <point x="395" y="275" type="line"/>
    </contour>
    <contour>
      <point x="104" y="304" type="line"/>
      <point x="104" y="275" type="line"/>
      <point x="372" y="275" type="line"/>
      <point x="372" y="304" type="line"/>
    </contour>
  </outline>
</glyph>
<glyph name="product" format="2">
  <advance width="609"/>
  <unicode hex="220F"/>
  <outline>
    <contour>
      <point x="202" y="754" type="line"/>
      <point x="202" y="-61" type="line"/>
      <point x="245" y="-61" type="line"/>
      <point x="245" y="712" type="line"/>
      <point x="382" y="712" type="line"/>
      <point x="382" y="-61" type="line"/>
      <point x="425" y="-61" type="line"/>
      <point x="425" y="754" type="line"/>
    </contour>
  </outline>
</glyph>
<glyph name="summation" format="2">
  <advance width="512"/>
  <unicode hex="2211"/>
  <outline>
    <contour>
      <point x="79" y="754" type="line"/>
      <point x="194" y="344" type="line"/>
      <point x="79" y="-67" type="line"/>
      <point x="437" y="-67" type="line"/>
      <point x="417" y="-25" type="line"/>
      <point x="137" y="-25" type="line"/>
      <point x="240" y="344" type="line"/>
      <point x="137" y="712" type="line"/>
      <point x="417" y="712" type="line"/>
      <point x="437" y="754" type="line"/>
    </contour>
  </outline>
</glyph>
<glyph name="minus" format="2">
  <advance width="753"/>
  <unicode hex="2212"/>
  <outline>
    <contour>
      <point x="85" y="219" type="line"/>
      <point x="85" y="177" type="line"/>
      <point x="447" y="177" type="line"/>
      <point x="447" y="219" type="line"/>
    </contour>
  </outline>
</glyph>
